solid CATIA STL
  facet normal  -0.000000e+000  0.000000e+000  1.000000e+000
    outer loop
      vertex -4.000000e+000  0.000000e+000  1.600000e+001
      vertex -5.939340e+000 -9.939340e+000  1.600000e+001
      vertex -5.500000e+000 -1.100000e+001  1.600000e+001
    endloop
  endfacet
  facet normal  -0.000000e+000  0.000000e+000  1.000000e+000
    outer loop
      vertex -4.000000e+000  0.000000e+000  1.600000e+001
      vertex -7.000000e+000 -9.500000e+000  1.600000e+001
      vertex -5.939340e+000 -9.939340e+000  1.600000e+001
    endloop
  endfacet
  facet normal  0.000000e+000  0.000000e+000  1.000000e+000
    outer loop
      vertex -8.060660e+000 -1.206066e+001  1.600000e+001
      vertex -9.330127e+000 -1.250000e+001  1.600000e+001
      vertex -7.000000e+000 -1.250000e+001  1.600000e+001
    endloop
  endfacet
  facet normal  0.000000e+000  0.000000e+000  1.000000e+000
    outer loop
      vertex -7.500000e+000 -1.433013e+001  1.600000e+001
      vertex -7.000000e+000 -1.250000e+001  1.600000e+001
      vertex -9.330127e+000 -1.250000e+001  1.600000e+001
    endloop
  endfacet
  facet normal  0.000000e+000  0.000000e+000  1.000000e+000
    outer loop
      vertex -4.000000e+000 -1.500000e+001  1.600000e+001
      vertex -4.000000e+000  0.000000e+000  1.600000e+001
      vertex -5.500000e+000 -1.100000e+001  1.600000e+001
    endloop
  endfacet
  facet normal  0.000000e+000  0.000000e+000  1.000000e+000
    outer loop
      vertex -4.000000e+000 -1.500000e+001  1.600000e+001
      vertex -5.500000e+000 -1.100000e+001  1.600000e+001
      vertex -5.939340e+000 -1.206066e+001  1.600000e+001
    endloop
  endfacet
  facet normal  0.000000e+000  0.000000e+000  1.000000e+000
    outer loop
      vertex -4.000000e+000 -1.500000e+001  1.600000e+001
      vertex -5.939340e+000 -1.206066e+001  1.600000e+001
      vertex -7.000000e+000 -1.250000e+001  1.600000e+001
    endloop
  endfacet
  facet normal  0.000000e+000  0.000000e+000  1.000000e+000
    outer loop
      vertex -4.000000e+000 -1.500000e+001  1.600000e+001
      vertex -7.000000e+000 -1.250000e+001  1.600000e+001
      vertex -7.500000e+000 -1.433013e+001  1.600000e+001
    endloop
  endfacet
  facet normal  0.000000e+000  0.000000e+000  1.000000e+000
    outer loop
      vertex -4.000000e+000 -1.500000e+001  1.600000e+001
      vertex -7.500000e+000 -1.433013e+001  1.600000e+001
      vertex -5.000000e+000 -1.500000e+001  1.600000e+001
    endloop
  endfacet
  facet normal  0.000000e+000  0.000000e+000  1.000000e+000
    outer loop
      vertex -7.000000e+000 -9.500000e+000  1.600000e+001
      vertex -7.500000e+000  1.433013e+001  1.600000e+001
      vertex -9.330127e+000  1.250000e+001  1.600000e+001
    endloop
  endfacet
  facet normal  0.000000e+000  0.000000e+000  1.000000e+000
    outer loop
      vertex -7.000000e+000 -9.500000e+000  1.600000e+001
      vertex -9.330127e+000  1.250000e+001  1.600000e+001
      vertex -1.000000e+001  1.000000e+001  1.600000e+001
    endloop
  endfacet
  facet normal  0.000000e+000  0.000000e+000  1.000000e+000
    outer loop
      vertex -7.000000e+000 -9.500000e+000  1.600000e+001
      vertex -1.000000e+001  1.000000e+001  1.600000e+001
      vertex -1.000000e+001  8.881784e-016  1.600000e+001
    endloop
  endfacet
  facet normal  0.000000e+000  0.000000e+000  1.000000e+000
    outer loop
      vertex -7.000000e+000 -9.500000e+000  1.600000e+001
      vertex -1.000000e+001  8.881784e-016  1.600000e+001
      vertex -1.000000e+001 -1.000000e+001  1.600000e+001
    endloop
  endfacet
  facet normal  0.000000e+000  0.000000e+000  9.999999e-001
    outer loop
      vertex -7.000000e+000 -9.500000e+000  1.600000e+001
      vertex -1.000000e+001 -1.000000e+001  1.600000e+001
      vertex -8.060660e+000 -9.939340e+000  1.600000e+001
    endloop
  endfacet
  facet normal  0.000000e+000  0.000000e+000  1.000000e+000
    outer loop
      vertex  4.000000e+000  0.000000e+000  1.600000e+001
      vertex  4.000000e+000  1.500000e+001  1.600000e+001
      vertex -4.000000e+000  0.000000e+000  1.600000e+001
    endloop
  endfacet
  facet normal  0.000000e+000  -0.000000e+000  1.000000e+000
    outer loop
      vertex -4.000000e+000  0.000000e+000  1.600000e+001
      vertex  4.000000e+000  1.500000e+001  1.600000e+001
      vertex -5.000000e+000  1.500000e+001  1.600000e+001
    endloop
  endfacet
  facet normal  0.000000e+000  0.000000e+000  9.999999e-001
    outer loop
      vertex -4.000000e+000  0.000000e+000  1.600000e+001
      vertex -5.000000e+000  1.500000e+001  1.600000e+001
      vertex -7.000000e+000 -9.500000e+000  1.600000e+001
    endloop
  endfacet
  facet normal  0.000000e+000  -0.000000e+000  1.000000e+000
    outer loop
      vertex -7.000000e+000 -9.500000e+000  1.600000e+001
      vertex -5.000000e+000  1.500000e+001  1.600000e+001
      vertex -7.500000e+000  1.433013e+001  1.600000e+001
    endloop
  endfacet
  facet normal  -0.000000e+000  0.000000e+000  1.000000e+000
    outer loop
      vertex -8.060660e+000 -9.939340e+000  1.600000e+001
      vertex -1.000000e+001 -1.000000e+001  1.600000e+001
      vertex -8.500000e+000 -1.100000e+001  1.600000e+001
    endloop
  endfacet
  facet normal  0.000000e+000  0.000000e+000  1.000000e+000
    outer loop
      vertex -8.500000e+000 -1.100000e+001  1.600000e+001
      vertex -1.000000e+001 -1.000000e+001  1.600000e+001
      vertex -9.330127e+000 -1.250000e+001  1.600000e+001
    endloop
  endfacet
  facet normal  0.000000e+000  0.000000e+000  1.000000e+000
    outer loop
      vertex -8.500000e+000 -1.100000e+001  1.600000e+001
      vertex -9.330127e+000 -1.250000e+001  1.600000e+001
      vertex -8.060660e+000 -1.206066e+001  1.600000e+001
    endloop
  endfacet
  facet normal  0.000000e+000 -1.000000e+000  0.000000e+000
    outer loop
      vertex -5.000000e+000 -1.500000e+001  1.600000e+001
      vertex -5.000000e+000 -1.500000e+001  1.400000e+001
      vertex -4.000000e+000 -1.500000e+001  1.600000e+001
    endloop
  endfacet
  facet normal  0.000000e+000 -1.000000e+000  -0.000000e+000
    outer loop
      vertex -4.000000e+000 -1.500000e+001  1.600000e+001
      vertex -5.000000e+000 -1.500000e+001  1.400000e+001
      vertex -4.000000e+000 -1.500000e+001  1.400000e+001
    endloop
  endfacet
  facet normal  0.000000e+000  0.000000e+000 -1.000000e+000
    outer loop
      vertex -8.060660e+000 -1.206066e+001  1.400000e+001
      vertex -9.330127e+000 -1.250000e+001  1.400000e+001
      vertex -8.500000e+000 -1.100000e+001  1.400000e+001
    endloop
  endfacet
  facet normal  0.000000e+000  0.000000e+000 -1.000000e+000
    outer loop
      vertex -7.000000e+000 -1.250000e+001  1.400000e+001
      vertex -9.330127e+000 -1.250000e+001  1.400000e+001
      vertex -8.060660e+000 -1.206066e+001  1.400000e+001
    endloop
  endfacet
  facet normal  -0.000000e+000  0.000000e+000 -1.000000e+000
    outer loop
      vertex -9.330127e+000 -1.250000e+001  1.400000e+001
      vertex -7.000000e+000 -1.250000e+001  1.400000e+001
      vertex -7.500000e+000 -1.433013e+001  1.400000e+001
    endloop
  endfacet
  facet normal  0.000000e+000  0.000000e+000 -1.000000e+000
    outer loop
      vertex -4.000000e+000  0.000000e+000  1.400000e+001
      vertex -4.000000e+000 -1.500000e+001  1.400000e+001
      vertex -5.500000e+000 -1.100000e+001  1.400000e+001
    endloop
  endfacet
  facet normal  0.000000e+000  0.000000e+000 -1.000000e+000
    outer loop
      vertex -4.000000e+000  0.000000e+000  1.400000e+001
      vertex -5.500000e+000 -1.100000e+001  1.400000e+001
      vertex -5.939340e+000 -9.939340e+000  1.400000e+001
    endloop
  endfacet
  facet normal  0.000000e+000  0.000000e+000 -1.000000e+000
    outer loop
      vertex -4.000000e+000  0.000000e+000  1.400000e+001
      vertex -5.939340e+000 -9.939340e+000  1.400000e+001
      vertex -7.000000e+000 -9.500000e+000  1.400000e+001
    endloop
  endfacet
  facet normal  0.000000e+000  0.000000e+000 -1.000000e+000
    outer loop
      vertex -4.000000e+000  0.000000e+000  1.400000e+001
      vertex -7.000000e+000 -9.500000e+000  1.400000e+001
      vertex -6.500000e+000  7.959941e-016  1.400000e+001
    endloop
  endfacet
  facet normal  0.000000e+000  0.000000e+000 -1.000000e+000
    outer loop
      vertex -4.000000e+000  0.000000e+000  1.400000e+001
      vertex -6.500000e+000  7.959941e-016  1.400000e+001
      vertex -5.862109e+000  2.808146e+000  1.400000e+001
    endloop
  endfacet
  facet normal  0.000000e+000  0.000000e+000 -1.000000e+000
    outer loop
      vertex -4.000000e+000  0.000000e+000  1.400000e+001
      vertex -5.862109e+000  2.808146e+000  1.400000e+001
      vertex  4.000000e+000  0.000000e+000  1.400000e+001
    endloop
  endfacet
  facet normal  0.000000e+000  0.000000e+000 -1.000000e+000
    outer loop
      vertex -4.000000e+000 -1.500000e+001  1.400000e+001
      vertex -5.000000e+000 -1.500000e+001  1.400000e+001
      vertex -7.500000e+000 -1.433013e+001  1.400000e+001
    endloop
  endfacet
  facet normal  0.000000e+000  0.000000e+000 -1.000000e+000
    outer loop
      vertex -4.000000e+000 -1.500000e+001  1.400000e+001
      vertex -7.500000e+000 -1.433013e+001  1.400000e+001
      vertex -7.000000e+000 -1.250000e+001  1.400000e+001
    endloop
  endfacet
  facet normal  0.000000e+000  0.000000e+000 -1.000000e+000
    outer loop
      vertex -4.000000e+000 -1.500000e+001  1.400000e+001
      vertex -7.000000e+000 -1.250000e+001  1.400000e+001
      vertex -5.939340e+000 -1.206066e+001  1.400000e+001
    endloop
  endfacet
  facet normal  0.000000e+000  0.000000e+000 -1.000000e+000
    outer loop
      vertex -4.000000e+000 -1.500000e+001  1.400000e+001
      vertex -5.939340e+000 -1.206066e+001  1.400000e+001
      vertex -5.500000e+000 -1.100000e+001  1.400000e+001
    endloop
  endfacet
  facet normal  0.000000e+000  0.000000e+000 -1.000000e+000
    outer loop
      vertex -6.500000e+000  7.959941e-016  1.400000e+001
      vertex -7.000000e+000 -9.500000e+000  1.400000e+001
      vertex -1.000000e+001  0.000000e+000  1.400000e+001
    endloop
  endfacet
  facet normal  0.000000e+000  0.000000e+000 -1.000000e+000
    outer loop
      vertex -1.000000e+001  0.000000e+000  1.400000e+001
      vertex -7.000000e+000 -9.500000e+000  1.400000e+001
      vertex -8.060660e+000 -9.939340e+000  1.400000e+001
    endloop
  endfacet
  facet normal  -0.000000e+000  0.000000e+000 -1.000000e+000
    outer loop
      vertex -1.000000e+001  0.000000e+000  1.400000e+001
      vertex -8.060660e+000 -9.939340e+000  1.400000e+001
      vertex -1.000000e+001 -1.000000e+001  1.400000e+001
    endloop
  endfacet
  facet normal  0.000000e+000  0.000000e+000 -1.000000e+000
    outer loop
      vertex -1.000000e+001 -1.000000e+001  1.400000e+001
      vertex -8.060660e+000 -9.939340e+000  1.400000e+001
      vertex -8.500000e+000 -1.100000e+001  1.400000e+001
    endloop
  endfacet
  facet normal  -0.000000e+000  0.000000e+000 -1.000000e+000
    outer loop
      vertex -1.000000e+001 -1.000000e+001  1.400000e+001
      vertex -8.500000e+000 -1.100000e+001  1.400000e+001
      vertex -9.330127e+000 -1.250000e+001  1.400000e+001
    endloop
  endfacet
  facet normal  0.000000e+000  0.000000e+000 -1.000000e+000
    outer loop
      vertex  1.393996e+000  6.348762e+000  1.400000e+001
      vertex  4.000000e+000  5.123476e+000  1.400000e+001
      vertex -1.485614e+000  6.327950e+000  1.400000e+001
    endloop
  endfacet
  facet normal  0.000000e+000  -0.000000e+000 -9.999999e-001
    outer loop
      vertex -1.485614e+000  6.327950e+000  1.400000e+001
      vertex  4.000000e+000  5.123476e+000  1.400000e+001
      vertex -4.073637e+000  5.065125e+000  1.400000e+001
    endloop
  endfacet
  facet normal  0.000000e+000  0.000000e+000 -1.000000e+000
    outer loop
      vertex  4.000000e+000  5.123476e+000  1.400000e+001
      vertex  4.000000e+000  0.000000e+000  1.400000e+001
      vertex -4.073637e+000  5.065125e+000  1.400000e+001
    endloop
  endfacet
  facet normal  0.000000e+000  -0.000000e+000 -1.000000e+000
    outer loop
      vertex -4.073637e+000  5.065125e+000  1.400000e+001
      vertex  4.000000e+000  0.000000e+000  1.400000e+001
      vertex -5.862109e+000  2.808146e+000  1.400000e+001
    endloop
  endfacet
  facet normal -1.000000e+000  -0.000000e+000  0.000000e+000
    outer loop
      vertex -1.000000e+001 -1.000000e+001  1.600000e+001
      vertex -1.000000e+001  8.881784e-016  1.600000e+001
      vertex -1.000000e+001 -1.000000e+001  1.400000e+001
    endloop
  endfacet
  facet normal -1.000000e+000  0.000000e+000  0.000000e+000
    outer loop
      vertex -1.000000e+001 -1.000000e+001  1.400000e+001
      vertex -1.000000e+001  8.881784e-016  1.600000e+001
      vertex -1.000000e+001  0.000000e+000  1.400000e+001
    endloop
  endfacet
  facet normal -2.588191e-001 -9.659258e-001  -0.000000e+000
    outer loop
      vertex -5.000000e+000 -1.500000e+001  1.400000e+001
      vertex -5.000000e+000 -1.500000e+001  1.600000e+001
      vertex -7.500000e+000 -1.433013e+001  1.400000e+001
    endloop
  endfacet
  facet normal -2.588191e-001 -9.659258e-001  0.000000e+000
    outer loop
      vertex -7.500000e+000 -1.433013e+001  1.400000e+001
      vertex -5.000000e+000 -1.500000e+001  1.600000e+001
      vertex -7.500000e+000 -1.433013e+001  1.600000e+001
    endloop
  endfacet
  facet normal -7.071068e-001 -7.071068e-001  -0.000000e+000
    outer loop
      vertex -7.500000e+000 -1.433013e+001  1.400000e+001
      vertex -7.500000e+000 -1.433013e+001  1.600000e+001
      vertex -9.330127e+000 -1.250000e+001  1.400000e+001
    endloop
  endfacet
  facet normal -7.071068e-001 -7.071068e-001  0.000000e+000
    outer loop
      vertex -9.330127e+000 -1.250000e+001  1.400000e+001
      vertex -7.500000e+000 -1.433013e+001  1.600000e+001
      vertex -9.330127e+000 -1.250000e+001  1.600000e+001
    endloop
  endfacet
  facet normal -9.659258e-001 -2.588191e-001  -0.000000e+000
    outer loop
      vertex -9.330127e+000 -1.250000e+001  1.400000e+001
      vertex -9.330127e+000 -1.250000e+001  1.600000e+001
      vertex -1.000000e+001 -1.000000e+001  1.400000e+001
    endloop
  endfacet
  facet normal -9.659258e-001 -2.588191e-001  0.000000e+000
    outer loop
      vertex -1.000000e+001 -1.000000e+001  1.400000e+001
      vertex -9.330127e+000 -1.250000e+001  1.600000e+001
      vertex -1.000000e+001 -1.000000e+001  1.600000e+001
    endloop
  endfacet
  facet normal  -0.000000e+000  0.000000e+000 -1.000000e+000
    outer loop
      vertex -4.052684e+000  5.081904e+000  0.000000e+000
      vertex -5.856297e+000  2.820244e+000  0.000000e+000
      vertex -1.000000e+001  0.000000e+000  0.000000e+000
    endloop
  endfacet
  facet normal  0.000000e+000  0.000000e+000 -1.000000e+000
    outer loop
      vertex -5.856297e+000  2.820244e+000  0.000000e+000
      vertex -6.500000e+000  0.000000e+000  0.000000e+000
      vertex -1.000000e+001  0.000000e+000  0.000000e+000
    endloop
  endfacet
  facet normal  0.000000e+000  0.000000e+000 -1.000000e+000
    outer loop
      vertex  6.500000e+000  0.000000e+000  0.000000e+000
      vertex  5.856297e+000  2.820244e+000  0.000000e+000
      vertex  1.000000e+001  0.000000e+000  0.000000e+000
    endloop
  endfacet
  facet normal  0.000000e+000  0.000000e+000 -1.000000e+000
    outer loop
      vertex  1.000000e+001  1.000000e+001  0.000000e+000
      vertex  1.000000e+001  0.000000e+000  0.000000e+000
      vertex  5.856297e+000  2.820244e+000  0.000000e+000
    endloop
  endfacet
  facet normal  0.000000e+000  0.000000e+000 -1.000000e+000
    outer loop
      vertex  1.000000e+001  1.000000e+001  0.000000e+000
      vertex  5.856297e+000  2.820244e+000  0.000000e+000
      vertex  4.052684e+000  5.081904e+000  0.000000e+000
    endloop
  endfacet
  facet normal  0.000000e+000  0.000000e+000 -1.000000e+000
    outer loop
      vertex  1.000000e+001  1.000000e+001  0.000000e+000
      vertex  4.052684e+000  5.081904e+000  0.000000e+000
      vertex  1.446386e+000  6.337031e+000  0.000000e+000
    endloop
  endfacet
  facet normal  0.000000e+000  0.000000e+000 -1.000000e+000
    outer loop
      vertex  1.000000e+001  1.000000e+001  0.000000e+000
      vertex  1.446386e+000  6.337031e+000  0.000000e+000
      vertex -1.446386e+000  6.337031e+000  0.000000e+000
    endloop
  endfacet
  facet normal  0.000000e+000  -0.000000e+000 -1.000000e+000
    outer loop
      vertex -1.000000e+001  1.000000e+001  0.000000e+000
      vertex -9.330127e+000  1.250000e+001  0.000000e+000
      vertex  9.330127e+000  1.250000e+001  0.000000e+000
    endloop
  endfacet
  facet normal  0.000000e+000  -0.000000e+000 -9.999999e-001
    outer loop
      vertex -1.000000e+001  1.000000e+001  0.000000e+000
      vertex  9.330127e+000  1.250000e+001  0.000000e+000
      vertex  1.000000e+001  1.000000e+001  0.000000e+000
    endloop
  endfacet
  facet normal  -0.000000e+000  0.000000e+000 -1.000000e+000
    outer loop
      vertex -1.000000e+001  1.000000e+001  0.000000e+000
      vertex  1.000000e+001  1.000000e+001  0.000000e+000
      vertex -1.446386e+000  6.337031e+000  0.000000e+000
    endloop
  endfacet
  facet normal  -0.000000e+000  0.000000e+000 -1.000000e+000
    outer loop
      vertex -1.000000e+001  1.000000e+001  0.000000e+000
      vertex -1.446386e+000  6.337031e+000  0.000000e+000
      vertex -4.052684e+000  5.081904e+000  0.000000e+000
    endloop
  endfacet
  facet normal  -0.000000e+000  0.000000e+000 -1.000000e+000
    outer loop
      vertex -1.000000e+001  1.000000e+001  0.000000e+000
      vertex -4.052684e+000  5.081904e+000  0.000000e+000
      vertex -1.000000e+001  0.000000e+000  0.000000e+000
    endloop
  endfacet
  facet normal  0.000000e+000  0.000000e+000 -1.000000e+000
    outer loop
      vertex  5.000000e+000  1.500000e+001  0.000000e+000
      vertex  7.500000e+000  1.433013e+001  0.000000e+000
      vertex -5.000000e+000  1.500000e+001  0.000000e+000
    endloop
  endfacet
  facet normal  0.000000e+000  -0.000000e+000 -1.000000e+000
    outer loop
      vertex -5.000000e+000  1.500000e+001  0.000000e+000
      vertex  7.500000e+000  1.433013e+001  0.000000e+000
      vertex -7.500000e+000  1.433013e+001  0.000000e+000
    endloop
  endfacet
  facet normal  0.000000e+000  0.000000e+000 -1.000000e+000
    outer loop
      vertex  7.500000e+000  1.433013e+001  0.000000e+000
      vertex  9.330127e+000  1.250000e+001  0.000000e+000
      vertex -7.500000e+000  1.433013e+001  0.000000e+000
    endloop
  endfacet
  facet normal  0.000000e+000  -0.000000e+000 -1.000000e+000
    outer loop
      vertex -7.500000e+000  1.433013e+001  0.000000e+000
      vertex  9.330127e+000  1.250000e+001  0.000000e+000
      vertex -9.330127e+000  1.250000e+001  0.000000e+000
    endloop
  endfacet
  facet normal  0.000000e+000  1.000000e+000  0.000000e+000
    outer loop
      vertex  4.000000e+000  1.500000e+001  1.400000e+001
      vertex  9.425018e-001  1.500000e+001  8.950723e+000
      vertex  4.000000e+000  1.500000e+001  1.600000e+001
    endloop
  endfacet
  facet normal  -0.000000e+000  1.000000e+000  0.000000e+000
    outer loop
      vertex  5.000000e+000  1.500000e+001  0.000000e+000
      vertex  2.467502e+000  1.500000e+001  4.257255e+000
      vertex  3.050000e+000  1.500000e+001  6.050000e+000
    endloop
  endfacet
  facet normal  -0.000000e+000  9.999999e-001  0.000000e+000
    outer loop
      vertex  5.000000e+000  1.500000e+001  0.000000e+000
      vertex  9.425018e-001  1.500000e+001  3.149278e+000
      vertex  2.467502e+000  1.500000e+001  4.257255e+000
    endloop
  endfacet
  facet normal  0.000000e+000  1.000000e+000  0.000000e+000
    outer loop
      vertex -5.000000e+000  1.500000e+001  0.000000e+000
      vertex -3.050000e+000  1.500000e+001  6.050000e+000
      vertex -2.467502e+000  1.500000e+001  4.257255e+000
    endloop
  endfacet
  facet normal  0.000000e+000  1.000000e+000  0.000000e+000
    outer loop
      vertex -5.000000e+000  1.500000e+001  0.000000e+000
      vertex -2.467502e+000  1.500000e+001  4.257255e+000
      vertex -9.425018e-001  1.500000e+001  3.149278e+000
    endloop
  endfacet
  facet normal  -0.000000e+000  1.000000e+000  0.000000e+000
    outer loop
      vertex -5.000000e+000  1.500000e+001  0.000000e+000
      vertex -9.425018e-001  1.500000e+001  3.149278e+000
      vertex  9.425018e-001  1.500000e+001  3.149278e+000
    endloop
  endfacet
  facet normal  0.000000e+000  1.000000e+000  0.000000e+000
    outer loop
      vertex -5.000000e+000  1.500000e+001  0.000000e+000
      vertex  9.425018e-001  1.500000e+001  3.149278e+000
      vertex  5.000000e+000  1.500000e+001  0.000000e+000
    endloop
  endfacet
  facet normal  0.000000e+000  1.000000e+000  -0.000000e+000
    outer loop
      vertex  5.000000e+000  1.500000e+001  1.400000e+001
      vertex  5.000000e+000  1.500000e+001  0.000000e+000
      vertex  3.050000e+000  1.500000e+001  6.050000e+000
    endloop
  endfacet
  facet normal  0.000000e+000  1.000000e+000  -0.000000e+000
    outer loop
      vertex  5.000000e+000  1.500000e+001  1.400000e+001
      vertex  3.050000e+000  1.500000e+001  6.050000e+000
      vertex  2.467502e+000  1.500000e+001  7.842745e+000
    endloop
  endfacet
  facet normal  0.000000e+000  1.000000e+000  -0.000000e+000
    outer loop
      vertex  5.000000e+000  1.500000e+001  1.400000e+001
      vertex  2.467502e+000  1.500000e+001  7.842745e+000
      vertex  9.425018e-001  1.500000e+001  8.950723e+000
    endloop
  endfacet
  facet normal  0.000000e+000  1.000000e+000  0.000000e+000
    outer loop
      vertex  5.000000e+000  1.500000e+001  1.400000e+001
      vertex  9.425018e-001  1.500000e+001  8.950723e+000
      vertex  4.000000e+000  1.500000e+001  1.400000e+001
    endloop
  endfacet
  facet normal  0.000000e+000  1.000000e+000  0.000000e+000
    outer loop
      vertex -5.000000e+000  1.500000e+001  1.600000e+001
      vertex  4.000000e+000  1.500000e+001  1.600000e+001
      vertex  9.425018e-001  1.500000e+001  8.950723e+000
    endloop
  endfacet
  facet normal  0.000000e+000  1.000000e+000  0.000000e+000
    outer loop
      vertex -5.000000e+000  1.500000e+001  1.600000e+001
      vertex  9.425018e-001  1.500000e+001  8.950723e+000
      vertex -9.425018e-001  1.500000e+001  8.950723e+000
    endloop
  endfacet
  facet normal  0.000000e+000  9.999999e-001  0.000000e+000
    outer loop
      vertex -5.000000e+000  1.500000e+001  1.600000e+001
      vertex -9.425018e-001  1.500000e+001  8.950723e+000
      vertex -2.467502e+000  1.500000e+001  7.842745e+000
    endloop
  endfacet
  facet normal  0.000000e+000  1.000000e+000  0.000000e+000
    outer loop
      vertex -5.000000e+000  1.500000e+001  1.600000e+001
      vertex -2.467502e+000  1.500000e+001  7.842745e+000
      vertex -3.050000e+000  1.500000e+001  6.050000e+000
    endloop
  endfacet
  facet normal  0.000000e+000  9.999999e-001  0.000000e+000
    outer loop
      vertex -5.000000e+000  1.500000e+001  1.600000e+001
      vertex -3.050000e+000  1.500000e+001  6.050000e+000
      vertex -5.000000e+000  1.500000e+001  0.000000e+000
    endloop
  endfacet
  facet normal -1.000000e+000  0.000000e+000  0.000000e+000
    outer loop
      vertex -1.000000e+001  0.000000e+000  0.000000e+000
      vertex -1.000000e+001  0.000000e+000  1.400000e+001
      vertex -1.000000e+001  1.000000e+001  0.000000e+000
    endloop
  endfacet
  facet normal -1.000000e+000  0.000000e+000  0.000000e+000
    outer loop
      vertex -1.000000e+001  1.000000e+001  0.000000e+000
      vertex -1.000000e+001  0.000000e+000  1.400000e+001
      vertex -1.000000e+001  8.881784e-016  1.600000e+001
    endloop
  endfacet
  facet normal -1.000000e+000  0.000000e+000  0.000000e+000
    outer loop
      vertex -1.000000e+001  1.000000e+001  0.000000e+000
      vertex -1.000000e+001  8.881784e-016  1.600000e+001
      vertex -1.000000e+001  1.000000e+001  1.600000e+001
    endloop
  endfacet
  facet normal -9.659258e-001  2.588191e-001  0.000000e+000
    outer loop
      vertex -1.000000e+001  1.000000e+001  0.000000e+000
      vertex -1.000000e+001  1.000000e+001  1.600000e+001
      vertex -9.330127e+000  1.250000e+001  0.000000e+000
    endloop
  endfacet
  facet normal -9.659258e-001  2.588191e-001  0.000000e+000
    outer loop
      vertex -9.330127e+000  1.250000e+001  0.000000e+000
      vertex -1.000000e+001  1.000000e+001  1.600000e+001
      vertex -9.330127e+000  1.250000e+001  1.600000e+001
    endloop
  endfacet
  facet normal -7.071068e-001  7.071068e-001  0.000000e+000
    outer loop
      vertex -9.330127e+000  1.250000e+001  0.000000e+000
      vertex -9.330127e+000  1.250000e+001  1.600000e+001
      vertex -7.500000e+000  1.433013e+001  0.000000e+000
    endloop
  endfacet
  facet normal -7.071068e-001  7.071068e-001  0.000000e+000
    outer loop
      vertex -7.500000e+000  1.433013e+001  0.000000e+000
      vertex -9.330127e+000  1.250000e+001  1.600000e+001
      vertex -7.500000e+000  1.433013e+001  1.600000e+001
    endloop
  endfacet
  facet normal -2.588191e-001  9.659258e-001  0.000000e+000
    outer loop
      vertex -7.500000e+000  1.433013e+001  0.000000e+000
      vertex -7.500000e+000  1.433013e+001  1.600000e+001
      vertex -5.000000e+000  1.500000e+001  0.000000e+000
    endloop
  endfacet
  facet normal -2.588191e-001  9.659258e-001  0.000000e+000
    outer loop
      vertex -5.000000e+000  1.500000e+001  0.000000e+000
      vertex -7.500000e+000  1.433013e+001  1.600000e+001
      vertex -5.000000e+000  1.500000e+001  1.600000e+001
    endloop
  endfacet
  facet normal  0.000000e+000  0.000000e+000  1.000000e+000
    outer loop
      vertex  1.000000e+001  1.000000e+001  1.400000e+001
      vertex  9.330127e+000  1.250000e+001  1.400000e+001
      vertex  8.060660e+000  1.206066e+001  1.400000e+001
    endloop
  endfacet
  facet normal  0.000000e+000  0.000000e+000  1.000000e+000
    outer loop
      vertex  1.000000e+001  1.000000e+001  1.400000e+001
      vertex  8.060660e+000  1.206066e+001  1.400000e+001
      vertex  8.500000e+000  1.100000e+001  1.400000e+001
    endloop
  endfacet
  facet normal  0.000000e+000  0.000000e+000  1.000000e+000
    outer loop
      vertex  1.000000e+001  1.000000e+001  1.400000e+001
      vertex  8.500000e+000  1.100000e+001  1.400000e+001
      vertex  8.060660e+000  9.939340e+000  1.400000e+001
    endloop
  endfacet
  facet normal  -0.000000e+000  0.000000e+000  9.999999e-001
    outer loop
      vertex  1.000000e+001  1.000000e+001  1.400000e+001
      vertex  8.060660e+000  9.939340e+000  1.400000e+001
      vertex  7.000000e+000  9.500000e+000  1.400000e+001
    endloop
  endfacet
  facet normal  -0.000000e+000  0.000000e+000  1.000000e+000
    outer loop
      vertex  1.000000e+001  1.000000e+001  1.400000e+001
      vertex  7.000000e+000  9.500000e+000  1.400000e+001
      vertex  1.000000e+001  0.000000e+000  1.400000e+001
    endloop
  endfacet
  facet normal  0.000000e+000  -0.000000e+000  1.000000e+000
    outer loop
      vertex  4.000000e+000  5.123476e+000  1.400000e+001
      vertex  5.841660e+000  2.850439e+000  1.400000e+001
      vertex  7.000000e+000  9.500000e+000  1.400000e+001
    endloop
  endfacet
  facet normal  0.000000e+000  0.000000e+000  1.000000e+000
    outer loop
      vertex  4.000000e+000  5.123476e+000  1.400000e+001
      vertex  7.000000e+000  9.500000e+000  1.400000e+001
      vertex  5.939340e+000  9.939340e+000  1.400000e+001
    endloop
  endfacet
  facet normal  0.000000e+000  0.000000e+000  1.000000e+000
    outer loop
      vertex  4.000000e+000  5.123476e+000  1.400000e+001
      vertex  5.939340e+000  9.939340e+000  1.400000e+001
      vertex  5.500000e+000  1.100000e+001  1.400000e+001
    endloop
  endfacet
  facet normal  0.000000e+000  0.000000e+000  1.000000e+000
    outer loop
      vertex  4.000000e+000  5.123476e+000  1.400000e+001
      vertex  5.500000e+000  1.100000e+001  1.400000e+001
      vertex  5.000000e+000  1.500000e+001  1.400000e+001
    endloop
  endfacet
  facet normal  0.000000e+000  0.000000e+000  9.999999e-001
    outer loop
      vertex  4.000000e+000  5.123476e+000  1.400000e+001
      vertex  5.000000e+000  1.500000e+001  1.400000e+001
      vertex  4.000000e+000  1.500000e+001  1.400000e+001
    endloop
  endfacet
  facet normal  -0.000000e+000  0.000000e+000  1.000000e+000
    outer loop
      vertex  7.000000e+000  9.500000e+000  1.400000e+001
      vertex  5.841660e+000  2.850439e+000  1.400000e+001
      vertex  1.000000e+001  0.000000e+000  1.400000e+001
    endloop
  endfacet
  facet normal  0.000000e+000  0.000000e+000  1.000000e+000
    outer loop
      vertex  1.000000e+001  0.000000e+000  1.400000e+001
      vertex  5.841660e+000  2.850439e+000  1.400000e+001
      vertex  6.500000e+000  0.000000e+000  1.400000e+001
    endloop
  endfacet
  facet normal  0.000000e+000  0.000000e+000  1.000000e+000
    outer loop
      vertex  8.060660e+000  1.206066e+001  1.400000e+001
      vertex  9.330127e+000  1.250000e+001  1.400000e+001
      vertex  7.000000e+000  1.250000e+001  1.400000e+001
    endloop
  endfacet
  facet normal  0.000000e+000  0.000000e+000  1.000000e+000
    outer loop
      vertex  7.000000e+000  1.250000e+001  1.400000e+001
      vertex  9.330127e+000  1.250000e+001  1.400000e+001
      vertex  7.500000e+000  1.433013e+001  1.400000e+001
    endloop
  endfacet
  facet normal  0.000000e+000  0.000000e+000  9.999999e-001
    outer loop
      vertex  7.000000e+000  1.250000e+001  1.400000e+001
      vertex  7.500000e+000  1.433013e+001  1.400000e+001
      vertex  5.939340e+000  1.206066e+001  1.400000e+001
    endloop
  endfacet
  facet normal  0.000000e+000  -0.000000e+000  1.000000e+000
    outer loop
      vertex  5.939340e+000  1.206066e+001  1.400000e+001
      vertex  7.500000e+000  1.433013e+001  1.400000e+001
      vertex  5.000000e+000  1.500000e+001  1.400000e+001
    endloop
  endfacet
  facet normal  0.000000e+000  0.000000e+000  1.000000e+000
    outer loop
      vertex  5.939340e+000  1.206066e+001  1.400000e+001
      vertex  5.000000e+000  1.500000e+001  1.400000e+001
      vertex  5.500000e+000  1.100000e+001  1.400000e+001
    endloop
  endfacet
  facet normal  1.000000e+000  0.000000e+000  0.000000e+000
    outer loop
      vertex  1.000000e+001  0.000000e+000  1.400000e+001
      vertex  1.000000e+001  0.000000e+000  0.000000e+000
      vertex  1.000000e+001  1.000000e+001  1.400000e+001
    endloop
  endfacet
  facet normal  1.000000e+000  0.000000e+000  0.000000e+000
    outer loop
      vertex  1.000000e+001  1.000000e+001  1.400000e+001
      vertex  1.000000e+001  0.000000e+000  0.000000e+000
      vertex  1.000000e+001  1.000000e+001  0.000000e+000
    endloop
  endfacet
  facet normal  2.588192e-001  9.659259e-001  0.000000e+000
    outer loop
      vertex  5.000000e+000  1.500000e+001  0.000000e+000
      vertex  5.000000e+000  1.500000e+001  1.400000e+001
      vertex  7.500000e+000  1.433013e+001  0.000000e+000
    endloop
  endfacet
  facet normal  2.588192e-001  9.659259e-001  -0.000000e+000
    outer loop
      vertex  7.500000e+000  1.433013e+001  0.000000e+000
      vertex  5.000000e+000  1.500000e+001  1.400000e+001
      vertex  7.500000e+000  1.433013e+001  1.400000e+001
    endloop
  endfacet
  facet normal  7.071068e-001  7.071068e-001  0.000000e+000
    outer loop
      vertex  7.500000e+000  1.433013e+001  0.000000e+000
      vertex  7.500000e+000  1.433013e+001  1.400000e+001
      vertex  9.330127e+000  1.250000e+001  0.000000e+000
    endloop
  endfacet
  facet normal  7.071068e-001  7.071068e-001  -0.000000e+000
    outer loop
      vertex  9.330127e+000  1.250000e+001  0.000000e+000
      vertex  7.500000e+000  1.433013e+001  1.400000e+001
      vertex  9.330127e+000  1.250000e+001  1.400000e+001
    endloop
  endfacet
  facet normal  9.659259e-001  2.588192e-001  0.000000e+000
    outer loop
      vertex  9.330127e+000  1.250000e+001  0.000000e+000
      vertex  9.330127e+000  1.250000e+001  1.400000e+001
      vertex  1.000000e+001  1.000000e+001  0.000000e+000
    endloop
  endfacet
  facet normal  9.659259e-001  2.588192e-001  -0.000000e+000
    outer loop
      vertex  1.000000e+001  1.000000e+001  0.000000e+000
      vertex  9.330127e+000  1.250000e+001  1.400000e+001
      vertex  1.000000e+001  1.000000e+001  1.400000e+001
    endloop
  endfacet
  facet normal  0.000000e+000  0.000000e+000  1.000000e+000
    outer loop
      vertex  6.646447e+000  1.135355e+001  9.000000e+000
      vertex  7.353553e+000  1.135355e+001  9.000000e+000
      vertex  7.000000e+000  1.150000e+001  9.000000e+000
    endloop
  endfacet
  facet normal  -0.000000e+000  0.000000e+000  1.000000e+000
    outer loop
      vertex  7.353553e+000  1.135355e+001  9.000000e+000
      vertex  6.646447e+000  1.135355e+001  9.000000e+000
      vertex  7.500000e+000  1.100000e+001  9.000000e+000
    endloop
  endfacet
  facet normal  0.000000e+000  0.000000e+000  9.999999e-001
    outer loop
      vertex  7.500000e+000  1.100000e+001  9.000000e+000
      vertex  6.646447e+000  1.135355e+001  9.000000e+000
      vertex  6.500000e+000  1.100000e+001  9.000000e+000
    endloop
  endfacet
  facet normal  -0.000000e+000  0.000000e+000  9.999999e-001
    outer loop
      vertex  7.500000e+000  1.100000e+001  9.000000e+000
      vertex  6.500000e+000  1.100000e+001  9.000000e+000
      vertex  7.353553e+000  1.064645e+001  9.000000e+000
    endloop
  endfacet
  facet normal  0.000000e+000  0.000000e+000  1.000000e+000
    outer loop
      vertex  7.353553e+000  1.064645e+001  9.000000e+000
      vertex  6.500000e+000  1.100000e+001  9.000000e+000
      vertex  6.646447e+000  1.064645e+001  9.000000e+000
    endloop
  endfacet
  facet normal  -0.000000e+000  0.000000e+000  1.000000e+000
    outer loop
      vertex  7.353553e+000  1.064645e+001  9.000000e+000
      vertex  6.646447e+000  1.064645e+001  9.000000e+000
      vertex  7.000000e+000  1.050000e+001  9.000000e+000
    endloop
  endfacet
  facet normal -3.826832e-001  9.238796e-001  0.000000e+000
    outer loop
      vertex  7.000000e+000  9.500000e+000  1.000000e+001
      vertex  8.060660e+000  9.939340e+000  1.400000e+001
      vertex  8.060660e+000  9.939340e+000  1.000000e+001
    endloop
  endfacet
  facet normal -9.238796e-001  3.826832e-001  0.000000e+000
    outer loop
      vertex  8.060660e+000  9.939340e+000  1.000000e+001
      vertex  8.060660e+000  9.939340e+000  1.400000e+001
      vertex  8.500000e+000  1.100000e+001  1.400000e+001
    endloop
  endfacet
  facet normal -9.238796e-001  3.826832e-001  0.000000e+000
    outer loop
      vertex  8.060660e+000  9.939340e+000  1.000000e+001
      vertex  8.500000e+000  1.100000e+001  1.400000e+001
      vertex  8.500000e+000  1.100000e+001  1.000000e+001
    endloop
  endfacet
  facet normal -3.826832e-001  9.238796e-001  0.000000e+000
    outer loop
      vertex  8.060660e+000  9.939340e+000  1.400000e+001
      vertex  7.000000e+000  9.500000e+000  1.000000e+001
      vertex  7.000000e+000  9.500000e+000  1.400000e+001
    endloop
  endfacet
  facet normal  3.826832e-001  9.238796e-001  0.000000e+000
    outer loop
      vertex  7.000000e+000  9.500000e+000  1.400000e+001
      vertex  7.000000e+000  9.500000e+000  1.000000e+001
      vertex  5.939340e+000  9.939340e+000  1.000000e+001
    endloop
  endfacet
  facet normal  3.826832e-001  9.238796e-001  -0.000000e+000
    outer loop
      vertex  7.000000e+000  9.500000e+000  1.400000e+001
      vertex  5.939340e+000  9.939340e+000  1.000000e+001
      vertex  5.939340e+000  9.939340e+000  1.400000e+001
    endloop
  endfacet
  facet normal  9.238796e-001  3.826832e-001  0.000000e+000
    outer loop
      vertex  5.939340e+000  9.939340e+000  1.400000e+001
      vertex  5.939340e+000  9.939340e+000  1.000000e+001
      vertex  5.500000e+000  1.100000e+001  1.000000e+001
    endloop
  endfacet
  facet normal  9.238796e-001  3.826832e-001  -0.000000e+000
    outer loop
      vertex  5.939340e+000  9.939340e+000  1.400000e+001
      vertex  5.500000e+000  1.100000e+001  1.000000e+001
      vertex  5.500000e+000  1.100000e+001  1.400000e+001
    endloop
  endfacet
  facet normal  3.826832e-001 -9.238796e-001  0.000000e+000
    outer loop
      vertex  7.000000e+000  1.250000e+001  1.000000e+001
      vertex  5.939340e+000  1.206066e+001  1.400000e+001
      vertex  5.939340e+000  1.206066e+001  1.000000e+001
    endloop
  endfacet
  facet normal  9.238796e-001 -3.826832e-001  0.000000e+000
    outer loop
      vertex  5.939340e+000  1.206066e+001  1.000000e+001
      vertex  5.939340e+000  1.206066e+001  1.400000e+001
      vertex  5.500000e+000  1.100000e+001  1.400000e+001
    endloop
  endfacet
  facet normal  9.238796e-001 -3.826832e-001  0.000000e+000
    outer loop
      vertex  5.939340e+000  1.206066e+001  1.000000e+001
      vertex  5.500000e+000  1.100000e+001  1.400000e+001
      vertex  5.500000e+000  1.100000e+001  1.000000e+001
    endloop
  endfacet
  facet normal  3.826832e-001 -9.238796e-001  0.000000e+000
    outer loop
      vertex  5.939340e+000  1.206066e+001  1.400000e+001
      vertex  7.000000e+000  1.250000e+001  1.000000e+001
      vertex  7.000000e+000  1.250000e+001  1.400000e+001
    endloop
  endfacet
  facet normal -3.826832e-001 -9.238796e-001  -0.000000e+000
    outer loop
      vertex  7.000000e+000  1.250000e+001  1.400000e+001
      vertex  7.000000e+000  1.250000e+001  1.000000e+001
      vertex  8.060660e+000  1.206066e+001  1.000000e+001
    endloop
  endfacet
  facet normal -3.826832e-001 -9.238796e-001  0.000000e+000
    outer loop
      vertex  7.000000e+000  1.250000e+001  1.400000e+001
      vertex  8.060660e+000  1.206066e+001  1.000000e+001
      vertex  8.060660e+000  1.206066e+001  1.400000e+001
    endloop
  endfacet
  facet normal -9.238796e-001 -3.826832e-001  -0.000000e+000
    outer loop
      vertex  8.060660e+000  1.206066e+001  1.400000e+001
      vertex  8.060660e+000  1.206066e+001  1.000000e+001
      vertex  8.500000e+000  1.100000e+001  1.000000e+001
    endloop
  endfacet
  facet normal -9.238796e-001 -3.826832e-001  0.000000e+000
    outer loop
      vertex  8.060660e+000  1.206066e+001  1.400000e+001
      vertex  8.500000e+000  1.100000e+001  1.000000e+001
      vertex  8.500000e+000  1.100000e+001  1.400000e+001
    endloop
  endfacet
  facet normal -8.628562e-001  3.574065e-001  3.574071e-001
    outer loop
      vertex  8.500000e+000  1.100000e+001  1.000000e+001
      vertex  8.207107e+000  1.100000e+001  9.292893e+000
      vertex  8.060660e+000  9.939340e+000  1.000000e+001
    endloop
  endfacet
  facet normal -8.628561e-001  3.574065e-001  3.574070e-001
    outer loop
      vertex  8.060660e+000  9.939340e+000  1.000000e+001
      vertex  8.207107e+000  1.100000e+001  9.292893e+000
      vertex  7.853553e+000  1.014645e+001  9.292893e+000
    endloop
  endfacet
  facet normal -3.779648e-001  1.565580e-001  9.124869e-001
    outer loop
      vertex  8.207107e+000  1.100000e+001  9.292893e+000
      vertex  7.500000e+000  1.100000e+001  9.000000e+000
      vertex  7.853553e+000  1.014645e+001  9.292893e+000
    endloop
  endfacet
  facet normal -3.779647e-001  1.565581e-001  9.124869e-001
    outer loop
      vertex  7.853553e+000  1.014645e+001  9.292893e+000
      vertex  7.500000e+000  1.100000e+001  9.000000e+000
      vertex  7.353553e+000  1.064645e+001  9.000000e+000
    endloop
  endfacet
  facet normal  8.628562e-001  3.574065e-001  3.574070e-001
    outer loop
      vertex  5.939340e+000  9.939340e+000  1.000000e+001
      vertex  6.146447e+000  1.014645e+001  9.292893e+000
      vertex  5.500000e+000  1.100000e+001  1.000000e+001
    endloop
  endfacet
  facet normal  8.628561e-001  3.574065e-001  3.574071e-001
    outer loop
      vertex  5.500000e+000  1.100000e+001  1.000000e+001
      vertex  6.146447e+000  1.014645e+001  9.292893e+000
      vertex  5.792893e+000  1.100000e+001  9.292893e+000
    endloop
  endfacet
  facet normal  3.779648e-001  1.565580e-001  9.124869e-001
    outer loop
      vertex  6.146447e+000  1.014645e+001  9.292893e+000
      vertex  6.646447e+000  1.064645e+001  9.000000e+000
      vertex  5.792893e+000  1.100000e+001  9.292893e+000
    endloop
  endfacet
  facet normal  3.779647e-001  1.565581e-001  9.124868e-001
    outer loop
      vertex  5.792893e+000  1.100000e+001  9.292893e+000
      vertex  6.646447e+000  1.064645e+001  9.000000e+000
      vertex  6.500000e+000  1.100000e+001  9.000000e+000
    endloop
  endfacet
  facet normal  3.574065e-001  8.628562e-001  3.574071e-001
    outer loop
      vertex  7.000000e+000  9.500000e+000  1.000000e+001
      vertex  7.000000e+000  9.792893e+000  9.292893e+000
      vertex  5.939340e+000  9.939340e+000  1.000000e+001
    endloop
  endfacet
  facet normal  3.574063e-001  8.628564e-001  3.574067e-001
    outer loop
      vertex  5.939340e+000  9.939340e+000  1.000000e+001
      vertex  7.000000e+000  9.792893e+000  9.292893e+000
      vertex  6.146447e+000  1.014645e+001  9.292893e+000
    endloop
  endfacet
  facet normal  1.565579e-001  3.779648e-001  9.124869e-001
    outer loop
      vertex  7.000000e+000  9.792893e+000  9.292893e+000
      vertex  7.000000e+000  1.050000e+001  9.000000e+000
      vertex  6.146447e+000  1.014645e+001  9.292893e+000
    endloop
  endfacet
  facet normal  1.565578e-001  3.779649e-001  9.124868e-001
    outer loop
      vertex  6.146447e+000  1.014645e+001  9.292893e+000
      vertex  7.000000e+000  1.050000e+001  9.000000e+000
      vertex  6.646447e+000  1.064645e+001  9.000000e+000
    endloop
  endfacet
  facet normal -3.574066e-001  8.628563e-001  3.574067e-001
    outer loop
      vertex  8.060660e+000  9.939340e+000  1.000000e+001
      vertex  7.853553e+000  1.014645e+001  9.292893e+000
      vertex  7.000000e+000  9.500000e+000  1.000000e+001
    endloop
  endfacet
  facet normal -3.574062e-001  8.628563e-001  3.574071e-001
    outer loop
      vertex  7.000000e+000  9.500000e+000  1.000000e+001
      vertex  7.853553e+000  1.014645e+001  9.292893e+000
      vertex  7.000000e+000  9.792893e+000  9.292893e+000
    endloop
  endfacet
  facet normal -1.565579e-001  3.779649e-001  9.124868e-001
    outer loop
      vertex  7.853553e+000  1.014645e+001  9.292893e+000
      vertex  7.353553e+000  1.064645e+001  9.000000e+000
      vertex  7.000000e+000  9.792893e+000  9.292893e+000
    endloop
  endfacet
  facet normal -1.565578e-001  3.779648e-001  9.124869e-001
    outer loop
      vertex  7.000000e+000  9.792893e+000  9.292893e+000
      vertex  7.353553e+000  1.064645e+001  9.000000e+000
      vertex  7.000000e+000  1.050000e+001  9.000000e+000
    endloop
  endfacet
  facet normal  8.628562e-001 -3.574065e-001  3.574071e-001
    outer loop
      vertex  5.500000e+000  1.100000e+001  1.000000e+001
      vertex  5.792893e+000  1.100000e+001  9.292893e+000
      vertex  5.939340e+000  1.206066e+001  1.000000e+001
    endloop
  endfacet
  facet normal  8.628561e-001 -3.574065e-001  3.574070e-001
    outer loop
      vertex  5.939340e+000  1.206066e+001  1.000000e+001
      vertex  5.792893e+000  1.100000e+001  9.292893e+000
      vertex  6.146447e+000  1.185355e+001  9.292893e+000
    endloop
  endfacet
  facet normal  3.779648e-001 -1.565580e-001  9.124869e-001
    outer loop
      vertex  5.792893e+000  1.100000e+001  9.292893e+000
      vertex  6.500000e+000  1.100000e+001  9.000000e+000
      vertex  6.146447e+000  1.185355e+001  9.292893e+000
    endloop
  endfacet
  facet normal  3.779647e-001 -1.565581e-001  9.124869e-001
    outer loop
      vertex  6.146447e+000  1.185355e+001  9.292893e+000
      vertex  6.500000e+000  1.100000e+001  9.000000e+000
      vertex  6.646447e+000  1.135355e+001  9.000000e+000
    endloop
  endfacet
  facet normal -8.628562e-001 -3.574065e-001  3.574070e-001
    outer loop
      vertex  8.060660e+000  1.206066e+001  1.000000e+001
      vertex  7.853553e+000  1.185355e+001  9.292893e+000
      vertex  8.500000e+000  1.100000e+001  1.000000e+001
    endloop
  endfacet
  facet normal -8.628561e-001 -3.574065e-001  3.574071e-001
    outer loop
      vertex  8.500000e+000  1.100000e+001  1.000000e+001
      vertex  7.853553e+000  1.185355e+001  9.292893e+000
      vertex  8.207107e+000  1.100000e+001  9.292893e+000
    endloop
  endfacet
  facet normal -3.779648e-001 -1.565580e-001  9.124869e-001
    outer loop
      vertex  7.853553e+000  1.185355e+001  9.292893e+000
      vertex  7.353553e+000  1.135355e+001  9.000000e+000
      vertex  8.207107e+000  1.100000e+001  9.292893e+000
    endloop
  endfacet
  facet normal -3.779647e-001 -1.565581e-001  9.124868e-001
    outer loop
      vertex  8.207107e+000  1.100000e+001  9.292893e+000
      vertex  7.353553e+000  1.135355e+001  9.000000e+000
      vertex  7.500000e+000  1.100000e+001  9.000000e+000
    endloop
  endfacet
  facet normal -3.574065e-001 -8.628562e-001  3.574071e-001
    outer loop
      vertex  7.000000e+000  1.250000e+001  1.000000e+001
      vertex  7.000000e+000  1.220711e+001  9.292893e+000
      vertex  8.060660e+000  1.206066e+001  1.000000e+001
    endloop
  endfacet
  facet normal -3.574063e-001 -8.628564e-001  3.574067e-001
    outer loop
      vertex  8.060660e+000  1.206066e+001  1.000000e+001
      vertex  7.000000e+000  1.220711e+001  9.292893e+000
      vertex  7.853553e+000  1.185355e+001  9.292893e+000
    endloop
  endfacet
  facet normal -1.565579e-001 -3.779648e-001  9.124869e-001
    outer loop
      vertex  7.000000e+000  1.220711e+001  9.292893e+000
      vertex  7.000000e+000  1.150000e+001  9.000000e+000
      vertex  7.853553e+000  1.185355e+001  9.292893e+000
    endloop
  endfacet
  facet normal -1.565578e-001 -3.779649e-001  9.124868e-001
    outer loop
      vertex  7.853553e+000  1.185355e+001  9.292893e+000
      vertex  7.000000e+000  1.150000e+001  9.000000e+000
      vertex  7.353553e+000  1.135355e+001  9.000000e+000
    endloop
  endfacet
  facet normal  3.574066e-001 -8.628563e-001  3.574067e-001
    outer loop
      vertex  5.939340e+000  1.206066e+001  1.000000e+001
      vertex  6.146447e+000  1.185355e+001  9.292893e+000
      vertex  7.000000e+000  1.250000e+001  1.000000e+001
    endloop
  endfacet
  facet normal  3.574062e-001 -8.628563e-001  3.574071e-001
    outer loop
      vertex  7.000000e+000  1.250000e+001  1.000000e+001
      vertex  6.146447e+000  1.185355e+001  9.292893e+000
      vertex  7.000000e+000  1.220711e+001  9.292893e+000
    endloop
  endfacet
  facet normal  1.565579e-001 -3.779649e-001  9.124868e-001
    outer loop
      vertex  6.146447e+000  1.185355e+001  9.292893e+000
      vertex  6.646447e+000  1.135355e+001  9.000000e+000
      vertex  7.000000e+000  1.220711e+001  9.292893e+000
    endloop
  endfacet
  facet normal  1.565578e-001 -3.779648e-001  9.124869e-001
    outer loop
      vertex  7.000000e+000  1.220711e+001  9.292893e+000
      vertex  6.646447e+000  1.135355e+001  9.000000e+000
      vertex  7.000000e+000  1.150000e+001  9.000000e+000
    endloop
  endfacet
  facet normal  9.999999e-001  0.000000e+000  0.000000e+000
    outer loop
      vertex  4.000000e+000  1.500000e+001  1.400000e+001
      vertex  4.000000e+000  1.500000e+001  1.600000e+001
      vertex  4.000000e+000  5.123476e+000  1.400000e+001
    endloop
  endfacet
  facet normal  1.000000e+000  0.000000e+000  -0.000000e+000
    outer loop
      vertex  4.000000e+000  5.123476e+000  1.400000e+001
      vertex  4.000000e+000  1.500000e+001  1.600000e+001
      vertex  4.000000e+000  0.000000e+000  1.600000e+001
    endloop
  endfacet
  facet normal  1.000000e+000  0.000000e+000  0.000000e+000
    outer loop
      vertex  4.000000e+000  5.123476e+000  1.400000e+001
      vertex  4.000000e+000  0.000000e+000  1.600000e+001
      vertex  4.000000e+000  0.000000e+000  1.400000e+001
    endloop
  endfacet
  facet normal  9.749280e-001 -2.225210e-001  0.000000e+000
    outer loop
      vertex -5.856297e+000  2.820244e+000  0.000000e+000
      vertex -5.856297e+000  2.820244e+000  6.050000e+000
      vertex -6.500000e+000  0.000000e+000  0.000000e+000
    endloop
  endfacet
  facet normal  2.963201e-001 -9.550664e-001 -6.529009e-003
    outer loop
      vertex -1.446386e+000  6.337031e+000  0.000000e+000
      vertex -1.224433e+000  6.383632e+000  3.256568e+000
      vertex -2.671519e+000  5.925621e+000  4.578441e+000
    endloop
  endfacet
  facet normal -7.818315e-001 -6.234898e-001  0.000000e+000
    outer loop
      vertex  4.052684e+000  5.081904e+000  0.000000e+000
      vertex  5.856297e+000  2.820244e+000  0.000000e+000
      vertex  5.856297e+000  2.820244e+000  6.050000e+000
    endloop
  endfacet
  facet normal -7.818315e-001 -6.234898e-001  0.000000e+000
    outer loop
      vertex  4.052684e+000  5.081904e+000  0.000000e+000
      vertex  5.856297e+000  2.820244e+000  6.050000e+000
      vertex  4.052684e+000  5.081904e+000  6.050000e+000
    endloop
  endfacet
  facet normal -5.487005e-001 -8.360190e-001  -0.000000e+000
    outer loop
      vertex  4.052684e+000  5.081904e+000  0.000000e+000
      vertex  4.052684e+000  5.081904e+000  6.050000e+000
      vertex  3.050000e+000  5.739991e+000  6.050000e+000
    endloop
  endfacet
  facet normal -4.948235e-001 -8.689036e-001  1.250618e-002
    outer loop
      vertex  4.052684e+000  5.081904e+000  0.000000e+000
      vertex  3.050000e+000  5.739991e+000  6.050000e+000
      vertex  2.782875e+000  5.874147e+000  4.801759e+000
    endloop
  endfacet
  facet normal -4.392655e-001 -8.977885e-001  3.196402e-002
    outer loop
      vertex  4.052684e+000  5.081904e+000  0.000000e+000
      vertex  2.782875e+000  5.874147e+000  4.801759e+000
      vertex  2.364836e+000  6.054548e+000  4.123851e+000
    endloop
  endfacet
  facet normal -3.348549e-001 -9.384914e-001  8.429828e-002
    outer loop
      vertex  4.052684e+000  5.081904e+000  0.000000e+000
      vertex  2.364836e+000  6.054548e+000  4.123851e+000
      vertex  1.223722e+000  6.383769e+000  3.256256e+000
    endloop
  endfacet
  facet normal -4.338230e-001 -9.008426e-001 -1.673512e-002
    outer loop
      vertex  4.052684e+000  5.081904e+000  0.000000e+000
      vertex  1.223722e+000  6.383769e+000  3.256256e+000
      vertex  1.446386e+000  6.337031e+000  0.000000e+000
    endloop
  endfacet
  facet normal  4.385289e-001 -8.987168e-001 -7.411338e-004
    outer loop
      vertex -1.485614e+000  6.327950e+000  1.400000e+001
      vertex -4.073637e+000  5.065125e+000  1.400000e+001
      vertex -4.052684e+000  5.081904e+000  6.050000e+000
    endloop
  endfacet
  facet normal  5.481172e-001 -8.351305e-001 -4.609364e-002
    outer loop
      vertex -1.485614e+000  6.327950e+000  1.400000e+001
      vertex -4.052684e+000  5.081904e+000  6.050000e+000
      vertex -3.050000e+000  5.739991e+000  6.050000e+000
    endloop
  endfacet
  facet normal  8.807161e-001 -4.525314e-001 -1.398377e-001
    outer loop
      vertex -1.485614e+000  6.327950e+000  1.400000e+001
      vertex -3.050000e+000  5.739991e+000  6.050000e+000
      vertex -2.782875e+000  5.874147e+000  7.298241e+000
    endloop
  endfacet
  facet normal  4.244747e-001 -9.051992e-001 -2.087104e-002
    outer loop
      vertex -1.485614e+000  6.327950e+000  1.400000e+001
      vertex -2.782875e+000  5.874147e+000  7.298241e+000
      vertex -2.364836e+000  6.054548e+000  7.976149e+000
    endloop
  endfacet
  facet normal  2.747118e-001 -9.615200e-001  3.544085e-003
    outer loop
      vertex -1.485614e+000  6.327950e+000  1.400000e+001
      vertex -2.364836e+000  6.054548e+000  7.976149e+000
      vertex -1.223722e+000  6.383769e+000  8.843743e+000
    endloop
  endfacet
  facet normal  7.226796e-003 -9.999192e-001 -1.045747e-002
    outer loop
      vertex  1.393996e+000  6.348762e+000  1.400000e+001
      vertex -1.485614e+000  6.327950e+000  1.400000e+001
      vertex -1.223722e+000  6.383769e+000  8.843743e+000
    endloop
  endfacet
  facet normal  1.180016e-001 -9.907753e-001 -6.663333e-002
    outer loop
      vertex  1.393996e+000  6.348762e+000  1.400000e+001
      vertex -1.223722e+000  6.383769e+000  8.843743e+000
      vertex -1.124451e-001  6.499027e+000  9.097926e+000
    endloop
  endfacet
  facet normal -8.673041e-002 -9.962242e-001 -3.884812e-003
    outer loop
      vertex  1.393996e+000  6.348762e+000  1.400000e+001
      vertex -1.124451e-001  6.499027e+000  9.097926e+000
      vertex  1.224433e+000  6.383632e+000  8.843432e+000
    endloop
  endfacet
  facet normal -2.989453e-001 -9.542642e-001  3.377143e-003
    outer loop
      vertex  1.393996e+000  6.348762e+000  1.400000e+001
      vertex  1.224433e+000  6.383632e+000  8.843432e+000
      vertex  2.671519e+000  5.925621e+000  7.521559e+000
    endloop
  endfacet
  facet normal -7.087801e-001 -6.991245e-001 -9.410521e-002
    outer loop
      vertex  1.393996e+000  6.348762e+000  1.400000e+001
      vertex  2.671519e+000  5.925621e+000  7.521559e+000
      vertex  3.050000e+000  5.739991e+000  6.050000e+000
    endloop
  endfacet
  facet normal -5.480083e-001 -8.349645e-001 -5.021410e-002
    outer loop
      vertex  1.393996e+000  6.348762e+000  1.400000e+001
      vertex  3.050000e+000  5.739991e+000  6.050000e+000
      vertex  4.052684e+000  5.081904e+000  6.050000e+000
    endloop
  endfacet
  facet normal -4.254924e-001 -9.049600e-001  1.912408e-003
    outer loop
      vertex  1.393996e+000  6.348762e+000  1.400000e+001
      vertex  4.052684e+000  5.081904e+000  6.050000e+000
      vertex  4.000000e+000  5.123476e+000  1.400000e+001
    endloop
  endfacet
  facet normal  7.837587e-001 -6.210650e-001  7.547741e-004
    outer loop
      vertex -4.073637e+000  5.065125e+000  1.400000e+001
      vertex -5.862109e+000  2.808146e+000  1.400000e+001
      vertex -4.052684e+000  5.081904e+000  6.050000e+000
    endloop
  endfacet
  facet normal  7.818314e-001 -6.234897e-001 -3.773686e-004
    outer loop
      vertex -4.052684e+000  5.081904e+000  6.050000e+000
      vertex -5.862109e+000  2.808146e+000  1.400000e+001
      vertex -5.856297e+000  2.820244e+000  6.050000e+000
    endloop
  endfacet
  facet normal  9.751571e-001 -2.215142e-001  3.756972e-004
    outer loop
      vertex -5.862109e+000  2.808146e+000  1.400000e+001
      vertex -6.500000e+000  7.959941e-016  1.400000e+001
      vertex -5.856297e+000  2.820244e+000  6.050000e+000
    endloop
  endfacet
  facet normal  9.749279e-001 -2.225210e-001  0.000000e+000
    outer loop
      vertex -5.856297e+000  2.820244e+000  6.050000e+000
      vertex -6.500000e+000  7.959941e-016  1.400000e+001
      vertex -6.500000e+000  0.000000e+000  0.000000e+000
    endloop
  endfacet
  facet normal -9.743499e-001 -2.250366e-001 -9.392118e-004
    outer loop
      vertex  5.841660e+000  2.850439e+000  1.400000e+001
      vertex  5.856297e+000  2.820244e+000  6.050000e+000
      vertex  6.500000e+000  0.000000e+000  1.400000e+001
    endloop
  endfacet
  facet normal -9.749280e-001 -2.225210e-001  0.000000e+000
    outer loop
      vertex  6.500000e+000  0.000000e+000  1.400000e+001
      vertex  5.856297e+000  2.820244e+000  6.050000e+000
      vertex  5.856297e+000  2.820244e+000  0.000000e+000
    endloop
  endfacet
  facet normal -9.749279e-001 -2.225210e-001  0.000000e+000
    outer loop
      vertex  6.500000e+000  0.000000e+000  1.400000e+001
      vertex  5.856297e+000  2.820244e+000  0.000000e+000
      vertex  6.500000e+000  0.000000e+000  0.000000e+000
    endloop
  endfacet
  facet normal  9.252822e-001  2.649420e-001  2.714010e-001
    outer loop
      vertex -2.671519e+000  5.925621e+000  4.578441e+000
      vertex -3.050000e+000  5.739991e+000  6.050000e+000
      vertex -1.446386e+000  6.337031e+000  0.000000e+000
    endloop
  endfacet
  facet normal  5.476170e-001 -8.343682e-001  6.281236e-002
    outer loop
      vertex -1.446386e+000  6.337031e+000  0.000000e+000
      vertex -3.050000e+000  5.739991e+000  6.050000e+000
      vertex -4.052684e+000  5.081904e+000  6.050000e+000
    endloop
  endfacet
  facet normal  4.338838e-001 -9.009689e-001  0.000000e+000
    outer loop
      vertex -1.446386e+000  6.337031e+000  0.000000e+000
      vertex -4.052684e+000  5.081904e+000  6.050000e+000
      vertex -4.052684e+000  5.081904e+000  0.000000e+000
    endloop
  endfacet
  facet normal  7.818315e-001 -6.234898e-001  0.000000e+000
    outer loop
      vertex -4.052684e+000  5.081904e+000  0.000000e+000
      vertex -4.052684e+000  5.081904e+000  6.050000e+000
      vertex -5.856297e+000  2.820244e+000  6.050000e+000
    endloop
  endfacet
  facet normal  7.818315e-001 -6.234898e-001  0.000000e+000
    outer loop
      vertex -4.052684e+000  5.081904e+000  0.000000e+000
      vertex -5.856297e+000  2.820244e+000  6.050000e+000
      vertex -5.856297e+000  2.820244e+000  0.000000e+000
    endloop
  endfacet
  facet normal -1.047700e-001 -9.944711e-001  7.109479e-003
    outer loop
      vertex  1.223722e+000  6.383769e+000  3.256256e+000
      vertex  1.124451e-001  6.499027e+000  3.002074e+000
      vertex  1.446386e+000  6.337031e+000  0.000000e+000
    endloop
  endfacet
  facet normal  1.044080e-001 -9.895157e-001  9.978822e-002
    outer loop
      vertex  1.446386e+000  6.337031e+000  0.000000e+000
      vertex  1.124451e-001  6.499027e+000  3.002074e+000
      vertex -1.224433e+000  6.383632e+000  3.256568e+000
    endloop
  endfacet
  facet normal  0.000000e+000 -9.998977e-001  1.430833e-002
    outer loop
      vertex  1.446386e+000  6.337031e+000  0.000000e+000
      vertex -1.224433e+000  6.383632e+000  3.256568e+000
      vertex -1.446386e+000  6.337031e+000  0.000000e+000
    endloop
  endfacet
  facet normal -7.769797e-001 -6.295248e-001  9.604277e-004
    outer loop
      vertex  5.841660e+000  2.850439e+000  1.400000e+001
      vertex  4.000000e+000  5.123476e+000  1.400000e+001
      vertex  5.856297e+000  2.820244e+000  6.050000e+000
    endloop
  endfacet
  facet normal -7.818301e-001 -6.234886e-001 -1.920839e-003
    outer loop
      vertex  5.856297e+000  2.820244e+000  6.050000e+000
      vertex  4.000000e+000  5.123476e+000  1.400000e+001
      vertex  4.052684e+000  5.081904e+000  6.050000e+000
    endloop
  endfacet
  facet normal  0.000000e+000 -1.000000e+000  5.685672e-017
    outer loop
      vertex -6.500000e+000  0.000000e+000  0.000000e+000
      vertex -6.500000e+000  7.959941e-016  1.400000e+001
      vertex -1.000000e+001  0.000000e+000  0.000000e+000
    endloop
  endfacet
  facet normal  2.274269e-016 -1.000000e+000  0.000000e+000
    outer loop
      vertex -1.000000e+001  0.000000e+000  0.000000e+000
      vertex -6.500000e+000  7.959941e-016  1.400000e+001
      vertex -1.000000e+001  0.000000e+000  1.400000e+001
    endloop
  endfacet
  facet normal  3.826832e-001 -9.238796e-001  0.000000e+000
    outer loop
      vertex -7.000000e+000 -9.500000e+000  1.400000e+001
      vertex -8.060660e+000 -9.939340e+000  1.600000e+001
      vertex -8.060660e+000 -9.939340e+000  1.400000e+001
    endloop
  endfacet
  facet normal  9.238796e-001 -3.826832e-001  0.000000e+000
    outer loop
      vertex -8.060660e+000 -9.939340e+000  1.400000e+001
      vertex -8.060660e+000 -9.939340e+000  1.600000e+001
      vertex -8.500000e+000 -1.100000e+001  1.600000e+001
    endloop
  endfacet
  facet normal  9.238796e-001 -3.826832e-001  0.000000e+000
    outer loop
      vertex -8.060660e+000 -9.939340e+000  1.400000e+001
      vertex -8.500000e+000 -1.100000e+001  1.600000e+001
      vertex -8.500000e+000 -1.100000e+001  1.400000e+001
    endloop
  endfacet
  facet normal  3.826832e-001 -9.238796e-001  0.000000e+000
    outer loop
      vertex -8.060660e+000 -9.939340e+000  1.600000e+001
      vertex -7.000000e+000 -9.500000e+000  1.400000e+001
      vertex -7.000000e+000 -9.500000e+000  1.600000e+001
    endloop
  endfacet
  facet normal -3.826832e-001 -9.238796e-001  -0.000000e+000
    outer loop
      vertex -7.000000e+000 -9.500000e+000  1.600000e+001
      vertex -7.000000e+000 -9.500000e+000  1.400000e+001
      vertex -5.939340e+000 -9.939340e+000  1.400000e+001
    endloop
  endfacet
  facet normal -3.826832e-001 -9.238796e-001  0.000000e+000
    outer loop
      vertex -7.000000e+000 -9.500000e+000  1.600000e+001
      vertex -5.939340e+000 -9.939340e+000  1.400000e+001
      vertex -5.939340e+000 -9.939340e+000  1.600000e+001
    endloop
  endfacet
  facet normal -9.238796e-001 -3.826832e-001  -0.000000e+000
    outer loop
      vertex -5.939340e+000 -9.939340e+000  1.600000e+001
      vertex -5.939340e+000 -9.939340e+000  1.400000e+001
      vertex -5.500000e+000 -1.100000e+001  1.400000e+001
    endloop
  endfacet
  facet normal -9.238796e-001 -3.826832e-001  0.000000e+000
    outer loop
      vertex -5.939340e+000 -9.939340e+000  1.600000e+001
      vertex -5.500000e+000 -1.100000e+001  1.400000e+001
      vertex -5.500000e+000 -1.100000e+001  1.600000e+001
    endloop
  endfacet
  facet normal -3.826832e-001  9.238796e-001  0.000000e+000
    outer loop
      vertex -7.000000e+000 -1.250000e+001  1.400000e+001
      vertex -5.939340e+000 -1.206066e+001  1.600000e+001
      vertex -5.939340e+000 -1.206066e+001  1.400000e+001
    endloop
  endfacet
  facet normal -9.238796e-001  3.826832e-001  0.000000e+000
    outer loop
      vertex -5.939340e+000 -1.206066e+001  1.400000e+001
      vertex -5.939340e+000 -1.206066e+001  1.600000e+001
      vertex -5.500000e+000 -1.100000e+001  1.600000e+001
    endloop
  endfacet
  facet normal -9.238796e-001  3.826832e-001  0.000000e+000
    outer loop
      vertex -5.939340e+000 -1.206066e+001  1.400000e+001
      vertex -5.500000e+000 -1.100000e+001  1.600000e+001
      vertex -5.500000e+000 -1.100000e+001  1.400000e+001
    endloop
  endfacet
  facet normal -3.826832e-001  9.238796e-001  0.000000e+000
    outer loop
      vertex -5.939340e+000 -1.206066e+001  1.600000e+001
      vertex -7.000000e+000 -1.250000e+001  1.400000e+001
      vertex -7.000000e+000 -1.250000e+001  1.600000e+001
    endloop
  endfacet
  facet normal  3.826832e-001  9.238796e-001  0.000000e+000
    outer loop
      vertex -7.000000e+000 -1.250000e+001  1.600000e+001
      vertex -7.000000e+000 -1.250000e+001  1.400000e+001
      vertex -8.060660e+000 -1.206066e+001  1.400000e+001
    endloop
  endfacet
  facet normal  3.826832e-001  9.238796e-001  -0.000000e+000
    outer loop
      vertex -7.000000e+000 -1.250000e+001  1.600000e+001
      vertex -8.060660e+000 -1.206066e+001  1.400000e+001
      vertex -8.060660e+000 -1.206066e+001  1.600000e+001
    endloop
  endfacet
  facet normal  9.238796e-001  3.826832e-001  0.000000e+000
    outer loop
      vertex -8.060660e+000 -1.206066e+001  1.600000e+001
      vertex -8.060660e+000 -1.206066e+001  1.400000e+001
      vertex -8.500000e+000 -1.100000e+001  1.400000e+001
    endloop
  endfacet
  facet normal  9.238796e-001  3.826832e-001  -0.000000e+000
    outer loop
      vertex -8.060660e+000 -1.206066e+001  1.600000e+001
      vertex -8.500000e+000 -1.100000e+001  1.400000e+001
      vertex -8.500000e+000 -1.100000e+001  1.600000e+001
    endloop
  endfacet
  facet normal  0.000000e+000 -1.000000e+000  -0.000000e+000
    outer loop
      vertex  4.000000e+000  0.000000e+000  1.400000e+001
      vertex  4.000000e+000  0.000000e+000  1.600000e+001
      vertex -4.000000e+000  0.000000e+000  1.400000e+001
    endloop
  endfacet
  facet normal  0.000000e+000 -1.000000e+000  0.000000e+000
    outer loop
      vertex -4.000000e+000  0.000000e+000  1.400000e+001
      vertex  4.000000e+000  0.000000e+000  1.600000e+001
      vertex -4.000000e+000  0.000000e+000  1.600000e+001
    endloop
  endfacet
  facet normal  1.000000e+000  0.000000e+000  0.000000e+000
    outer loop
      vertex -4.000000e+000 -1.500000e+001  1.600000e+001
      vertex -4.000000e+000 -1.500000e+001  1.400000e+001
      vertex -4.000000e+000  0.000000e+000  1.600000e+001
    endloop
  endfacet
  facet normal  1.000000e+000  0.000000e+000  0.000000e+000
    outer loop
      vertex -4.000000e+000  0.000000e+000  1.600000e+001
      vertex -4.000000e+000 -1.500000e+001  1.400000e+001
      vertex -4.000000e+000  0.000000e+000  1.400000e+001
    endloop
  endfacet
  facet normal -5.877607e-001 -9.158421e-003 -8.089830e-001
    outer loop
      vertex  1.224433e+000  6.383632e+000  8.843432e+000
      vertex  9.425018e-001  1.500000e+001  8.950723e+000
      vertex  2.467502e+000  1.500000e+001  7.842745e+000
    endloop
  endfacet
  facet normal -1.864916e-001  6.131134e-003 -9.824375e-001
    outer loop
      vertex  9.425018e-001  1.500000e+001  8.950723e+000
      vertex  1.224433e+000  6.383632e+000  8.843432e+000
      vertex -1.124451e-001  6.499027e+000  9.097926e+000
    endloop
  endfacet
  facet normal  0.000000e+000 -1.731348e-002 -9.998502e-001
    outer loop
      vertex -1.124451e-001  6.499027e+000  9.097926e+000
      vertex -9.425018e-001  1.500000e+001  8.950723e+000
      vertex  9.425018e-001  1.500000e+001  8.950723e+000
    endloop
  endfacet
  facet normal  2.224921e-001  4.842870e-003 -9.749225e-001
    outer loop
      vertex -1.223722e+000  6.383769e+000  8.843743e+000
      vertex -9.425018e-001  1.500000e+001  8.950723e+000
      vertex -1.124451e-001  6.499027e+000  9.097926e+000
    endloop
  endfacet
  facet normal -6.724880e-001  1.107363e-002 -7.400253e-001
    outer loop
      vertex  1.224433e+000  6.383632e+000  8.843432e+000
      vertex  2.467502e+000  1.500000e+001  7.842745e+000
      vertex  2.671519e+000  5.925621e+000  7.521559e+000
    endloop
  endfacet
  facet normal -9.510046e-001 -1.044423e-002 -3.090002e-001
    outer loop
      vertex  2.671519e+000  5.925621e+000  7.521559e+000
      vertex  2.467502e+000  1.500000e+001  7.842745e+000
      vertex  3.050000e+000  1.500000e+001  6.050000e+000
    endloop
  endfacet
  facet normal -9.684802e-001  -0.000000e+000 -2.490904e-001
    outer loop
      vertex  2.671519e+000  5.925621e+000  7.521559e+000
      vertex  3.050000e+000  1.500000e+001  6.050000e+000
      vertex  3.050000e+000  5.739991e+000  6.050000e+000
    endloop
  endfacet
  facet normal  9.778594e-001  0.000000e+000 -2.092628e-001
    outer loop
      vertex -3.050000e+000  5.739991e+000  6.050000e+000
      vertex -3.050000e+000  1.500000e+001  6.050000e+000
      vertex -2.782875e+000  5.874147e+000  7.298241e+000
    endloop
  endfacet
  facet normal  9.509575e-001 -1.442750e-002 -3.089849e-001
    outer loop
      vertex -2.782875e+000  5.874147e+000  7.298241e+000
      vertex -3.050000e+000  1.500000e+001  6.050000e+000
      vertex -2.467502e+000  1.500000e+001  7.842745e+000
    endloop
  endfacet
  facet normal  8.509419e-001  1.932952e-003 -5.252564e-001
    outer loop
      vertex -2.782875e+000  5.874147e+000  7.298241e+000
      vertex -2.467502e+000  1.500000e+001  7.842745e+000
      vertex -2.364836e+000  6.054548e+000  7.976149e+000
    endloop
  endfacet
  facet normal  5.877771e-001 -5.318904e-003 -8.090054e-001
    outer loop
      vertex -2.364836e+000  6.054548e+000  7.976149e+000
      vertex -2.467502e+000  1.500000e+001  7.842745e+000
      vertex -9.425018e-001  1.500000e+001  8.950723e+000
    endloop
  endfacet
  facet normal  6.070240e-001 -9.946276e-003 -7.946212e-001
    outer loop
      vertex -2.364836e+000  6.054548e+000  7.976149e+000
      vertex -9.425018e-001  1.500000e+001  8.950723e+000
      vertex -1.223722e+000  6.383769e+000  8.843743e+000
    endloop
  endfacet
  facet normal  5.877606e-001 -9.158415e-003  8.089831e-001
    outer loop
      vertex -1.224433e+000  6.383632e+000  3.256568e+000
      vertex -9.425018e-001  1.500000e+001  3.149278e+000
      vertex -2.467502e+000  1.500000e+001  4.257255e+000
    endloop
  endfacet
  facet normal  1.864921e-001  6.131115e-003  9.824373e-001
    outer loop
      vertex -9.425018e-001  1.500000e+001  3.149278e+000
      vertex -1.224433e+000  6.383632e+000  3.256568e+000
      vertex  1.124451e-001  6.499027e+000  3.002074e+000
    endloop
  endfacet
  facet normal  0.000000e+000 -1.731356e-002  9.998502e-001
    outer loop
      vertex  1.124451e-001  6.499027e+000  3.002074e+000
      vertex  9.425018e-001  1.500000e+001  3.149278e+000
      vertex -9.425018e-001  1.500000e+001  3.149278e+000
    endloop
  endfacet
  facet normal -2.224921e-001  4.842788e-003  9.749225e-001
    outer loop
      vertex  1.223722e+000  6.383769e+000  3.256256e+000
      vertex  9.425018e-001  1.500000e+001  3.149278e+000
      vertex  1.124451e-001  6.499027e+000  3.002074e+000
    endloop
  endfacet
  facet normal  6.724878e-001  1.107364e-002  7.400253e-001
    outer loop
      vertex -1.224433e+000  6.383632e+000  3.256568e+000
      vertex -2.467502e+000  1.500000e+001  4.257255e+000
      vertex -2.671519e+000  5.925621e+000  4.578441e+000
    endloop
  endfacet
  facet normal  9.510046e-001 -1.044423e-002  3.090000e-001
    outer loop
      vertex -2.671519e+000  5.925621e+000  4.578441e+000
      vertex -2.467502e+000  1.500000e+001  4.257255e+000
      vertex -3.050000e+000  1.500000e+001  6.050000e+000
    endloop
  endfacet
  facet normal  9.684803e-001  0.000000e+000  2.490904e-001
    outer loop
      vertex -2.671519e+000  5.925621e+000  4.578441e+000
      vertex -3.050000e+000  1.500000e+001  6.050000e+000
      vertex -3.050000e+000  5.739991e+000  6.050000e+000
    endloop
  endfacet
  facet normal -9.778594e-001  0.000000e+000  2.092628e-001
    outer loop
      vertex  3.050000e+000  5.739991e+000  6.050000e+000
      vertex  3.050000e+000  1.500000e+001  6.050000e+000
      vertex  2.782875e+000  5.874147e+000  4.801759e+000
    endloop
  endfacet
  facet normal -9.509575e-001 -1.442750e-002  3.089848e-001
    outer loop
      vertex  2.782875e+000  5.874147e+000  4.801759e+000
      vertex  3.050000e+000  1.500000e+001  6.050000e+000
      vertex  2.467502e+000  1.500000e+001  4.257255e+000
    endloop
  endfacet
  facet normal -8.509419e-001  1.932952e-003  5.252564e-001
    outer loop
      vertex  2.782875e+000  5.874147e+000  4.801759e+000
      vertex  2.467502e+000  1.500000e+001  4.257255e+000
      vertex  2.364836e+000  6.054548e+000  4.123851e+000
    endloop
  endfacet
  facet normal -5.877769e-001 -5.318908e-003  8.090056e-001
    outer loop
      vertex  2.364836e+000  6.054548e+000  4.123851e+000
      vertex  2.467502e+000  1.500000e+001  4.257255e+000
      vertex  9.425018e-001  1.500000e+001  3.149278e+000
    endloop
  endfacet
  facet normal -6.070241e-001 -9.946347e-003  7.946212e-001
    outer loop
      vertex  2.364836e+000  6.054548e+000  4.123851e+000
      vertex  9.425018e-001  1.500000e+001  3.149278e+000
      vertex  1.223722e+000  6.383769e+000  3.256256e+000
    endloop
  endfacet
  facet normal  0.000000e+000 -1.000000e+000  0.000000e+000
    outer loop
      vertex  1.000000e+001  0.000000e+000  1.400000e+001
      vertex  6.500000e+000  0.000000e+000  1.400000e+001
      vertex  1.000000e+001  0.000000e+000  0.000000e+000
    endloop
  endfacet
  facet normal  0.000000e+000 -1.000000e+000  0.000000e+000
    outer loop
      vertex  1.000000e+001  0.000000e+000  0.000000e+000
      vertex  6.500000e+000  0.000000e+000  1.400000e+001
      vertex  6.500000e+000  0.000000e+000  0.000000e+000
    endloop
  endfacet
endsolid CATIA STL
