solid CATIA STL
  facet normal  0.000000e+000  0.000000e+000  1.000000e+000
    outer loop
      vertex  4.000000e+000  1.776357e-015  1.600000e+001
      vertex  7.000000e+000  9.500000e+000  1.600000e+001
      vertex  5.939340e+000  9.939340e+000  1.600000e+001
    endloop
  endfacet
  facet normal  0.000000e+000  0.000000e+000  1.000000e+000
    outer loop
      vertex  4.000000e+000  1.776357e-015  1.600000e+001
      vertex  5.939340e+000  9.939340e+000  1.600000e+001
      vertex  5.500000e+000  1.100000e+001  1.600000e+001
    endloop
  endfacet
  facet normal  0.000000e+000  0.000000e+000  1.000000e+000
    outer loop
      vertex  4.000000e+000  1.776357e-015  1.600000e+001
      vertex  5.500000e+000  1.100000e+001  1.600000e+001
      vertex  5.000000e+000  1.500000e+001  1.600000e+001
    endloop
  endfacet
  facet normal  0.000000e+000  0.000000e+000  1.000000e+000
    outer loop
      vertex  4.000000e+000  1.776357e-015  1.600000e+001
      vertex  5.000000e+000  1.500000e+001  1.600000e+001
      vertex  4.000000e+000  1.500000e+001  1.600000e+001
    endloop
  endfacet
  facet normal  0.000000e+000  0.000000e+000  1.000000e+000
    outer loop
      vertex  9.330127e+000 -1.250000e+001  1.600000e+001
      vertex  1.000000e+001 -1.000000e+001  1.600000e+001
      vertex  7.500000e+000 -1.433013e+001  1.600000e+001
    endloop
  endfacet
  facet normal  0.000000e+000  -0.000000e+000  1.000000e+000
    outer loop
      vertex  7.500000e+000 -1.433013e+001  1.600000e+001
      vertex  1.000000e+001 -1.000000e+001  1.600000e+001
      vertex  7.000000e+000  9.500000e+000  1.600000e+001
    endloop
  endfacet
  facet normal  0.000000e+000  0.000000e+000  1.000000e+000
    outer loop
      vertex  7.500000e+000 -1.433013e+001  1.600000e+001
      vertex  7.000000e+000  9.500000e+000  1.600000e+001
      vertex  5.000000e+000 -1.500000e+001  1.600000e+001
    endloop
  endfacet
  facet normal  0.000000e+000  -0.000000e+000  9.999999e-001
    outer loop
      vertex  5.000000e+000 -1.500000e+001  1.600000e+001
      vertex  7.000000e+000  9.500000e+000  1.600000e+001
      vertex  4.000000e+000  1.776357e-015  1.600000e+001
    endloop
  endfacet
  facet normal  0.000000e+000  0.000000e+000  1.000000e+000
    outer loop
      vertex  5.000000e+000 -1.500000e+001  1.600000e+001
      vertex  4.000000e+000  1.776357e-015  1.600000e+001
      vertex -4.000000e+000 -1.500000e+001  1.600000e+001
    endloop
  endfacet
  facet normal  0.000000e+000  0.000000e+000  1.000000e+000
    outer loop
      vertex -4.000000e+000 -1.500000e+001  1.600000e+001
      vertex  4.000000e+000  1.776357e-015  1.600000e+001
      vertex -4.000000e+000  1.776357e-015  1.600000e+001
    endloop
  endfacet
  facet normal  0.000000e+000  0.000000e+000  1.000000e+000
    outer loop
      vertex  8.060660e+000  1.206066e+001  1.600000e+001
      vertex  9.330127e+000  1.250000e+001  1.600000e+001
      vertex  7.000000e+000  1.250000e+001  1.600000e+001
    endloop
  endfacet
  facet normal  0.000000e+000  0.000000e+000  1.000000e+000
    outer loop
      vertex  7.000000e+000  1.250000e+001  1.600000e+001
      vertex  9.330127e+000  1.250000e+001  1.600000e+001
      vertex  7.500000e+000  1.433013e+001  1.600000e+001
    endloop
  endfacet
  facet normal  0.000000e+000  0.000000e+000  9.999999e-001
    outer loop
      vertex  7.000000e+000  1.250000e+001  1.600000e+001
      vertex  7.500000e+000  1.433013e+001  1.600000e+001
      vertex  5.939340e+000  1.206066e+001  1.600000e+001
    endloop
  endfacet
  facet normal  0.000000e+000  -0.000000e+000  1.000000e+000
    outer loop
      vertex  5.939340e+000  1.206066e+001  1.600000e+001
      vertex  7.500000e+000  1.433013e+001  1.600000e+001
      vertex  5.000000e+000  1.500000e+001  1.600000e+001
    endloop
  endfacet
  facet normal  0.000000e+000  0.000000e+000  1.000000e+000
    outer loop
      vertex  5.939340e+000  1.206066e+001  1.600000e+001
      vertex  5.000000e+000  1.500000e+001  1.600000e+001
      vertex  5.500000e+000  1.100000e+001  1.600000e+001
    endloop
  endfacet
  facet normal  -0.000000e+000  0.000000e+000  1.000000e+000
    outer loop
      vertex  9.330127e+000  1.250000e+001  1.600000e+001
      vertex  8.060660e+000  1.206066e+001  1.600000e+001
      vertex  1.000000e+001  1.000000e+001  1.600000e+001
    endloop
  endfacet
  facet normal  0.000000e+000  0.000000e+000  1.000000e+000
    outer loop
      vertex  1.000000e+001  1.000000e+001  1.600000e+001
      vertex  8.060660e+000  1.206066e+001  1.600000e+001
      vertex  8.500000e+000  1.100000e+001  1.600000e+001
    endloop
  endfacet
  facet normal  0.000000e+000  0.000000e+000  1.000000e+000
    outer loop
      vertex  1.000000e+001  1.000000e+001  1.600000e+001
      vertex  8.500000e+000  1.100000e+001  1.600000e+001
      vertex  8.060660e+000  9.939340e+000  1.600000e+001
    endloop
  endfacet
  facet normal  0.000000e+000  0.000000e+000  9.999999e-001
    outer loop
      vertex  8.060660e+000  9.939340e+000  1.600000e+001
      vertex  7.000000e+000  9.500000e+000  1.600000e+001
      vertex  1.000000e+001  1.000000e+001  1.600000e+001
    endloop
  endfacet
  facet normal  0.000000e+000  0.000000e+000  1.000000e+000
    outer loop
      vertex  1.000000e+001  1.000000e+001  1.600000e+001
      vertex  7.000000e+000  9.500000e+000  1.600000e+001
      vertex  1.000000e+001 -1.000000e+001  1.600000e+001
    endloop
  endfacet
  facet normal  1.000000e+000  -0.000000e+000  0.000000e+000
    outer loop
      vertex  1.000000e+001  1.000000e+001  1.600000e+001
      vertex  1.000000e+001 -1.000000e+001  1.600000e+001
      vertex  1.000000e+001  1.000000e+001  1.400000e+001
    endloop
  endfacet
  facet normal  1.000000e+000  0.000000e+000  0.000000e+000
    outer loop
      vertex  1.000000e+001  1.000000e+001  1.400000e+001
      vertex  1.000000e+001 -1.000000e+001  1.600000e+001
      vertex  1.000000e+001 -4.702091e-003  1.400000e+001
    endloop
  endfacet
  facet normal  1.000000e+000  0.000000e+000  0.000000e+000
    outer loop
      vertex  1.000000e+001 -1.000000e+001  1.600000e+001
      vertex  1.000000e+001 -1.000000e+001  0.000000e+000
      vertex  1.000000e+001 -4.702091e-003  1.400000e+001
    endloop
  endfacet
  facet normal  1.000000e+000  0.000000e+000  0.000000e+000
    outer loop
      vertex  1.000000e+001 -4.702091e-003  1.400000e+001
      vertex  1.000000e+001 -1.000000e+001  0.000000e+000
      vertex  1.000000e+001 -4.702091e-003  0.000000e+000
    endloop
  endfacet
  facet normal  0.000000e+000  0.000000e+000 -1.000000e+000
    outer loop
      vertex  1.000000e+001  1.000000e+001  1.400000e+001
      vertex  1.000000e+001 -4.702091e-003  1.400000e+001
      vertex  7.000000e+000  9.500000e+000  1.400000e+001
    endloop
  endfacet
  facet normal  0.000000e+000  0.000000e+000 -9.999999e-001
    outer loop
      vertex  1.000000e+001  1.000000e+001  1.400000e+001
      vertex  7.000000e+000  9.500000e+000  1.400000e+001
      vertex  8.060660e+000  9.939340e+000  1.400000e+001
    endloop
  endfacet
  facet normal  0.000000e+000  0.000000e+000 -1.000000e+000
    outer loop
      vertex  1.000000e+001  1.000000e+001  1.400000e+001
      vertex  8.060660e+000  9.939340e+000  1.400000e+001
      vertex  8.500000e+000  1.100000e+001  1.400000e+001
    endloop
  endfacet
  facet normal  0.000000e+000  0.000000e+000 -1.000000e+000
    outer loop
      vertex  1.000000e+001  1.000000e+001  1.400000e+001
      vertex  8.500000e+000  1.100000e+001  1.400000e+001
      vertex  8.060660e+000  1.206066e+001  1.400000e+001
    endloop
  endfacet
  facet normal  0.000000e+000  0.000000e+000 -1.000000e+000
    outer loop
      vertex  1.000000e+001  1.000000e+001  1.400000e+001
      vertex  8.060660e+000  1.206066e+001  1.400000e+001
      vertex  9.330127e+000  1.250000e+001  1.400000e+001
    endloop
  endfacet
  facet normal  0.000000e+000  0.000000e+000 -1.000000e+000
    outer loop
      vertex  4.000000e+000  1.776357e-015  1.400000e+001
      vertex  4.000000e+000  1.500000e+001  1.400000e+001
      vertex  5.000000e+000  1.500000e+001  1.400000e+001
    endloop
  endfacet
  facet normal  0.000000e+000  -0.000000e+000 -1.000000e+000
    outer loop
      vertex  4.000000e+000  1.776357e-015  1.400000e+001
      vertex  5.000000e+000  1.500000e+001  1.400000e+001
      vertex  5.500000e+000  1.100000e+001  1.400000e+001
    endloop
  endfacet
  facet normal  0.000000e+000  -0.000000e+000 -1.000000e+000
    outer loop
      vertex  4.000000e+000  1.776357e-015  1.400000e+001
      vertex  5.500000e+000  1.100000e+001  1.400000e+001
      vertex  5.939340e+000  9.939340e+000  1.400000e+001
    endloop
  endfacet
  facet normal  0.000000e+000  -0.000000e+000 -9.999999e-001
    outer loop
      vertex  4.000000e+000  1.776357e-015  1.400000e+001
      vertex  5.939340e+000  9.939340e+000  1.400000e+001
      vertex  6.500000e+000 -4.702091e-003  1.400000e+001
    endloop
  endfacet
  facet normal  0.000000e+000  0.000000e+000 -1.000000e+000
    outer loop
      vertex  4.000000e+000  1.776357e-015  1.400000e+001
      vertex  6.500000e+000 -4.702091e-003  1.400000e+001
      vertex -4.000000e+000  1.776357e-015  1.400000e+001
    endloop
  endfacet
  facet normal  0.000000e+000  0.000000e+000 -1.000000e+000
    outer loop
      vertex  7.000000e+000  9.500000e+000  1.400000e+001
      vertex  1.000000e+001 -4.702091e-003  1.400000e+001
      vertex  5.939340e+000  9.939340e+000  1.400000e+001
    endloop
  endfacet
  facet normal  0.000000e+000  0.000000e+000 -1.000000e+000
    outer loop
      vertex  5.939340e+000  9.939340e+000  1.400000e+001
      vertex  1.000000e+001 -4.702091e-003  1.400000e+001
      vertex  6.500000e+000 -4.702091e-003  1.400000e+001
    endloop
  endfacet
  facet normal  0.000000e+000  0.000000e+000 -1.000000e+000
    outer loop
      vertex  5.500000e+000  1.100000e+001  1.400000e+001
      vertex  5.000000e+000  1.500000e+001  1.400000e+001
      vertex  5.939340e+000  1.206066e+001  1.400000e+001
    endloop
  endfacet
  facet normal  0.000000e+000  0.000000e+000 -1.000000e+000
    outer loop
      vertex  5.939340e+000  1.206066e+001  1.400000e+001
      vertex  5.000000e+000  1.500000e+001  1.400000e+001
      vertex  7.500000e+000  1.433013e+001  1.400000e+001
    endloop
  endfacet
  facet normal  0.000000e+000  0.000000e+000 -9.999999e-001
    outer loop
      vertex  5.939340e+000  1.206066e+001  1.400000e+001
      vertex  7.500000e+000  1.433013e+001  1.400000e+001
      vertex  7.000000e+000  1.250000e+001  1.400000e+001
    endloop
  endfacet
  facet normal  0.000000e+000  0.000000e+000 -1.000000e+000
    outer loop
      vertex  7.000000e+000  1.250000e+001  1.400000e+001
      vertex  7.500000e+000  1.433013e+001  1.400000e+001
      vertex  9.330127e+000  1.250000e+001  1.400000e+001
    endloop
  endfacet
  facet normal  -0.000000e+000  0.000000e+000 -1.000000e+000
    outer loop
      vertex  7.000000e+000  1.250000e+001  1.400000e+001
      vertex  9.330127e+000  1.250000e+001  1.400000e+001
      vertex  8.060660e+000  1.206066e+001  1.400000e+001
    endloop
  endfacet
  facet normal  0.000000e+000  0.000000e+000 -1.000000e+000
    outer loop
      vertex  4.071439e+000 -5.066893e+000  1.400000e+001
      vertex -4.000000e+000 -5.123477e+000  1.400000e+001
      vertex  5.860484e+000 -2.811538e+000  1.400000e+001
    endloop
  endfacet
  facet normal  -0.000000e+000  0.000000e+000 -1.000000e+000
    outer loop
      vertex  5.860484e+000 -2.811538e+000  1.400000e+001
      vertex -4.000000e+000 -5.123477e+000  1.400000e+001
      vertex -4.000000e+000  1.776357e-015  1.400000e+001
    endloop
  endfacet
  facet normal  0.000000e+000  0.000000e+000 -9.999999e-001
    outer loop
      vertex  5.860484e+000 -2.811538e+000  1.400000e+001
      vertex -4.000000e+000  1.776357e-015  1.400000e+001
      vertex  6.500000e+000 -4.702091e-003  1.400000e+001
    endloop
  endfacet
  facet normal  0.000000e+000  0.000000e+000 -1.000000e+000
    outer loop
      vertex -4.000000e+000 -5.123477e+000  1.400000e+001
      vertex  4.071439e+000 -5.066893e+000  1.400000e+001
      vertex -1.394913e+000 -6.348562e+000  1.400000e+001
    endloop
  endfacet
  facet normal  0.000000e+000  0.000000e+000 -1.000000e+000
    outer loop
      vertex -1.394913e+000 -6.348562e+000  1.400000e+001
      vertex  4.071439e+000 -5.066893e+000  1.400000e+001
      vertex  1.483785e+000 -6.328381e+000  1.400000e+001
    endloop
  endfacet
  facet normal  0.000000e+000  1.000000e+000  0.000000e+000
    outer loop
      vertex  4.000000e+000  1.500000e+001  1.600000e+001
      vertex  5.000000e+000  1.500000e+001  1.600000e+001
      vertex  4.000000e+000  1.500000e+001  1.400000e+001
    endloop
  endfacet
  facet normal  0.000000e+000  1.000000e+000  0.000000e+000
    outer loop
      vertex  4.000000e+000  1.500000e+001  1.400000e+001
      vertex  5.000000e+000  1.500000e+001  1.600000e+001
      vertex  5.000000e+000  1.500000e+001  1.400000e+001
    endloop
  endfacet
  facet normal  2.588191e-001  9.659258e-001  0.000000e+000
    outer loop
      vertex  5.000000e+000  1.500000e+001  1.400000e+001
      vertex  5.000000e+000  1.500000e+001  1.600000e+001
      vertex  7.500000e+000  1.433013e+001  1.400000e+001
    endloop
  endfacet
  facet normal  2.588191e-001  9.659258e-001  -0.000000e+000
    outer loop
      vertex  7.500000e+000  1.433013e+001  1.400000e+001
      vertex  5.000000e+000  1.500000e+001  1.600000e+001
      vertex  7.500000e+000  1.433013e+001  1.600000e+001
    endloop
  endfacet
  facet normal  7.071068e-001  7.071068e-001  0.000000e+000
    outer loop
      vertex  7.500000e+000  1.433013e+001  1.400000e+001
      vertex  7.500000e+000  1.433013e+001  1.600000e+001
      vertex  9.330127e+000  1.250000e+001  1.400000e+001
    endloop
  endfacet
  facet normal  7.071068e-001  7.071068e-001  -0.000000e+000
    outer loop
      vertex  9.330127e+000  1.250000e+001  1.400000e+001
      vertex  7.500000e+000  1.433013e+001  1.600000e+001
      vertex  9.330127e+000  1.250000e+001  1.600000e+001
    endloop
  endfacet
  facet normal  9.659258e-001  2.588191e-001  0.000000e+000
    outer loop
      vertex  9.330127e+000  1.250000e+001  1.400000e+001
      vertex  9.330127e+000  1.250000e+001  1.600000e+001
      vertex  1.000000e+001  1.000000e+001  1.400000e+001
    endloop
  endfacet
  facet normal  9.659258e-001  2.588191e-001  -0.000000e+000
    outer loop
      vertex  1.000000e+001  1.000000e+001  1.400000e+001
      vertex  9.330127e+000  1.250000e+001  1.600000e+001
      vertex  1.000000e+001  1.000000e+001  1.600000e+001
    endloop
  endfacet
  facet normal  0.000000e+000  0.000000e+000 -1.000000e+000
    outer loop
      vertex  1.000000e+001 -1.000000e+001  0.000000e+000
      vertex  9.330127e+000 -1.250000e+001  0.000000e+000
      vertex -9.330127e+000 -1.250000e+001  0.000000e+000
    endloop
  endfacet
  facet normal  0.000000e+000  0.000000e+000 -9.999999e-001
    outer loop
      vertex  1.000000e+001 -1.000000e+001  0.000000e+000
      vertex -9.330127e+000 -1.250000e+001  0.000000e+000
      vertex -1.000000e+001 -1.000000e+001  0.000000e+000
    endloop
  endfacet
  facet normal  0.000000e+000  0.000000e+000 -1.000000e+000
    outer loop
      vertex  1.000000e+001 -1.000000e+001  0.000000e+000
      vertex -1.000000e+001 -1.000000e+001  0.000000e+000
      vertex  1.443767e+000 -6.337630e+000  0.000000e+000
    endloop
  endfacet
  facet normal  0.000000e+000  0.000000e+000 -1.000000e+000
    outer loop
      vertex  1.000000e+001 -1.000000e+001  0.000000e+000
      vertex  1.443767e+000 -6.337630e+000  0.000000e+000
      vertex  4.050058e+000 -5.083999e+000  0.000000e+000
    endloop
  endfacet
  facet normal  0.000000e+000  0.000000e+000 -9.999999e-001
    outer loop
      vertex  1.000000e+001 -1.000000e+001  0.000000e+000
      vertex  4.050058e+000 -5.083999e+000  0.000000e+000
      vertex  5.854549e+000 -2.823876e+000  0.000000e+000
    endloop
  endfacet
  facet normal  0.000000e+000  0.000000e+000 -1.000000e+000
    outer loop
      vertex  1.000000e+001 -1.000000e+001  0.000000e+000
      vertex  5.854549e+000 -2.823876e+000  0.000000e+000
      vertex  6.500000e+000 -4.702091e-003  0.000000e+000
    endloop
  endfacet
  facet normal  0.000000e+000  0.000000e+000 -1.000000e+000
    outer loop
      vertex  1.000000e+001 -1.000000e+001  0.000000e+000
      vertex  6.500000e+000 -4.702091e-003  0.000000e+000
      vertex  1.000000e+001 -4.702091e-003  0.000000e+000
    endloop
  endfacet
  facet normal  0.000000e+000  0.000000e+000 -1.000000e+000
    outer loop
      vertex -1.000000e+001 -1.000000e+001  0.000000e+000
      vertex -1.000000e+001  1.332268e-015  0.000000e+000
      vertex -6.500002e+000  7.959943e-016  0.000000e+000
    endloop
  endfacet
  facet normal  0.000000e+000  -0.000000e+000 -1.000000e+000
    outer loop
      vertex -1.000000e+001 -1.000000e+001  0.000000e+000
      vertex -6.500002e+000  7.959943e-016  0.000000e+000
      vertex -5.856591e+000 -2.819640e+000  0.000000e+000
    endloop
  endfacet
  facet normal  0.000000e+000  -0.000000e+000 -1.000000e+000
    outer loop
      vertex -1.000000e+001 -1.000000e+001  0.000000e+000
      vertex -5.856591e+000 -2.819640e+000  0.000000e+000
      vertex -4.053735e+000 -5.081068e+000  0.000000e+000
    endloop
  endfacet
  facet normal  0.000000e+000  -0.000000e+000 -1.000000e+000
    outer loop
      vertex -1.000000e+001 -1.000000e+001  0.000000e+000
      vertex -4.053735e+000 -5.081068e+000  0.000000e+000
      vertex -1.448351e+000 -6.336585e+000  0.000000e+000
    endloop
  endfacet
  facet normal  0.000000e+000  -0.000000e+000 -9.999999e-001
    outer loop
      vertex -1.000000e+001 -1.000000e+001  0.000000e+000
      vertex -1.448351e+000 -6.336585e+000  0.000000e+000
      vertex  1.443767e+000 -6.337630e+000  0.000000e+000
    endloop
  endfacet
  facet normal  0.000000e+000  0.000000e+000 -1.000000e+000
    outer loop
      vertex  9.330127e+000 -1.250000e+001  0.000000e+000
      vertex  7.500000e+000 -1.433013e+001  0.000000e+000
      vertex -9.330127e+000 -1.250000e+001  0.000000e+000
    endloop
  endfacet
  facet normal  0.000000e+000  0.000000e+000 -1.000000e+000
    outer loop
      vertex -9.330127e+000 -1.250000e+001  0.000000e+000
      vertex  7.500000e+000 -1.433013e+001  0.000000e+000
      vertex -7.500000e+000 -1.433013e+001  0.000000e+000
    endloop
  endfacet
  facet normal  0.000000e+000  0.000000e+000 -1.000000e+000
    outer loop
      vertex  7.500000e+000 -1.433013e+001  0.000000e+000
      vertex  5.000000e+000 -1.500000e+001  0.000000e+000
      vertex -7.500000e+000 -1.433013e+001  0.000000e+000
    endloop
  endfacet
  facet normal  0.000000e+000  0.000000e+000 -1.000000e+000
    outer loop
      vertex -7.500000e+000 -1.433013e+001  0.000000e+000
      vertex  5.000000e+000 -1.500000e+001  0.000000e+000
      vertex -5.000000e+000 -1.500000e+001  0.000000e+000
    endloop
  endfacet
  facet normal  0.000000e+000 -1.000000e+000  -0.000000e+000
    outer loop
      vertex -9.425018e-001 -1.500000e+001  3.149278e+000
      vertex -2.467502e+000 -1.500000e+001  4.257255e+000
      vertex -5.000000e+000 -1.500000e+001  0.000000e+000
    endloop
  endfacet
  facet normal  0.000000e+000 -1.000000e+000  -0.000000e+000
    outer loop
      vertex -2.467502e+000 -1.500000e+001  4.257255e+000
      vertex -3.050000e+000 -1.500000e+001  6.050000e+000
      vertex -5.000000e+000 -1.500000e+001  0.000000e+000
    endloop
  endfacet
  facet normal  0.000000e+000 -1.000000e+000  -0.000000e+000
    outer loop
      vertex  5.000000e+000 -1.500000e+001  0.000000e+000
      vertex  3.050000e+000 -1.500000e+001  6.050000e+000
      vertex  2.467502e+000 -1.500000e+001  4.257255e+000
    endloop
  endfacet
  facet normal  0.000000e+000 -1.000000e+000  -0.000000e+000
    outer loop
      vertex  5.000000e+000 -1.500000e+001  0.000000e+000
      vertex  2.467502e+000 -1.500000e+001  4.257255e+000
      vertex  9.425018e-001 -1.500000e+001  3.149278e+000
    endloop
  endfacet
  facet normal  -0.000000e+000 -1.000000e+000  -0.000000e+000
    outer loop
      vertex  5.000000e+000 -1.500000e+001  0.000000e+000
      vertex  9.425018e-001 -1.500000e+001  3.149278e+000
      vertex -9.425018e-001 -1.500000e+001  3.149278e+000
    endloop
  endfacet
  facet normal  0.000000e+000 -1.000000e+000  -0.000000e+000
    outer loop
      vertex  5.000000e+000 -1.500000e+001  0.000000e+000
      vertex -9.425018e-001 -1.500000e+001  3.149278e+000
      vertex -5.000000e+000 -1.500000e+001  0.000000e+000
    endloop
  endfacet
  facet normal  0.000000e+000 -1.000000e+000  0.000000e+000
    outer loop
      vertex  5.000000e+000 -1.500000e+001  1.600000e+001
      vertex -4.000000e+000 -1.500000e+001  1.600000e+001
      vertex -4.000000e+000 -1.500000e+001  1.400000e+001
    endloop
  endfacet
  facet normal  0.000000e+000 -1.000000e+000  0.000000e+000
    outer loop
      vertex  5.000000e+000 -1.500000e+001  1.600000e+001
      vertex -4.000000e+000 -1.500000e+001  1.400000e+001
      vertex -9.425018e-001 -1.500000e+001  8.950723e+000
    endloop
  endfacet
  facet normal  0.000000e+000 -1.000000e+000  0.000000e+000
    outer loop
      vertex  5.000000e+000 -1.500000e+001  1.600000e+001
      vertex -9.425018e-001 -1.500000e+001  8.950723e+000
      vertex  9.425018e-001 -1.500000e+001  8.950723e+000
    endloop
  endfacet
  facet normal  0.000000e+000 -9.999999e-001  0.000000e+000
    outer loop
      vertex  5.000000e+000 -1.500000e+001  1.600000e+001
      vertex  9.425018e-001 -1.500000e+001  8.950723e+000
      vertex  2.467502e+000 -1.500000e+001  7.842745e+000
    endloop
  endfacet
  facet normal  0.000000e+000 -1.000000e+000  0.000000e+000
    outer loop
      vertex  5.000000e+000 -1.500000e+001  1.600000e+001
      vertex  2.467502e+000 -1.500000e+001  7.842745e+000
      vertex  3.050000e+000 -1.500000e+001  6.050000e+000
    endloop
  endfacet
  facet normal  0.000000e+000 -9.999999e-001  0.000000e+000
    outer loop
      vertex  5.000000e+000 -1.500000e+001  1.600000e+001
      vertex  3.050000e+000 -1.500000e+001  6.050000e+000
      vertex  5.000000e+000 -1.500000e+001  0.000000e+000
    endloop
  endfacet
  facet normal  0.000000e+000 -1.000000e+000  0.000000e+000
    outer loop
      vertex -5.000000e+000 -1.500000e+001  1.400000e+001
      vertex -5.000000e+000 -1.500000e+001  0.000000e+000
      vertex -3.050000e+000 -1.500000e+001  6.050000e+000
    endloop
  endfacet
  facet normal  0.000000e+000 -1.000000e+000  0.000000e+000
    outer loop
      vertex -5.000000e+000 -1.500000e+001  1.400000e+001
      vertex -3.050000e+000 -1.500000e+001  6.050000e+000
      vertex -2.467502e+000 -1.500000e+001  7.842745e+000
    endloop
  endfacet
  facet normal  0.000000e+000 -1.000000e+000  0.000000e+000
    outer loop
      vertex -5.000000e+000 -1.500000e+001  1.400000e+001
      vertex -2.467502e+000 -1.500000e+001  7.842745e+000
      vertex -9.425018e-001 -1.500000e+001  8.950723e+000
    endloop
  endfacet
  facet normal  0.000000e+000 -1.000000e+000  0.000000e+000
    outer loop
      vertex -5.000000e+000 -1.500000e+001  1.400000e+001
      vertex -9.425018e-001 -1.500000e+001  8.950723e+000
      vertex -4.000000e+000 -1.500000e+001  1.400000e+001
    endloop
  endfacet
  facet normal  9.659258e-001 -2.588191e-001  0.000000e+000
    outer loop
      vertex  1.000000e+001 -1.000000e+001  0.000000e+000
      vertex  1.000000e+001 -1.000000e+001  1.600000e+001
      vertex  9.330127e+000 -1.250000e+001  0.000000e+000
    endloop
  endfacet
  facet normal  9.659258e-001 -2.588191e-001  0.000000e+000
    outer loop
      vertex  9.330127e+000 -1.250000e+001  0.000000e+000
      vertex  1.000000e+001 -1.000000e+001  1.600000e+001
      vertex  9.330127e+000 -1.250000e+001  1.600000e+001
    endloop
  endfacet
  facet normal  7.071068e-001 -7.071068e-001  0.000000e+000
    outer loop
      vertex  9.330127e+000 -1.250000e+001  0.000000e+000
      vertex  9.330127e+000 -1.250000e+001  1.600000e+001
      vertex  7.500000e+000 -1.433013e+001  0.000000e+000
    endloop
  endfacet
  facet normal  7.071068e-001 -7.071068e-001  0.000000e+000
    outer loop
      vertex  7.500000e+000 -1.433013e+001  0.000000e+000
      vertex  9.330127e+000 -1.250000e+001  1.600000e+001
      vertex  7.500000e+000 -1.433013e+001  1.600000e+001
    endloop
  endfacet
  facet normal  2.588191e-001 -9.659258e-001  0.000000e+000
    outer loop
      vertex  7.500000e+000 -1.433013e+001  0.000000e+000
      vertex  7.500000e+000 -1.433013e+001  1.600000e+001
      vertex  5.000000e+000 -1.500000e+001  0.000000e+000
    endloop
  endfacet
  facet normal  2.588191e-001 -9.659258e-001  0.000000e+000
    outer loop
      vertex  5.000000e+000 -1.500000e+001  0.000000e+000
      vertex  7.500000e+000 -1.433013e+001  1.600000e+001
      vertex  5.000000e+000 -1.500000e+001  1.600000e+001
    endloop
  endfacet
  facet normal -1.000000e+000  -0.000000e+000  0.000000e+000
    outer loop
      vertex -1.000000e+001 -1.000000e+001  1.400000e+001
      vertex -1.000000e+001  1.332268e-015  1.400000e+001
      vertex -1.000000e+001 -1.000000e+001  0.000000e+000
    endloop
  endfacet
  facet normal -1.000000e+000  0.000000e+000  0.000000e+000
    outer loop
      vertex -1.000000e+001 -1.000000e+001  0.000000e+000
      vertex -1.000000e+001  1.332268e-015  1.400000e+001
      vertex -1.000000e+001  1.332268e-015  0.000000e+000
    endloop
  endfacet
  facet normal  0.000000e+000  0.000000e+000  1.000000e+000
    outer loop
      vertex -8.060660e+000 -1.206066e+001  1.400000e+001
      vertex -9.330127e+000 -1.250000e+001  1.400000e+001
      vertex -7.000000e+000 -1.250000e+001  1.400000e+001
    endloop
  endfacet
  facet normal  0.000000e+000  0.000000e+000  1.000000e+000
    outer loop
      vertex -7.500000e+000 -1.433013e+001  1.400000e+001
      vertex -7.000000e+000 -1.250000e+001  1.400000e+001
      vertex -9.330127e+000 -1.250000e+001  1.400000e+001
    endloop
  endfacet
  facet normal  0.000000e+000  0.000000e+000  1.000000e+000
    outer loop
      vertex -6.500002e+000  7.959943e-016  1.400000e+001
      vertex -7.000000e+000 -9.500000e+000  1.400000e+001
      vertex -5.841662e+000 -2.850440e+000  1.400000e+001
    endloop
  endfacet
  facet normal  0.000000e+000  0.000000e+000  1.000000e+000
    outer loop
      vertex -4.000000e+000 -5.123477e+000  1.400000e+001
      vertex -5.841662e+000 -2.850440e+000  1.400000e+001
      vertex -7.000000e+000 -9.500000e+000  1.400000e+001
    endloop
  endfacet
  facet normal  -0.000000e+000  0.000000e+000  1.000000e+000
    outer loop
      vertex -4.000000e+000 -5.123477e+000  1.400000e+001
      vertex -7.000000e+000 -9.500000e+000  1.400000e+001
      vertex -5.939340e+000 -9.939340e+000  1.400000e+001
    endloop
  endfacet
  facet normal  -0.000000e+000  0.000000e+000  1.000000e+000
    outer loop
      vertex -4.000000e+000 -5.123477e+000  1.400000e+001
      vertex -5.939340e+000 -9.939340e+000  1.400000e+001
      vertex -5.500000e+000 -1.100000e+001  1.400000e+001
    endloop
  endfacet
  facet normal  0.000000e+000  0.000000e+000  1.000000e+000
    outer loop
      vertex -4.000000e+000 -1.500000e+001  1.400000e+001
      vertex -4.000000e+000 -5.123477e+000  1.400000e+001
      vertex -5.500000e+000 -1.100000e+001  1.400000e+001
    endloop
  endfacet
  facet normal  0.000000e+000  0.000000e+000  1.000000e+000
    outer loop
      vertex -4.000000e+000 -1.500000e+001  1.400000e+001
      vertex -5.500000e+000 -1.100000e+001  1.400000e+001
      vertex -5.939340e+000 -1.206066e+001  1.400000e+001
    endloop
  endfacet
  facet normal  0.000000e+000  0.000000e+000  1.000000e+000
    outer loop
      vertex -4.000000e+000 -1.500000e+001  1.400000e+001
      vertex -5.939340e+000 -1.206066e+001  1.400000e+001
      vertex -7.000000e+000 -1.250000e+001  1.400000e+001
    endloop
  endfacet
  facet normal  0.000000e+000  0.000000e+000  1.000000e+000
    outer loop
      vertex -4.000000e+000 -1.500000e+001  1.400000e+001
      vertex -7.000000e+000 -1.250000e+001  1.400000e+001
      vertex -7.500000e+000 -1.433013e+001  1.400000e+001
    endloop
  endfacet
  facet normal  0.000000e+000  0.000000e+000  1.000000e+000
    outer loop
      vertex -4.000000e+000 -1.500000e+001  1.400000e+001
      vertex -7.500000e+000 -1.433013e+001  1.400000e+001
      vertex -5.000000e+000 -1.500000e+001  1.400000e+001
    endloop
  endfacet
  facet normal  0.000000e+000  0.000000e+000  1.000000e+000
    outer loop
      vertex -6.500002e+000  7.959943e-016  1.400000e+001
      vertex -1.000000e+001  1.332268e-015  1.400000e+001
      vertex -7.000000e+000 -9.500000e+000  1.400000e+001
    endloop
  endfacet
  facet normal  0.000000e+000  0.000000e+000  1.000000e+000
    outer loop
      vertex -7.000000e+000 -9.500000e+000  1.400000e+001
      vertex -1.000000e+001  1.332268e-015  1.400000e+001
      vertex -1.000000e+001 -1.000000e+001  1.400000e+001
    endloop
  endfacet
  facet normal  0.000000e+000  0.000000e+000  9.999999e-001
    outer loop
      vertex -7.000000e+000 -9.500000e+000  1.400000e+001
      vertex -1.000000e+001 -1.000000e+001  1.400000e+001
      vertex -8.060660e+000 -9.939340e+000  1.400000e+001
    endloop
  endfacet
  facet normal  -0.000000e+000  0.000000e+000  1.000000e+000
    outer loop
      vertex -8.060660e+000 -9.939340e+000  1.400000e+001
      vertex -1.000000e+001 -1.000000e+001  1.400000e+001
      vertex -8.500000e+000 -1.100000e+001  1.400000e+001
    endloop
  endfacet
  facet normal  0.000000e+000  0.000000e+000  1.000000e+000
    outer loop
      vertex -8.500000e+000 -1.100000e+001  1.400000e+001
      vertex -1.000000e+001 -1.000000e+001  1.400000e+001
      vertex -9.330127e+000 -1.250000e+001  1.400000e+001
    endloop
  endfacet
  facet normal  0.000000e+000  0.000000e+000  1.000000e+000
    outer loop
      vertex -8.500000e+000 -1.100000e+001  1.400000e+001
      vertex -9.330127e+000 -1.250000e+001  1.400000e+001
      vertex -8.060660e+000 -1.206066e+001  1.400000e+001
    endloop
  endfacet
  facet normal -2.588192e-001 -9.659259e-001  -0.000000e+000
    outer loop
      vertex -5.000000e+000 -1.500000e+001  0.000000e+000
      vertex -5.000000e+000 -1.500000e+001  1.400000e+001
      vertex -7.500000e+000 -1.433013e+001  0.000000e+000
    endloop
  endfacet
  facet normal -2.588192e-001 -9.659259e-001  0.000000e+000
    outer loop
      vertex -7.500000e+000 -1.433013e+001  0.000000e+000
      vertex -5.000000e+000 -1.500000e+001  1.400000e+001
      vertex -7.500000e+000 -1.433013e+001  1.400000e+001
    endloop
  endfacet
  facet normal -7.071068e-001 -7.071068e-001  -0.000000e+000
    outer loop
      vertex -7.500000e+000 -1.433013e+001  0.000000e+000
      vertex -7.500000e+000 -1.433013e+001  1.400000e+001
      vertex -9.330127e+000 -1.250000e+001  0.000000e+000
    endloop
  endfacet
  facet normal -7.071068e-001 -7.071068e-001  0.000000e+000
    outer loop
      vertex -9.330127e+000 -1.250000e+001  0.000000e+000
      vertex -7.500000e+000 -1.433013e+001  1.400000e+001
      vertex -9.330127e+000 -1.250000e+001  1.400000e+001
    endloop
  endfacet
  facet normal -9.659259e-001 -2.588192e-001  -0.000000e+000
    outer loop
      vertex -9.330127e+000 -1.250000e+001  0.000000e+000
      vertex -9.330127e+000 -1.250000e+001  1.400000e+001
      vertex -1.000000e+001 -1.000000e+001  0.000000e+000
    endloop
  endfacet
  facet normal -9.659259e-001 -2.588192e-001  0.000000e+000
    outer loop
      vertex -1.000000e+001 -1.000000e+001  0.000000e+000
      vertex -9.330127e+000 -1.250000e+001  1.400000e+001
      vertex -1.000000e+001 -1.000000e+001  1.400000e+001
    endloop
  endfacet
  facet normal -9.747782e-001  2.231759e-001  0.000000e+000
    outer loop
      vertex  5.854549e+000 -2.823876e+000  0.000000e+000
      vertex  5.854549e+000 -2.823876e+000  6.050000e+000
      vertex  6.500000e+000 -4.702091e-003  0.000000e+000
    endloop
  endfacet
  facet normal -2.963699e-001  9.550513e-001 -6.469318e-003
    outer loop
      vertex  1.443767e+000 -6.337630e+000  0.000000e+000
      vertex  1.224434e+000 -6.383634e+000  3.256568e+000
      vertex  2.671519e+000 -5.925623e+000  4.578441e+000
    endloop
  endfacet
  facet normal  7.819281e-001  6.233687e-001  -0.000000e+000
    outer loop
      vertex -4.053735e+000 -5.081068e+000  0.000000e+000
      vertex -5.856591e+000 -2.819640e+000  0.000000e+000
      vertex -5.856591e+000 -2.819640e+000  6.050000e+000
    endloop
  endfacet
  facet normal  7.819281e-001  6.233687e-001  0.000000e+000
    outer loop
      vertex -4.053735e+000 -5.081068e+000  0.000000e+000
      vertex -5.856591e+000 -2.819640e+000  6.050000e+000
      vertex -4.053735e+000 -5.081068e+000  6.050000e+000
    endloop
  endfacet
  facet normal  5.487867e-001  8.359625e-001  0.000000e+000
    outer loop
      vertex -4.053735e+000 -5.081068e+000  0.000000e+000
      vertex -4.053735e+000 -5.081068e+000  6.050000e+000
      vertex -3.050000e+000 -5.739993e+000  6.050000e+000
    endloop
  endfacet
  facet normal  4.948910e-001  8.688648e-001  1.252514e-002
    outer loop
      vertex -4.053735e+000 -5.081068e+000  0.000000e+000
      vertex -3.050000e+000 -5.739993e+000  6.050000e+000
      vertex -2.782875e+000 -5.874149e+000  4.801759e+000
    endloop
  endfacet
  facet normal  4.393209e-001  8.977599e-001  3.200512e-002
    outer loop
      vertex -4.053735e+000 -5.081068e+000  0.000000e+000
      vertex -2.782875e+000 -5.874149e+000  4.801759e+000
      vertex -2.364836e+000 -6.054550e+000  4.123851e+000
    endloop
  endfacet
  facet normal  3.349068e-001  9.384658e-001  8.437637e-002
    outer loop
      vertex -4.053735e+000 -5.081068e+000  0.000000e+000
      vertex -2.364836e+000 -6.054550e+000  4.123851e+000
      vertex -1.223722e+000 -6.383770e+000  3.256256e+000
    endloop
  endfacet
  facet normal  4.340546e-001  9.007282e-001 -1.689043e-002
    outer loop
      vertex -4.053735e+000 -5.081068e+000  0.000000e+000
      vertex -1.223722e+000 -6.383770e+000  3.256256e+000
      vertex -1.448351e+000 -6.336585e+000  0.000000e+000
    endloop
  endfacet
  facet normal -4.382039e-001  8.988753e-001 -7.555996e-004
    outer loop
      vertex  1.483785e+000 -6.328381e+000  1.400000e+001
      vertex  4.071439e+000 -5.066893e+000  1.400000e+001
      vertex  4.050058e+000 -5.083999e+000  6.050000e+000
    endloop
  endfacet
  facet normal -5.479007e-001  8.352710e-001 -4.612165e-002
    outer loop
      vertex  1.483785e+000 -6.328381e+000  1.400000e+001
      vertex  4.050058e+000 -5.083999e+000  6.050000e+000
      vertex  3.050000e+000 -5.739993e+000  6.050000e+000
    endloop
  endfacet
  facet normal -8.827614e-001  4.482475e-001 -1.407360e-001
    outer loop
      vertex  1.483785e+000 -6.328381e+000  1.400000e+001
      vertex  3.050000e+000 -5.739993e+000  6.050000e+000
      vertex  2.782875e+000 -5.874149e+000  7.298241e+000
    endloop
  endfacet
  facet normal -4.245874e-001  9.051445e-001 -2.095447e-002
    outer loop
      vertex  1.483785e+000 -6.328381e+000  1.400000e+001
      vertex  2.782875e+000 -5.874149e+000  7.298241e+000
      vertex  2.364836e+000 -6.054550e+000  7.976149e+000
    endloop
  endfacet
  facet normal -2.747236e-001  9.615168e-001  3.527260e-003
    outer loop
      vertex  1.483785e+000 -6.328381e+000  1.400000e+001
      vertex  2.364836e+000 -6.054550e+000  7.976149e+000
      vertex  1.223722e+000 -6.383770e+000  8.843743e+000
    endloop
  endfacet
  facet normal -7.009807e-003  9.999214e-001 -1.038778e-002
    outer loop
      vertex -1.394913e+000 -6.348562e+000  1.400000e+001
      vertex  1.483785e+000 -6.328381e+000  1.400000e+001
      vertex  1.223722e+000 -6.383770e+000  8.843743e+000
    endloop
  endfacet
  facet normal -1.180164e-001  9.907690e-001 -6.670062e-002
    outer loop
      vertex -1.394913e+000 -6.348562e+000  1.400000e+001
      vertex  1.223722e+000 -6.383770e+000  8.843743e+000
      vertex  1.124450e-001 -6.499029e+000  9.097926e+000
    endloop
  endfacet
  facet normal  8.673484e-002  9.962237e-001 -3.908288e-003
    outer loop
      vertex -1.394913e+000 -6.348562e+000  1.400000e+001
      vertex  1.124450e-001 -6.499029e+000  9.097926e+000
      vertex -1.224434e+000 -6.383634e+000  8.843432e+000
    endloop
  endfacet
  facet normal  2.989326e-001  9.542682e-001  3.392481e-003
    outer loop
      vertex -1.394913e+000 -6.348562e+000  1.400000e+001
      vertex -1.224434e+000 -6.383634e+000  8.843432e+000
      vertex -2.671519e+000 -5.925623e+000  7.521559e+000
    endloop
  endfacet
  facet normal  7.081513e-001  6.997944e-001 -9.385896e-002
    outer loop
      vertex -1.394913e+000 -6.348562e+000  1.400000e+001
      vertex -2.671519e+000 -5.925623e+000  7.521559e+000
      vertex -3.050000e+000 -5.739993e+000  6.050000e+000
    endloop
  endfacet
  facet normal  5.480949e-001  8.349087e-001 -5.019439e-002
    outer loop
      vertex -1.394913e+000 -6.348562e+000  1.400000e+001
      vertex -3.050000e+000 -5.739993e+000  6.050000e+000
      vertex -4.053735e+000 -5.081068e+000  6.050000e+000
    endloop
  endfacet
  facet normal  4.255576e-001  9.049292e-001  1.950953e-003
    outer loop
      vertex -1.394913e+000 -6.348562e+000  1.400000e+001
      vertex -4.053735e+000 -5.081068e+000  6.050000e+000
      vertex -4.000000e+000 -5.123477e+000  1.400000e+001
    endloop
  endfacet
  facet normal -7.834442e-001  6.214617e-001  7.698094e-004
    outer loop
      vertex  4.071439e+000 -5.066893e+000  1.400000e+001
      vertex  5.860484e+000 -2.811538e+000  1.400000e+001
      vertex  4.050058e+000 -5.083999e+000  6.050000e+000
    endloop
  endfacet
  facet normal -7.814769e-001  6.239341e-001 -3.849131e-004
    outer loop
      vertex  4.050058e+000 -5.083999e+000  6.050000e+000
      vertex  5.860484e+000 -2.811538e+000  1.400000e+001
      vertex  5.854549e+000 -2.823876e+000  6.050000e+000
    endloop
  endfacet
  facet normal -9.750127e-001  2.221491e-001  3.830965e-004
    outer loop
      vertex  5.860484e+000 -2.811538e+000  1.400000e+001
      vertex  6.500000e+000 -4.702091e-003  1.400000e+001
      vertex  5.854549e+000 -2.823876e+000  6.050000e+000
    endloop
  endfacet
  facet normal -9.747782e-001  2.231758e-001 -3.320075e-008
    outer loop
      vertex  5.854549e+000 -2.823876e+000  6.050000e+000
      vertex  6.500000e+000 -4.702091e-003  1.400000e+001
      vertex  6.500000e+000 -4.702091e-003  0.000000e+000
    endloop
  endfacet
  facet normal  9.743499e-001  2.250367e-001 -9.578356e-004
    outer loop
      vertex -5.841662e+000 -2.850440e+000  1.400000e+001
      vertex -5.856591e+000 -2.819640e+000  6.050000e+000
      vertex -6.500002e+000  7.959943e-016  1.400000e+001
    endloop
  endfacet
  facet normal  9.749394e-001  2.224706e-001  0.000000e+000
    outer loop
      vertex -6.500002e+000  7.959943e-016  1.400000e+001
      vertex -5.856591e+000 -2.819640e+000  6.050000e+000
      vertex -5.856591e+000 -2.819640e+000  0.000000e+000
    endloop
  endfacet
  facet normal  9.749394e-001  2.224706e-001  0.000000e+000
    outer loop
      vertex -6.500002e+000  7.959943e-016  1.400000e+001
      vertex -5.856591e+000 -2.819640e+000  0.000000e+000
      vertex -6.500002e+000  7.959943e-016  0.000000e+000
    endloop
  endfacet
  facet normal -9.208831e-001 -2.792008e-001  2.720684e-001
    outer loop
      vertex  2.671519e+000 -5.925623e+000  4.578441e+000
      vertex  3.050000e+000 -5.739993e+000  6.050000e+000
      vertex  1.443767e+000 -6.337630e+000  0.000000e+000
    endloop
  endfacet
  facet normal -5.473984e-001  8.345053e-001  6.289555e-002
    outer loop
      vertex  1.443767e+000 -6.337630e+000  0.000000e+000
      vertex  3.050000e+000 -5.739993e+000  6.050000e+000
      vertex  4.050058e+000 -5.083999e+000  6.050000e+000
    endloop
  endfacet
  facet normal -4.334647e-001  9.011706e-001  0.000000e+000
    outer loop
      vertex  1.443767e+000 -6.337630e+000  0.000000e+000
      vertex  4.050058e+000 -5.083999e+000  6.050000e+000
      vertex  4.050058e+000 -5.083999e+000  0.000000e+000
    endloop
  endfacet
  facet normal -7.814769e-001  6.239341e-001  0.000000e+000
    outer loop
      vertex  4.050058e+000 -5.083999e+000  0.000000e+000
      vertex  4.050058e+000 -5.083999e+000  6.050000e+000
      vertex  5.854549e+000 -2.823876e+000  6.050000e+000
    endloop
  endfacet
  facet normal -7.814769e-001  6.239341e-001  0.000000e+000
    outer loop
      vertex  4.050058e+000 -5.083999e+000  0.000000e+000
      vertex  5.854549e+000 -2.823876e+000  6.050000e+000
      vertex  5.854549e+000 -2.823876e+000  0.000000e+000
    endloop
  endfacet
  facet normal  1.047864e-001  9.944687e-001  7.182125e-003
    outer loop
      vertex -1.223722e+000 -6.383770e+000  3.256256e+000
      vertex -1.124450e-001 -6.499029e+000  3.002074e+000
      vertex -1.448351e+000 -6.336585e+000  0.000000e+000
    endloop
  endfacet
  facet normal -1.044500e-001  9.894877e-001  1.000216e-001
    outer loop
      vertex -1.448351e+000 -6.336585e+000  0.000000e+000
      vertex -1.124450e-001 -6.499029e+000  3.002074e+000
      vertex  1.224434e+000 -6.383634e+000  3.256568e+000
    endloop
  endfacet
  facet normal  3.615341e-004  9.998999e-001  1.414941e-002
    outer loop
      vertex -1.448351e+000 -6.336585e+000  0.000000e+000
      vertex  1.224434e+000 -6.383634e+000  3.256568e+000
      vertex  1.443767e+000 -6.337630e+000  0.000000e+000
    endloop
  endfacet
  facet normal  7.769797e-001  6.295250e-001  9.798611e-004
    outer loop
      vertex -5.841662e+000 -2.850440e+000  1.400000e+001
      vertex -4.000000e+000 -5.123477e+000  1.400000e+001
      vertex -5.856591e+000 -2.819640e+000  6.050000e+000
    endloop
  endfacet
  facet normal  7.819266e-001  6.233674e-001 -1.959796e-003
    outer loop
      vertex -5.856591e+000 -2.819640e+000  6.050000e+000
      vertex -4.000000e+000 -5.123477e+000  1.400000e+001
      vertex -4.053735e+000 -5.081068e+000  6.050000e+000
    endloop
  endfacet
  facet normal  5.877607e-001  9.158431e-003 -8.089829e-001
    outer loop
      vertex -1.224434e+000 -6.383634e+000  8.843432e+000
      vertex -9.425018e-001 -1.500000e+001  8.950723e+000
      vertex -2.467502e+000 -1.500000e+001  7.842745e+000
    endloop
  endfacet
  facet normal  1.864916e-001 -6.131132e-003 -9.824375e-001
    outer loop
      vertex -9.425018e-001 -1.500000e+001  8.950723e+000
      vertex -1.224434e+000 -6.383634e+000  8.843432e+000
      vertex  1.124450e-001 -6.499029e+000  9.097926e+000
    endloop
  endfacet
  facet normal  0.000000e+000  1.731348e-002 -9.998502e-001
    outer loop
      vertex  1.124450e-001 -6.499029e+000  9.097926e+000
      vertex  9.425018e-001 -1.500000e+001  8.950723e+000
      vertex -9.425018e-001 -1.500000e+001  8.950723e+000
    endloop
  endfacet
  facet normal -2.224921e-001 -4.842874e-003 -9.749225e-001
    outer loop
      vertex  1.223722e+000 -6.383770e+000  8.843743e+000
      vertex  9.425018e-001 -1.500000e+001  8.950723e+000
      vertex  1.124450e-001 -6.499029e+000  9.097926e+000
    endloop
  endfacet
  facet normal  6.724880e-001 -1.107363e-002 -7.400252e-001
    outer loop
      vertex -1.224434e+000 -6.383634e+000  8.843432e+000
      vertex -2.467502e+000 -1.500000e+001  7.842745e+000
      vertex -2.671519e+000 -5.925623e+000  7.521559e+000
    endloop
  endfacet
  facet normal  9.510046e-001  1.044423e-002 -3.090001e-001
    outer loop
      vertex -2.671519e+000 -5.925623e+000  7.521559e+000
      vertex -2.467502e+000 -1.500000e+001  7.842745e+000
      vertex -3.050000e+000 -1.500000e+001  6.050000e+000
    endloop
  endfacet
  facet normal  9.684802e-001  0.000000e+000 -2.490904e-001
    outer loop
      vertex -2.671519e+000 -5.925623e+000  7.521559e+000
      vertex -3.050000e+000 -1.500000e+001  6.050000e+000
      vertex -3.050000e+000 -5.739993e+000  6.050000e+000
    endloop
  endfacet
  facet normal -9.778594e-001  0.000000e+000 -2.092628e-001
    outer loop
      vertex  3.050000e+000 -5.739993e+000  6.050000e+000
      vertex  3.050000e+000 -1.500000e+001  6.050000e+000
      vertex  2.782875e+000 -5.874149e+000  7.298241e+000
    endloop
  endfacet
  facet normal -9.509575e-001  1.442750e-002 -3.089849e-001
    outer loop
      vertex  2.782875e+000 -5.874149e+000  7.298241e+000
      vertex  3.050000e+000 -1.500000e+001  6.050000e+000
      vertex  2.467502e+000 -1.500000e+001  7.842745e+000
    endloop
  endfacet
  facet normal -8.509418e-001 -1.932952e-003 -5.252563e-001
    outer loop
      vertex  2.782875e+000 -5.874149e+000  7.298241e+000
      vertex  2.467502e+000 -1.500000e+001  7.842745e+000
      vertex  2.364836e+000 -6.054550e+000  7.976149e+000
    endloop
  endfacet
  facet normal -5.877771e-001  5.318905e-003 -8.090054e-001
    outer loop
      vertex  2.364836e+000 -6.054550e+000  7.976149e+000
      vertex  2.467502e+000 -1.500000e+001  7.842745e+000
      vertex  9.425018e-001 -1.500000e+001  8.950723e+000
    endloop
  endfacet
  facet normal -6.070240e-001  9.946268e-003 -7.946213e-001
    outer loop
      vertex  2.364836e+000 -6.054550e+000  7.976149e+000
      vertex  9.425018e-001 -1.500000e+001  8.950723e+000
      vertex  1.223722e+000 -6.383770e+000  8.843743e+000
    endloop
  endfacet
  facet normal -5.877605e-001  9.158424e-003  8.089830e-001
    outer loop
      vertex  1.224434e+000 -6.383634e+000  3.256568e+000
      vertex  9.425018e-001 -1.500000e+001  3.149278e+000
      vertex  2.467502e+000 -1.500000e+001  4.257255e+000
    endloop
  endfacet
  facet normal -1.864921e-001 -6.131114e-003  9.824373e-001
    outer loop
      vertex  9.425018e-001 -1.500000e+001  3.149278e+000
      vertex  1.224434e+000 -6.383634e+000  3.256568e+000
      vertex -1.124450e-001 -6.499029e+000  3.002074e+000
    endloop
  endfacet
  facet normal  -0.000000e+000  1.731357e-002  9.998502e-001
    outer loop
      vertex -1.124450e-001 -6.499029e+000  3.002074e+000
      vertex -9.425018e-001 -1.500000e+001  3.149278e+000
      vertex  9.425018e-001 -1.500000e+001  3.149278e+000
    endloop
  endfacet
  facet normal  2.224921e-001 -4.842793e-003  9.749225e-001
    outer loop
      vertex -1.223722e+000 -6.383770e+000  3.256256e+000
      vertex -9.425018e-001 -1.500000e+001  3.149278e+000
      vertex -1.124450e-001 -6.499029e+000  3.002074e+000
    endloop
  endfacet
  facet normal -6.724880e-001 -1.107367e-002  7.400252e-001
    outer loop
      vertex  1.224434e+000 -6.383634e+000  3.256568e+000
      vertex  2.467502e+000 -1.500000e+001  4.257255e+000
      vertex  2.671519e+000 -5.925623e+000  4.578441e+000
    endloop
  endfacet
  facet normal -9.510047e-001  1.044422e-002  3.090001e-001
    outer loop
      vertex  2.671519e+000 -5.925623e+000  4.578441e+000
      vertex  2.467502e+000 -1.500000e+001  4.257255e+000
      vertex  3.050000e+000 -1.500000e+001  6.050000e+000
    endloop
  endfacet
  facet normal -9.684802e-001  0.000000e+000  2.490904e-001
    outer loop
      vertex  2.671519e+000 -5.925623e+000  4.578441e+000
      vertex  3.050000e+000 -1.500000e+001  6.050000e+000
      vertex  3.050000e+000 -5.739993e+000  6.050000e+000
    endloop
  endfacet
  facet normal  9.778594e-001  -0.000000e+000  2.092628e-001
    outer loop
      vertex -3.050000e+000 -5.739993e+000  6.050000e+000
      vertex -3.050000e+000 -1.500000e+001  6.050000e+000
      vertex -2.782875e+000 -5.874149e+000  4.801759e+000
    endloop
  endfacet
  facet normal  9.509575e-001  1.442750e-002  3.089848e-001
    outer loop
      vertex -2.782875e+000 -5.874149e+000  4.801759e+000
      vertex -3.050000e+000 -1.500000e+001  6.050000e+000
      vertex -2.467502e+000 -1.500000e+001  4.257255e+000
    endloop
  endfacet
  facet normal  8.509418e-001 -1.932952e-003  5.252563e-001
    outer loop
      vertex -2.782875e+000 -5.874149e+000  4.801759e+000
      vertex -2.467502e+000 -1.500000e+001  4.257255e+000
      vertex -2.364836e+000 -6.054550e+000  4.123851e+000
    endloop
  endfacet
  facet normal  5.877770e-001  5.318909e-003  8.090056e-001
    outer loop
      vertex -2.364836e+000 -6.054550e+000  4.123851e+000
      vertex -2.467502e+000 -1.500000e+001  4.257255e+000
      vertex -9.425018e-001 -1.500000e+001  3.149278e+000
    endloop
  endfacet
  facet normal  6.070240e-001  9.946339e-003  7.946212e-001
    outer loop
      vertex -2.364836e+000 -6.054550e+000  4.123851e+000
      vertex -9.425018e-001 -1.500000e+001  3.149278e+000
      vertex -1.223722e+000 -6.383770e+000  3.256256e+000
    endloop
  endfacet
  facet normal  0.000000e+000  0.000000e+000  1.000000e+000
    outer loop
      vertex -7.353553e+000 -1.064645e+001  9.000000e+000
      vertex -6.646447e+000 -1.064645e+001  9.000000e+000
      vertex -7.000000e+000 -1.050000e+001  9.000000e+000
    endloop
  endfacet
  facet normal  -0.000000e+000  0.000000e+000  1.000000e+000
    outer loop
      vertex -6.646447e+000 -1.064645e+001  9.000000e+000
      vertex -7.353553e+000 -1.064645e+001  9.000000e+000
      vertex -6.500000e+000 -1.100000e+001  9.000000e+000
    endloop
  endfacet
  facet normal  0.000000e+000  0.000000e+000  9.999999e-001
    outer loop
      vertex -6.500000e+000 -1.100000e+001  9.000000e+000
      vertex -7.353553e+000 -1.064645e+001  9.000000e+000
      vertex -7.500000e+000 -1.100000e+001  9.000000e+000
    endloop
  endfacet
  facet normal  -0.000000e+000  0.000000e+000  9.999999e-001
    outer loop
      vertex -6.500000e+000 -1.100000e+001  9.000000e+000
      vertex -7.500000e+000 -1.100000e+001  9.000000e+000
      vertex -6.646447e+000 -1.135355e+001  9.000000e+000
    endloop
  endfacet
  facet normal  0.000000e+000  0.000000e+000  1.000000e+000
    outer loop
      vertex -6.646447e+000 -1.135355e+001  9.000000e+000
      vertex -7.500000e+000 -1.100000e+001  9.000000e+000
      vertex -7.353553e+000 -1.135355e+001  9.000000e+000
    endloop
  endfacet
  facet normal  -0.000000e+000  0.000000e+000  1.000000e+000
    outer loop
      vertex -6.646447e+000 -1.135355e+001  9.000000e+000
      vertex -7.353553e+000 -1.135355e+001  9.000000e+000
      vertex -7.000000e+000 -1.150000e+001  9.000000e+000
    endloop
  endfacet
  facet normal -3.826832e-001  9.238796e-001  0.000000e+000
    outer loop
      vertex -7.000000e+000 -1.250000e+001  1.000000e+001
      vertex -5.939340e+000 -1.206066e+001  1.400000e+001
      vertex -5.939340e+000 -1.206066e+001  1.000000e+001
    endloop
  endfacet
  facet normal -9.238796e-001  3.826832e-001  0.000000e+000
    outer loop
      vertex -5.939340e+000 -1.206066e+001  1.000000e+001
      vertex -5.939340e+000 -1.206066e+001  1.400000e+001
      vertex -5.500000e+000 -1.100000e+001  1.400000e+001
    endloop
  endfacet
  facet normal -9.238796e-001  3.826832e-001  0.000000e+000
    outer loop
      vertex -5.939340e+000 -1.206066e+001  1.000000e+001
      vertex -5.500000e+000 -1.100000e+001  1.400000e+001
      vertex -5.500000e+000 -1.100000e+001  1.000000e+001
    endloop
  endfacet
  facet normal -3.826832e-001  9.238796e-001  0.000000e+000
    outer loop
      vertex -5.939340e+000 -1.206066e+001  1.400000e+001
      vertex -7.000000e+000 -1.250000e+001  1.000000e+001
      vertex -7.000000e+000 -1.250000e+001  1.400000e+001
    endloop
  endfacet
  facet normal  3.826832e-001  9.238796e-001  0.000000e+000
    outer loop
      vertex -7.000000e+000 -1.250000e+001  1.400000e+001
      vertex -7.000000e+000 -1.250000e+001  1.000000e+001
      vertex -8.060660e+000 -1.206066e+001  1.000000e+001
    endloop
  endfacet
  facet normal  3.826832e-001  9.238796e-001  -0.000000e+000
    outer loop
      vertex -7.000000e+000 -1.250000e+001  1.400000e+001
      vertex -8.060660e+000 -1.206066e+001  1.000000e+001
      vertex -8.060660e+000 -1.206066e+001  1.400000e+001
    endloop
  endfacet
  facet normal  9.238796e-001  3.826832e-001  0.000000e+000
    outer loop
      vertex -8.060660e+000 -1.206066e+001  1.400000e+001
      vertex -8.060660e+000 -1.206066e+001  1.000000e+001
      vertex -8.500000e+000 -1.100000e+001  1.000000e+001
    endloop
  endfacet
  facet normal  9.238796e-001  3.826832e-001  -0.000000e+000
    outer loop
      vertex -8.060660e+000 -1.206066e+001  1.400000e+001
      vertex -8.500000e+000 -1.100000e+001  1.000000e+001
      vertex -8.500000e+000 -1.100000e+001  1.400000e+001
    endloop
  endfacet
  facet normal  3.826832e-001 -9.238796e-001  0.000000e+000
    outer loop
      vertex -7.000000e+000 -9.500000e+000  1.000000e+001
      vertex -8.060660e+000 -9.939340e+000  1.400000e+001
      vertex -8.060660e+000 -9.939340e+000  1.000000e+001
    endloop
  endfacet
  facet normal  9.238796e-001 -3.826832e-001  0.000000e+000
    outer loop
      vertex -8.060660e+000 -9.939340e+000  1.000000e+001
      vertex -8.060660e+000 -9.939340e+000  1.400000e+001
      vertex -8.500000e+000 -1.100000e+001  1.400000e+001
    endloop
  endfacet
  facet normal  9.238796e-001 -3.826832e-001  0.000000e+000
    outer loop
      vertex -8.060660e+000 -9.939340e+000  1.000000e+001
      vertex -8.500000e+000 -1.100000e+001  1.400000e+001
      vertex -8.500000e+000 -1.100000e+001  1.000000e+001
    endloop
  endfacet
  facet normal  3.826832e-001 -9.238796e-001  0.000000e+000
    outer loop
      vertex -8.060660e+000 -9.939340e+000  1.400000e+001
      vertex -7.000000e+000 -9.500000e+000  1.000000e+001
      vertex -7.000000e+000 -9.500000e+000  1.400000e+001
    endloop
  endfacet
  facet normal -3.826832e-001 -9.238796e-001  -0.000000e+000
    outer loop
      vertex -7.000000e+000 -9.500000e+000  1.400000e+001
      vertex -7.000000e+000 -9.500000e+000  1.000000e+001
      vertex -5.939340e+000 -9.939340e+000  1.000000e+001
    endloop
  endfacet
  facet normal -3.826832e-001 -9.238796e-001  0.000000e+000
    outer loop
      vertex -7.000000e+000 -9.500000e+000  1.400000e+001
      vertex -5.939340e+000 -9.939340e+000  1.000000e+001
      vertex -5.939340e+000 -9.939340e+000  1.400000e+001
    endloop
  endfacet
  facet normal -9.238796e-001 -3.826832e-001  -0.000000e+000
    outer loop
      vertex -5.939340e+000 -9.939340e+000  1.400000e+001
      vertex -5.939340e+000 -9.939340e+000  1.000000e+001
      vertex -5.500000e+000 -1.100000e+001  1.000000e+001
    endloop
  endfacet
  facet normal -9.238796e-001 -3.826832e-001  0.000000e+000
    outer loop
      vertex -5.939340e+000 -9.939340e+000  1.400000e+001
      vertex -5.500000e+000 -1.100000e+001  1.000000e+001
      vertex -5.500000e+000 -1.100000e+001  1.400000e+001
    endloop
  endfacet
  facet normal -8.628562e-001  3.574065e-001  3.574071e-001
    outer loop
      vertex -5.500000e+000 -1.100000e+001  1.000000e+001
      vertex -5.792893e+000 -1.100000e+001  9.292893e+000
      vertex -5.939340e+000 -1.206066e+001  1.000000e+001
    endloop
  endfacet
  facet normal -8.628561e-001  3.574065e-001  3.574070e-001
    outer loop
      vertex -5.939340e+000 -1.206066e+001  1.000000e+001
      vertex -5.792893e+000 -1.100000e+001  9.292893e+000
      vertex -6.146447e+000 -1.185355e+001  9.292893e+000
    endloop
  endfacet
  facet normal -3.779648e-001  1.565580e-001  9.124869e-001
    outer loop
      vertex -5.792893e+000 -1.100000e+001  9.292893e+000
      vertex -6.500000e+000 -1.100000e+001  9.000000e+000
      vertex -6.146447e+000 -1.185355e+001  9.292893e+000
    endloop
  endfacet
  facet normal -3.779647e-001  1.565581e-001  9.124869e-001
    outer loop
      vertex -6.146447e+000 -1.185355e+001  9.292893e+000
      vertex -6.500000e+000 -1.100000e+001  9.000000e+000
      vertex -6.646447e+000 -1.135355e+001  9.000000e+000
    endloop
  endfacet
  facet normal  8.628562e-001  3.574065e-001  3.574070e-001
    outer loop
      vertex -8.060660e+000 -1.206066e+001  1.000000e+001
      vertex -7.853553e+000 -1.185355e+001  9.292893e+000
      vertex -8.500000e+000 -1.100000e+001  1.000000e+001
    endloop
  endfacet
  facet normal  8.628561e-001  3.574065e-001  3.574071e-001
    outer loop
      vertex -8.500000e+000 -1.100000e+001  1.000000e+001
      vertex -7.853553e+000 -1.185355e+001  9.292893e+000
      vertex -8.207107e+000 -1.100000e+001  9.292893e+000
    endloop
  endfacet
  facet normal  3.779648e-001  1.565580e-001  9.124869e-001
    outer loop
      vertex -7.853553e+000 -1.185355e+001  9.292893e+000
      vertex -7.353553e+000 -1.135355e+001  9.000000e+000
      vertex -8.207107e+000 -1.100000e+001  9.292893e+000
    endloop
  endfacet
  facet normal  3.779647e-001  1.565581e-001  9.124868e-001
    outer loop
      vertex -8.207107e+000 -1.100000e+001  9.292893e+000
      vertex -7.353553e+000 -1.135355e+001  9.000000e+000
      vertex -7.500000e+000 -1.100000e+001  9.000000e+000
    endloop
  endfacet
  facet normal  3.574065e-001  8.628562e-001  3.574071e-001
    outer loop
      vertex -7.000000e+000 -1.250000e+001  1.000000e+001
      vertex -7.000000e+000 -1.220711e+001  9.292893e+000
      vertex -8.060660e+000 -1.206066e+001  1.000000e+001
    endloop
  endfacet
  facet normal  3.574063e-001  8.628564e-001  3.574067e-001
    outer loop
      vertex -8.060660e+000 -1.206066e+001  1.000000e+001
      vertex -7.000000e+000 -1.220711e+001  9.292893e+000
      vertex -7.853553e+000 -1.185355e+001  9.292893e+000
    endloop
  endfacet
  facet normal  1.565579e-001  3.779648e-001  9.124869e-001
    outer loop
      vertex -7.000000e+000 -1.220711e+001  9.292893e+000
      vertex -7.000000e+000 -1.150000e+001  9.000000e+000
      vertex -7.853553e+000 -1.185355e+001  9.292893e+000
    endloop
  endfacet
  facet normal  1.565578e-001  3.779649e-001  9.124868e-001
    outer loop
      vertex -7.853553e+000 -1.185355e+001  9.292893e+000
      vertex -7.000000e+000 -1.150000e+001  9.000000e+000
      vertex -7.353553e+000 -1.135355e+001  9.000000e+000
    endloop
  endfacet
  facet normal -3.574066e-001  8.628563e-001  3.574067e-001
    outer loop
      vertex -5.939340e+000 -1.206066e+001  1.000000e+001
      vertex -6.146447e+000 -1.185355e+001  9.292893e+000
      vertex -7.000000e+000 -1.250000e+001  1.000000e+001
    endloop
  endfacet
  facet normal -3.574062e-001  8.628563e-001  3.574071e-001
    outer loop
      vertex -7.000000e+000 -1.250000e+001  1.000000e+001
      vertex -6.146447e+000 -1.185355e+001  9.292893e+000
      vertex -7.000000e+000 -1.220711e+001  9.292893e+000
    endloop
  endfacet
  facet normal -1.565579e-001  3.779649e-001  9.124868e-001
    outer loop
      vertex -6.146447e+000 -1.185355e+001  9.292893e+000
      vertex -6.646447e+000 -1.135355e+001  9.000000e+000
      vertex -7.000000e+000 -1.220711e+001  9.292893e+000
    endloop
  endfacet
  facet normal -1.565578e-001  3.779648e-001  9.124869e-001
    outer loop
      vertex -7.000000e+000 -1.220711e+001  9.292893e+000
      vertex -6.646447e+000 -1.135355e+001  9.000000e+000
      vertex -7.000000e+000 -1.150000e+001  9.000000e+000
    endloop
  endfacet
  facet normal  8.628562e-001 -3.574065e-001  3.574071e-001
    outer loop
      vertex -8.500000e+000 -1.100000e+001  1.000000e+001
      vertex -8.207107e+000 -1.100000e+001  9.292893e+000
      vertex -8.060660e+000 -9.939340e+000  1.000000e+001
    endloop
  endfacet
  facet normal  8.628561e-001 -3.574065e-001  3.574070e-001
    outer loop
      vertex -8.060660e+000 -9.939340e+000  1.000000e+001
      vertex -8.207107e+000 -1.100000e+001  9.292893e+000
      vertex -7.853553e+000 -1.014645e+001  9.292893e+000
    endloop
  endfacet
  facet normal  3.779648e-001 -1.565580e-001  9.124869e-001
    outer loop
      vertex -8.207107e+000 -1.100000e+001  9.292893e+000
      vertex -7.500000e+000 -1.100000e+001  9.000000e+000
      vertex -7.853553e+000 -1.014645e+001  9.292893e+000
    endloop
  endfacet
  facet normal  3.779647e-001 -1.565581e-001  9.124869e-001
    outer loop
      vertex -7.853553e+000 -1.014645e+001  9.292893e+000
      vertex -7.500000e+000 -1.100000e+001  9.000000e+000
      vertex -7.353553e+000 -1.064645e+001  9.000000e+000
    endloop
  endfacet
  facet normal -8.628562e-001 -3.574065e-001  3.574070e-001
    outer loop
      vertex -5.939340e+000 -9.939340e+000  1.000000e+001
      vertex -6.146447e+000 -1.014645e+001  9.292893e+000
      vertex -5.500000e+000 -1.100000e+001  1.000000e+001
    endloop
  endfacet
  facet normal -8.628561e-001 -3.574065e-001  3.574071e-001
    outer loop
      vertex -5.500000e+000 -1.100000e+001  1.000000e+001
      vertex -6.146447e+000 -1.014645e+001  9.292893e+000
      vertex -5.792893e+000 -1.100000e+001  9.292893e+000
    endloop
  endfacet
  facet normal -3.779648e-001 -1.565580e-001  9.124869e-001
    outer loop
      vertex -6.146447e+000 -1.014645e+001  9.292893e+000
      vertex -6.646447e+000 -1.064645e+001  9.000000e+000
      vertex -5.792893e+000 -1.100000e+001  9.292893e+000
    endloop
  endfacet
  facet normal -3.779647e-001 -1.565581e-001  9.124868e-001
    outer loop
      vertex -5.792893e+000 -1.100000e+001  9.292893e+000
      vertex -6.646447e+000 -1.064645e+001  9.000000e+000
      vertex -6.500000e+000 -1.100000e+001  9.000000e+000
    endloop
  endfacet
  facet normal -3.574065e-001 -8.628562e-001  3.574071e-001
    outer loop
      vertex -7.000000e+000 -9.500000e+000  1.000000e+001
      vertex -7.000000e+000 -9.792893e+000  9.292893e+000
      vertex -5.939340e+000 -9.939340e+000  1.000000e+001
    endloop
  endfacet
  facet normal -3.574063e-001 -8.628564e-001  3.574067e-001
    outer loop
      vertex -5.939340e+000 -9.939340e+000  1.000000e+001
      vertex -7.000000e+000 -9.792893e+000  9.292893e+000
      vertex -6.146447e+000 -1.014645e+001  9.292893e+000
    endloop
  endfacet
  facet normal -1.565579e-001 -3.779648e-001  9.124869e-001
    outer loop
      vertex -7.000000e+000 -9.792893e+000  9.292893e+000
      vertex -7.000000e+000 -1.050000e+001  9.000000e+000
      vertex -6.146447e+000 -1.014645e+001  9.292893e+000
    endloop
  endfacet
  facet normal -1.565578e-001 -3.779649e-001  9.124868e-001
    outer loop
      vertex -6.146447e+000 -1.014645e+001  9.292893e+000
      vertex -7.000000e+000 -1.050000e+001  9.000000e+000
      vertex -6.646447e+000 -1.064645e+001  9.000000e+000
    endloop
  endfacet
  facet normal  3.574066e-001 -8.628563e-001  3.574067e-001
    outer loop
      vertex -8.060660e+000 -9.939340e+000  1.000000e+001
      vertex -7.853553e+000 -1.014645e+001  9.292893e+000
      vertex -7.000000e+000 -9.500000e+000  1.000000e+001
    endloop
  endfacet
  facet normal  3.574062e-001 -8.628563e-001  3.574071e-001
    outer loop
      vertex -7.000000e+000 -9.500000e+000  1.000000e+001
      vertex -7.853553e+000 -1.014645e+001  9.292893e+000
      vertex -7.000000e+000 -9.792893e+000  9.292893e+000
    endloop
  endfacet
  facet normal  1.565579e-001 -3.779649e-001  9.124868e-001
    outer loop
      vertex -7.853553e+000 -1.014645e+001  9.292893e+000
      vertex -7.353553e+000 -1.064645e+001  9.000000e+000
      vertex -7.000000e+000 -9.792893e+000  9.292893e+000
    endloop
  endfacet
  facet normal  1.565578e-001 -3.779648e-001  9.124869e-001
    outer loop
      vertex -7.000000e+000 -9.792893e+000  9.292893e+000
      vertex -7.353553e+000 -1.064645e+001  9.000000e+000
      vertex -7.000000e+000 -1.050000e+001  9.000000e+000
    endloop
  endfacet
  facet normal -1.000000e+000  0.000000e+000  0.000000e+000
    outer loop
      vertex -4.000000e+000 -1.500000e+001  1.400000e+001
      vertex -4.000000e+000 -1.500000e+001  1.600000e+001
      vertex -4.000000e+000 -5.123477e+000  1.400000e+001
    endloop
  endfacet
  facet normal -1.000000e+000  0.000000e+000  0.000000e+000
    outer loop
      vertex -4.000000e+000 -5.123477e+000  1.400000e+001
      vertex -4.000000e+000 -1.500000e+001  1.600000e+001
      vertex -4.000000e+000  1.776357e-015  1.600000e+001
    endloop
  endfacet
  facet normal -1.000000e+000  0.000000e+000  -0.000000e+000
    outer loop
      vertex -4.000000e+000 -5.123477e+000  1.400000e+001
      vertex -4.000000e+000  1.776357e-015  1.600000e+001
      vertex -4.000000e+000  1.776357e-015  1.400000e+001
    endloop
  endfacet
  facet normal  0.000000e+000  1.000000e+000  0.000000e+000
    outer loop
      vertex  1.000000e+001 -4.702091e-003  0.000000e+000
      vertex  6.500000e+000 -4.702091e-003  0.000000e+000
      vertex  1.000000e+001 -4.702091e-003  1.400000e+001
    endloop
  endfacet
  facet normal  1.330461e-010  1.000000e+000 -3.326152e-011
    outer loop
      vertex  1.000000e+001 -4.702091e-003  1.400000e+001
      vertex  6.500000e+000 -4.702091e-003  0.000000e+000
      vertex  6.500000e+000 -4.702091e-003  1.400000e+001
    endloop
  endfacet
  facet normal  3.826832e-001 -9.238796e-001  0.000000e+000
    outer loop
      vertex  7.000000e+000  1.250000e+001  1.400000e+001
      vertex  5.939340e+000  1.206066e+001  1.600000e+001
      vertex  5.939340e+000  1.206066e+001  1.400000e+001
    endloop
  endfacet
  facet normal  9.238796e-001 -3.826832e-001  0.000000e+000
    outer loop
      vertex  5.939340e+000  1.206066e+001  1.400000e+001
      vertex  5.939340e+000  1.206066e+001  1.600000e+001
      vertex  5.500000e+000  1.100000e+001  1.600000e+001
    endloop
  endfacet
  facet normal  9.238796e-001 -3.826832e-001  0.000000e+000
    outer loop
      vertex  5.939340e+000  1.206066e+001  1.400000e+001
      vertex  5.500000e+000  1.100000e+001  1.600000e+001
      vertex  5.500000e+000  1.100000e+001  1.400000e+001
    endloop
  endfacet
  facet normal  3.826832e-001 -9.238796e-001  0.000000e+000
    outer loop
      vertex  5.939340e+000  1.206066e+001  1.600000e+001
      vertex  7.000000e+000  1.250000e+001  1.400000e+001
      vertex  7.000000e+000  1.250000e+001  1.600000e+001
    endloop
  endfacet
  facet normal -3.826832e-001 -9.238796e-001  -0.000000e+000
    outer loop
      vertex  7.000000e+000  1.250000e+001  1.600000e+001
      vertex  7.000000e+000  1.250000e+001  1.400000e+001
      vertex  8.060660e+000  1.206066e+001  1.400000e+001
    endloop
  endfacet
  facet normal -3.826832e-001 -9.238796e-001  0.000000e+000
    outer loop
      vertex  7.000000e+000  1.250000e+001  1.600000e+001
      vertex  8.060660e+000  1.206066e+001  1.400000e+001
      vertex  8.060660e+000  1.206066e+001  1.600000e+001
    endloop
  endfacet
  facet normal -9.238796e-001 -3.826832e-001  -0.000000e+000
    outer loop
      vertex  8.060660e+000  1.206066e+001  1.600000e+001
      vertex  8.060660e+000  1.206066e+001  1.400000e+001
      vertex  8.500000e+000  1.100000e+001  1.400000e+001
    endloop
  endfacet
  facet normal -9.238796e-001 -3.826832e-001  0.000000e+000
    outer loop
      vertex  8.060660e+000  1.206066e+001  1.600000e+001
      vertex  8.500000e+000  1.100000e+001  1.400000e+001
      vertex  8.500000e+000  1.100000e+001  1.600000e+001
    endloop
  endfacet
  facet normal -3.826832e-001  9.238796e-001  0.000000e+000
    outer loop
      vertex  7.000000e+000  9.500000e+000  1.400000e+001
      vertex  8.060660e+000  9.939340e+000  1.600000e+001
      vertex  8.060660e+000  9.939340e+000  1.400000e+001
    endloop
  endfacet
  facet normal -9.238796e-001  3.826832e-001  0.000000e+000
    outer loop
      vertex  8.060660e+000  9.939340e+000  1.400000e+001
      vertex  8.060660e+000  9.939340e+000  1.600000e+001
      vertex  8.500000e+000  1.100000e+001  1.600000e+001
    endloop
  endfacet
  facet normal -9.238796e-001  3.826832e-001  0.000000e+000
    outer loop
      vertex  8.060660e+000  9.939340e+000  1.400000e+001
      vertex  8.500000e+000  1.100000e+001  1.600000e+001
      vertex  8.500000e+000  1.100000e+001  1.400000e+001
    endloop
  endfacet
  facet normal -3.826832e-001  9.238796e-001  0.000000e+000
    outer loop
      vertex  8.060660e+000  9.939340e+000  1.600000e+001
      vertex  7.000000e+000  9.500000e+000  1.400000e+001
      vertex  7.000000e+000  9.500000e+000  1.600000e+001
    endloop
  endfacet
  facet normal  3.826832e-001  9.238796e-001  0.000000e+000
    outer loop
      vertex  7.000000e+000  9.500000e+000  1.600000e+001
      vertex  7.000000e+000  9.500000e+000  1.400000e+001
      vertex  5.939340e+000  9.939340e+000  1.400000e+001
    endloop
  endfacet
  facet normal  3.826832e-001  9.238796e-001  -0.000000e+000
    outer loop
      vertex  7.000000e+000  9.500000e+000  1.600000e+001
      vertex  5.939340e+000  9.939340e+000  1.400000e+001
      vertex  5.939340e+000  9.939340e+000  1.600000e+001
    endloop
  endfacet
  facet normal  9.238796e-001  3.826832e-001  0.000000e+000
    outer loop
      vertex  5.939340e+000  9.939340e+000  1.600000e+001
      vertex  5.939340e+000  9.939340e+000  1.400000e+001
      vertex  5.500000e+000  1.100000e+001  1.400000e+001
    endloop
  endfacet
  facet normal  9.238796e-001  3.826832e-001  -0.000000e+000
    outer loop
      vertex  5.939340e+000  9.939340e+000  1.600000e+001
      vertex  5.500000e+000  1.100000e+001  1.400000e+001
      vertex  5.500000e+000  1.100000e+001  1.600000e+001
    endloop
  endfacet
  facet normal  0.000000e+000  1.000000e+000  0.000000e+000
    outer loop
      vertex -4.000000e+000  1.776357e-015  1.400000e+001
      vertex -4.000000e+000  1.776357e-015  1.600000e+001
      vertex  4.000000e+000  1.776357e-015  1.400000e+001
    endloop
  endfacet
  facet normal  0.000000e+000  1.000000e+000  -0.000000e+000
    outer loop
      vertex  4.000000e+000  1.776357e-015  1.400000e+001
      vertex -4.000000e+000  1.776357e-015  1.600000e+001
      vertex  4.000000e+000  1.776357e-015  1.600000e+001
    endloop
  endfacet
  facet normal -1.000000e+000  -0.000000e+000  0.000000e+000
    outer loop
      vertex  4.000000e+000  1.776357e-015  1.600000e+001
      vertex  4.000000e+000  1.500000e+001  1.600000e+001
      vertex  4.000000e+000  1.776357e-015  1.400000e+001
    endloop
  endfacet
  facet normal -1.000000e+000  0.000000e+000  0.000000e+000
    outer loop
      vertex  4.000000e+000  1.776357e-015  1.400000e+001
      vertex  4.000000e+000  1.500000e+001  1.600000e+001
      vertex  4.000000e+000  1.500000e+001  1.400000e+001
    endloop
  endfacet
  facet normal  1.532210e-016  1.000000e+000  0.000000e+000
    outer loop
      vertex -1.000000e+001  1.332268e-015  0.000000e+000
      vertex -1.000000e+001  1.332268e-015  1.400000e+001
      vertex -6.500002e+000  7.959943e-016  0.000000e+000
    endloop
  endfacet
  facet normal  1.532210e-016  1.000000e+000  -0.000000e+000
    outer loop
      vertex -6.500002e+000  7.959943e-016  0.000000e+000
      vertex -1.000000e+001  1.332268e-015  1.400000e+001
      vertex -6.500002e+000  7.959943e-016  1.400000e+001
    endloop
  endfacet
endsolid CATIA STL
