solid CATIA STL
  facet normal  0.000000e+000  -0.000000e+000  1.000000e+000
    outer loop
      vertex  2.000000e+000 -1.500000e+000  9.500000e+000
      vertex  1.000000e+001 -1.000000e+001  9.500000e+000
      vertex  1.250000e+001 -9.330127e+000  9.500000e+000
    endloop
  endfacet
  facet normal  0.000000e+000  -0.000000e+000  1.000000e+000
    outer loop
      vertex  2.000000e+000 -1.500000e+000  9.500000e+000
      vertex  1.250000e+001 -9.330127e+000  9.500000e+000
      vertex  1.433013e+001 -7.500000e+000  9.500000e+000
    endloop
  endfacet
  facet normal  0.000000e+000  -0.000000e+000  1.000000e+000
    outer loop
      vertex  2.000000e+000 -1.500000e+000  9.500000e+000
      vertex  1.433013e+001 -7.500000e+000  9.500000e+000
      vertex  1.500000e+001 -5.000000e+000  9.500000e+000
    endloop
  endfacet
  facet normal  0.000000e+000  0.000000e+000  1.000000e+000
    outer loop
      vertex  2.000000e+000 -1.500000e+000  9.500000e+000
      vertex  1.500000e+001 -5.000000e+000  9.500000e+000
      vertex  2.500000e+000  0.000000e+000  9.500000e+000
    endloop
  endfacet
  facet normal  0.000000e+000  0.000000e+000  1.000000e+000
    outer loop
      vertex  1.000000e+001 -1.000000e+001  9.500000e+000
      vertex  2.000000e+000 -1.500000e+000  9.500000e+000
      vertex -1.000000e+001 -1.000000e+001  9.500000e+000
    endloop
  endfacet
  facet normal  0.000000e+000  0.000000e+000  1.000000e+000
    outer loop
      vertex -1.000000e+001 -1.000000e+001  9.500000e+000
      vertex  2.000000e+000 -1.500000e+000  9.500000e+000
      vertex -2.000000e+000 -1.500000e+000  9.500000e+000
    endloop
  endfacet
  facet normal  0.000000e+000  0.000000e+000  1.000000e+000
    outer loop
      vertex -1.000000e+001 -1.000000e+001  9.500000e+000
      vertex -2.000000e+000 -1.500000e+000  9.500000e+000
      vertex -1.250000e+001 -9.330127e+000  9.500000e+000
    endloop
  endfacet
  facet normal  0.000000e+000  -0.000000e+000  1.000000e+000
    outer loop
      vertex -1.250000e+001 -9.330127e+000  9.500000e+000
      vertex -2.000000e+000 -1.500000e+000  9.500000e+000
      vertex -1.500000e+001 -5.000000e+000  9.500000e+000
    endloop
  endfacet
  facet normal  0.000000e+000  0.000000e+000  1.000000e+000
    outer loop
      vertex -1.250000e+001 -9.330127e+000  9.500000e+000
      vertex -1.500000e+001 -5.000000e+000  9.500000e+000
      vertex -1.433013e+001 -7.500000e+000  9.500000e+000
    endloop
  endfacet
  facet normal  0.000000e+000  0.000000e+000  1.000000e+000
    outer loop
      vertex -1.250000e+001  9.330127e+000  9.500000e+000
      vertex -1.433013e+001  7.500000e+000  9.500000e+000
      vertex -1.000000e+001  1.000000e+001  9.500000e+000
    endloop
  endfacet
  facet normal  0.000000e+000  0.000000e+000  1.000000e+000
    outer loop
      vertex -1.000000e+001  1.000000e+001  9.500000e+000
      vertex -1.433013e+001  7.500000e+000  9.500000e+000
      vertex -1.500000e+001  5.000000e+000  9.500000e+000
    endloop
  endfacet
  facet normal  -0.000000e+000  0.000000e+000  9.999999e-001
    outer loop
      vertex -1.000000e+001  1.000000e+001  9.500000e+000
      vertex -1.500000e+001  5.000000e+000  9.500000e+000
      vertex -2.000000e+000  1.500000e+000  9.500000e+000
    endloop
  endfacet
  facet normal  0.000000e+000  -0.000000e+000  1.000000e+000
    outer loop
      vertex -1.000000e+001  1.000000e+001  9.500000e+000
      vertex -2.000000e+000  1.500000e+000  9.500000e+000
      vertex  1.000000e+001  1.000000e+001  9.500000e+000
    endloop
  endfacet
  facet normal  0.000000e+000  0.000000e+000  1.000000e+000
    outer loop
      vertex  1.000000e+001  1.000000e+001  9.500000e+000
      vertex -2.000000e+000  1.500000e+000  9.500000e+000
      vertex  2.000000e+000  1.500000e+000  9.500000e+000
    endloop
  endfacet
  facet normal  0.000000e+000  0.000000e+000  1.000000e+000
    outer loop
      vertex  1.000000e+001  1.000000e+001  9.500000e+000
      vertex  2.000000e+000  1.500000e+000  9.500000e+000
      vertex  1.250000e+001  9.330127e+000  9.500000e+000
    endloop
  endfacet
  facet normal  0.000000e+000  0.000000e+000  1.000000e+000
    outer loop
      vertex  2.500000e+000  0.000000e+000  9.500000e+000
      vertex  1.500000e+001 -5.000000e+000  9.500000e+000
      vertex  2.000000e+000  1.500000e+000  9.500000e+000
    endloop
  endfacet
  facet normal  -0.000000e+000  0.000000e+000  1.000000e+000
    outer loop
      vertex  2.000000e+000  1.500000e+000  9.500000e+000
      vertex  1.500000e+001 -5.000000e+000  9.500000e+000
      vertex  1.500000e+001  5.000000e+000  9.500000e+000
    endloop
  endfacet
  facet normal  0.000000e+000  0.000000e+000  1.000000e+000
    outer loop
      vertex  2.000000e+000  1.500000e+000  9.500000e+000
      vertex  1.500000e+001  5.000000e+000  9.500000e+000
      vertex  1.250000e+001  9.330127e+000  9.500000e+000
    endloop
  endfacet
  facet normal  0.000000e+000  0.000000e+000  1.000000e+000
    outer loop
      vertex  1.250000e+001  9.330127e+000  9.500000e+000
      vertex  1.500000e+001  5.000000e+000  9.500000e+000
      vertex  1.433013e+001  7.500000e+000  9.500000e+000
    endloop
  endfacet
  facet normal  0.000000e+000  0.000000e+000  1.000000e+000
    outer loop
      vertex -2.000000e+000  1.500000e+000  9.500000e+000
      vertex -1.500000e+001  5.000000e+000  9.500000e+000
      vertex -2.500000e+000  3.061516e-016  9.500000e+000
    endloop
  endfacet
  facet normal  0.000000e+000  0.000000e+000  1.000000e+000
    outer loop
      vertex -2.500000e+000  3.061516e-016  9.500000e+000
      vertex -1.500000e+001  5.000000e+000  9.500000e+000
      vertex -1.500000e+001 -5.000000e+000  9.500000e+000
    endloop
  endfacet
  facet normal  0.000000e+000  0.000000e+000  1.000000e+000
    outer loop
      vertex -2.500000e+000  3.061516e-016  9.500000e+000
      vertex -1.500000e+001 -5.000000e+000  9.500000e+000
      vertex -2.000000e+000 -1.500000e+000  9.500000e+000
    endloop
  endfacet
  facet normal  0.000000e+000  0.000000e+000 -1.000000e+000
    outer loop
      vertex -9.939340e+000  8.060660e+000 -2.000000e+000
      vertex -1.100000e+001  8.500000e+000 -2.000000e+000
      vertex  1.000000e+001  1.000000e+001 -2.000000e+000
    endloop
  endfacet
  facet normal  -0.000000e+000  0.000000e+000 -1.000000e+000
    outer loop
      vertex -1.100000e+001  5.500000e+000 -2.000000e+000
      vertex  1.100000e+001 -5.500000e+000 -2.000000e+000
      vertex  9.939340e+000 -5.939340e+000 -2.000000e+000
    endloop
  endfacet
  facet normal  -0.000000e+000  0.000000e+000 -1.000000e+000
    outer loop
      vertex -1.100000e+001  5.500000e+000 -2.000000e+000
      vertex  9.939340e+000 -5.939340e+000 -2.000000e+000
      vertex  9.500000e+000 -7.000000e+000 -2.000000e+000
    endloop
  endfacet
  facet normal  -0.000000e+000  0.000000e+000 -1.000000e+000
    outer loop
      vertex -1.100000e+001  5.500000e+000 -2.000000e+000
      vertex  9.500000e+000 -7.000000e+000 -2.000000e+000
      vertex -1.000000e+001 -1.000000e+001 -2.000000e+000
    endloop
  endfacet
  facet normal  0.000000e+000  -0.000000e+000 -1.000000e+000
    outer loop
      vertex -1.500000e+001  5.000000e+000 -2.000000e+000
      vertex -1.433013e+001  7.500000e+000 -2.000000e+000
      vertex -1.250000e+001  7.000000e+000 -2.000000e+000
    endloop
  endfacet
  facet normal  0.000000e+000  -0.000000e+000 -1.000000e+000
    outer loop
      vertex -1.500000e+001  5.000000e+000 -2.000000e+000
      vertex -1.250000e+001  7.000000e+000 -2.000000e+000
      vertex -1.206066e+001  5.939340e+000 -2.000000e+000
    endloop
  endfacet
  facet normal  0.000000e+000  -0.000000e+000 -1.000000e+000
    outer loop
      vertex -1.500000e+001  5.000000e+000 -2.000000e+000
      vertex -1.206066e+001  5.939340e+000 -2.000000e+000
      vertex -1.100000e+001  5.500000e+000 -2.000000e+000
    endloop
  endfacet
  facet normal  0.000000e+000  0.000000e+000 -1.000000e+000
    outer loop
      vertex  1.100000e+001 -5.500000e+000 -2.000000e+000
      vertex -1.100000e+001  5.500000e+000 -2.000000e+000
      vertex -9.939340e+000  5.939340e+000 -2.000000e+000
    endloop
  endfacet
  facet normal  0.000000e+000  0.000000e+000 -1.000000e+000
    outer loop
      vertex  1.100000e+001 -5.500000e+000 -2.000000e+000
      vertex -9.939340e+000  5.939340e+000 -2.000000e+000
      vertex -9.500000e+000  7.000000e+000 -2.000000e+000
    endloop
  endfacet
  facet normal  0.000000e+000  0.000000e+000 -1.000000e+000
    outer loop
      vertex  1.100000e+001 -5.500000e+000 -2.000000e+000
      vertex -9.500000e+000  7.000000e+000 -2.000000e+000
      vertex -9.939340e+000  8.060660e+000 -2.000000e+000
    endloop
  endfacet
  facet normal  0.000000e+000  0.000000e+000 -1.000000e+000
    outer loop
      vertex  1.100000e+001 -5.500000e+000 -2.000000e+000
      vertex -9.939340e+000  8.060660e+000 -2.000000e+000
      vertex  1.000000e+001  1.000000e+001 -2.000000e+000
    endloop
  endfacet
  facet normal  0.000000e+000  0.000000e+000 -1.000000e+000
    outer loop
      vertex  1.100000e+001 -5.500000e+000 -2.000000e+000
      vertex  1.000000e+001  1.000000e+001 -2.000000e+000
      vertex  1.250000e+001  9.330127e+000 -2.000000e+000
    endloop
  endfacet
  facet normal  0.000000e+000  -0.000000e+000 -9.999999e-001
    outer loop
      vertex  1.100000e+001 -5.500000e+000 -2.000000e+000
      vertex  1.250000e+001  9.330127e+000 -2.000000e+000
      vertex  1.433013e+001  7.500000e+000 -2.000000e+000
    endloop
  endfacet
  facet normal  0.000000e+000  -0.000000e+000 -1.000000e+000
    outer loop
      vertex  1.100000e+001 -5.500000e+000 -2.000000e+000
      vertex  1.433013e+001  7.500000e+000 -2.000000e+000
      vertex  1.500000e+001  5.000000e+000 -2.000000e+000
    endloop
  endfacet
  facet normal  0.000000e+000  -0.000000e+000 -1.000000e+000
    outer loop
      vertex  1.100000e+001 -5.500000e+000 -2.000000e+000
      vertex  1.500000e+001  5.000000e+000 -2.000000e+000
      vertex  1.500000e+001 -5.000000e+000 -2.000000e+000
    endloop
  endfacet
  facet normal  0.000000e+000  0.000000e+000 -1.000000e+000
    outer loop
      vertex  1.100000e+001 -5.500000e+000 -2.000000e+000
      vertex  1.500000e+001 -5.000000e+000 -2.000000e+000
      vertex  1.206066e+001 -5.939340e+000 -2.000000e+000
    endloop
  endfacet
  facet normal  0.000000e+000  0.000000e+000 -1.000000e+000
    outer loop
      vertex  1.206066e+001 -8.060660e+000 -2.000000e+000
      vertex  1.250000e+001 -9.330127e+000 -2.000000e+000
      vertex  1.100000e+001 -8.500000e+000 -2.000000e+000
    endloop
  endfacet
  facet normal  0.000000e+000  -0.000000e+000 -1.000000e+000
    outer loop
      vertex  1.100000e+001 -8.500000e+000 -2.000000e+000
      vertex  1.250000e+001 -9.330127e+000 -2.000000e+000
      vertex  1.000000e+001 -1.000000e+001 -2.000000e+000
    endloop
  endfacet
  facet normal  0.000000e+000  0.000000e+000 -1.000000e+000
    outer loop
      vertex  1.100000e+001 -8.500000e+000 -2.000000e+000
      vertex  1.000000e+001 -1.000000e+001 -2.000000e+000
      vertex  9.939340e+000 -8.060660e+000 -2.000000e+000
    endloop
  endfacet
  facet normal  0.000000e+000  -0.000000e+000 -1.000000e+000
    outer loop
      vertex  9.939340e+000 -8.060660e+000 -2.000000e+000
      vertex  1.000000e+001 -1.000000e+001 -2.000000e+000
      vertex -1.000000e+001 -1.000000e+001 -2.000000e+000
    endloop
  endfacet
  facet normal  0.000000e+000  0.000000e+000 -1.000000e+000
    outer loop
      vertex  9.939340e+000 -8.060660e+000 -2.000000e+000
      vertex -1.000000e+001 -1.000000e+001 -2.000000e+000
      vertex  9.500000e+000 -7.000000e+000 -2.000000e+000
    endloop
  endfacet
  facet normal  0.000000e+000  0.000000e+000 -1.000000e+000
    outer loop
      vertex -1.000000e+001 -1.000000e+001 -2.000000e+000
      vertex -1.250000e+001 -9.330127e+000 -2.000000e+000
      vertex -1.100000e+001  5.500000e+000 -2.000000e+000
    endloop
  endfacet
  facet normal  0.000000e+000  0.000000e+000 -1.000000e+000
    outer loop
      vertex -1.100000e+001  5.500000e+000 -2.000000e+000
      vertex -1.250000e+001 -9.330127e+000 -2.000000e+000
      vertex -1.500000e+001  5.000000e+000 -2.000000e+000
    endloop
  endfacet
  facet normal  0.000000e+000  0.000000e+000 -1.000000e+000
    outer loop
      vertex -1.250000e+001 -9.330127e+000 -2.000000e+000
      vertex -1.433013e+001 -7.500000e+000 -2.000000e+000
      vertex -1.500000e+001  5.000000e+000 -2.000000e+000
    endloop
  endfacet
  facet normal  0.000000e+000  0.000000e+000 -1.000000e+000
    outer loop
      vertex -1.500000e+001  5.000000e+000 -2.000000e+000
      vertex -1.433013e+001 -7.500000e+000 -2.000000e+000
      vertex -1.500000e+001 -5.000000e+000 -2.000000e+000
    endloop
  endfacet
  facet normal  0.000000e+000  0.000000e+000 -1.000000e+000
    outer loop
      vertex -1.250000e+001  7.000000e+000 -2.000000e+000
      vertex -1.433013e+001  7.500000e+000 -2.000000e+000
      vertex -1.206066e+001  8.060660e+000 -2.000000e+000
    endloop
  endfacet
  facet normal  -0.000000e+000  0.000000e+000 -9.999999e-001
    outer loop
      vertex -1.206066e+001  8.060660e+000 -2.000000e+000
      vertex -1.433013e+001  7.500000e+000 -2.000000e+000
      vertex -1.250000e+001  9.330127e+000 -2.000000e+000
    endloop
  endfacet
  facet normal  0.000000e+000  0.000000e+000 -1.000000e+000
    outer loop
      vertex -1.206066e+001  8.060660e+000 -2.000000e+000
      vertex -1.250000e+001  9.330127e+000 -2.000000e+000
      vertex -1.100000e+001  8.500000e+000 -2.000000e+000
    endloop
  endfacet
  facet normal  0.000000e+000  0.000000e+000 -1.000000e+000
    outer loop
      vertex -1.100000e+001  8.500000e+000 -2.000000e+000
      vertex -1.250000e+001  9.330127e+000 -2.000000e+000
      vertex -1.000000e+001  1.000000e+001 -2.000000e+000
    endloop
  endfacet
  facet normal  0.000000e+000  -0.000000e+000 -1.000000e+000
    outer loop
      vertex -1.100000e+001  8.500000e+000 -2.000000e+000
      vertex -1.000000e+001  1.000000e+001 -2.000000e+000
      vertex  1.000000e+001  1.000000e+001 -2.000000e+000
    endloop
  endfacet
  facet normal  0.000000e+000  0.000000e+000 -1.000000e+000
    outer loop
      vertex  1.500000e+001 -5.000000e+000 -2.000000e+000
      vertex  1.433013e+001 -7.500000e+000 -2.000000e+000
      vertex  1.206066e+001 -5.939340e+000 -2.000000e+000
    endloop
  endfacet
  facet normal  0.000000e+000  0.000000e+000 -9.999999e-001
    outer loop
      vertex  1.206066e+001 -5.939340e+000 -2.000000e+000
      vertex  1.433013e+001 -7.500000e+000 -2.000000e+000
      vertex  1.250000e+001 -7.000000e+000 -2.000000e+000
    endloop
  endfacet
  facet normal  0.000000e+000  0.000000e+000 -1.000000e+000
    outer loop
      vertex  1.433013e+001 -7.500000e+000 -2.000000e+000
      vertex  1.250000e+001 -9.330127e+000 -2.000000e+000
      vertex  1.250000e+001 -7.000000e+000 -2.000000e+000
    endloop
  endfacet
  facet normal  0.000000e+000  -0.000000e+000 -1.000000e+000
    outer loop
      vertex  1.250000e+001 -7.000000e+000 -2.000000e+000
      vertex  1.250000e+001 -9.330127e+000 -2.000000e+000
      vertex  1.206066e+001 -8.060660e+000 -2.000000e+000
    endloop
  endfacet
  facet normal -9.999999e-001  0.000000e+000  0.000000e+000
    outer loop
      vertex -1.500000e+001 -5.000000e+000 -2.000000e+000
      vertex -1.500000e+001 -5.000000e+000  9.500000e+000
      vertex -1.500000e+001  5.000000e+000 -2.000000e+000
    endloop
  endfacet
  facet normal -9.999999e-001  0.000000e+000  0.000000e+000
    outer loop
      vertex -1.500000e+001  5.000000e+000 -2.000000e+000
      vertex -1.500000e+001 -5.000000e+000  9.500000e+000
      vertex -1.500000e+001  5.000000e+000  9.500000e+000
    endloop
  endfacet
  facet normal  0.000000e+000 -9.999999e-001  0.000000e+000
    outer loop
      vertex  1.000000e+001 -1.000000e+001  9.500000e+000
      vertex -1.000000e+001 -1.000000e+001  9.500000e+000
      vertex  1.000000e+001 -1.000000e+001 -2.000000e+000
    endloop
  endfacet
  facet normal  0.000000e+000 -9.999999e-001  0.000000e+000
    outer loop
      vertex  1.000000e+001 -1.000000e+001 -2.000000e+000
      vertex -1.000000e+001 -1.000000e+001  9.500000e+000
      vertex -1.000000e+001 -1.000000e+001 -2.000000e+000
    endloop
  endfacet
  facet normal -2.588192e-001 -9.659259e-001  -0.000000e+000
    outer loop
      vertex -1.000000e+001 -1.000000e+001 -2.000000e+000
      vertex -1.000000e+001 -1.000000e+001  9.500000e+000
      vertex -1.250000e+001 -9.330127e+000 -2.000000e+000
    endloop
  endfacet
  facet normal -2.588192e-001 -9.659259e-001  0.000000e+000
    outer loop
      vertex -1.250000e+001 -9.330127e+000 -2.000000e+000
      vertex -1.000000e+001 -1.000000e+001  9.500000e+000
      vertex -1.250000e+001 -9.330127e+000  9.500000e+000
    endloop
  endfacet
  facet normal -7.071068e-001 -7.071068e-001  -0.000000e+000
    outer loop
      vertex -1.250000e+001 -9.330127e+000 -2.000000e+000
      vertex -1.250000e+001 -9.330127e+000  9.500000e+000
      vertex -1.433013e+001 -7.500000e+000 -2.000000e+000
    endloop
  endfacet
  facet normal -7.071068e-001 -7.071068e-001  0.000000e+000
    outer loop
      vertex -1.433013e+001 -7.500000e+000 -2.000000e+000
      vertex -1.250000e+001 -9.330127e+000  9.500000e+000
      vertex -1.433013e+001 -7.500000e+000  9.500000e+000
    endloop
  endfacet
  facet normal -9.659259e-001 -2.588192e-001  -0.000000e+000
    outer loop
      vertex -1.433013e+001 -7.500000e+000 -2.000000e+000
      vertex -1.433013e+001 -7.500000e+000  9.500000e+000
      vertex -1.500000e+001 -5.000000e+000 -2.000000e+000
    endloop
  endfacet
  facet normal -9.659259e-001 -2.588192e-001  0.000000e+000
    outer loop
      vertex -1.500000e+001 -5.000000e+000 -2.000000e+000
      vertex -1.433013e+001 -7.500000e+000  9.500000e+000
      vertex -1.500000e+001 -5.000000e+000  9.500000e+000
    endloop
  endfacet
  facet normal  0.000000e+000  9.999999e-001  0.000000e+000
    outer loop
      vertex -1.000000e+001  1.000000e+001  9.500000e+000
      vertex  1.000000e+001  1.000000e+001  9.500000e+000
      vertex -1.000000e+001  1.000000e+001 -2.000000e+000
    endloop
  endfacet
  facet normal  0.000000e+000  9.999999e-001  0.000000e+000
    outer loop
      vertex -1.000000e+001  1.000000e+001 -2.000000e+000
      vertex  1.000000e+001  1.000000e+001  9.500000e+000
      vertex  1.000000e+001  1.000000e+001 -2.000000e+000
    endloop
  endfacet
  facet normal -9.659259e-001  2.588192e-001  0.000000e+000
    outer loop
      vertex -1.500000e+001  5.000000e+000 -2.000000e+000
      vertex -1.500000e+001  5.000000e+000  9.500000e+000
      vertex -1.433013e+001  7.500000e+000 -2.000000e+000
    endloop
  endfacet
  facet normal -9.659259e-001  2.588192e-001  0.000000e+000
    outer loop
      vertex -1.433013e+001  7.500000e+000 -2.000000e+000
      vertex -1.500000e+001  5.000000e+000  9.500000e+000
      vertex -1.433013e+001  7.500000e+000  9.500000e+000
    endloop
  endfacet
  facet normal -7.071068e-001  7.071068e-001  0.000000e+000
    outer loop
      vertex -1.433013e+001  7.500000e+000 -2.000000e+000
      vertex -1.433013e+001  7.500000e+000  9.500000e+000
      vertex -1.250000e+001  9.330127e+000 -2.000000e+000
    endloop
  endfacet
  facet normal -7.071068e-001  7.071068e-001  0.000000e+000
    outer loop
      vertex -1.250000e+001  9.330127e+000 -2.000000e+000
      vertex -1.433013e+001  7.500000e+000  9.500000e+000
      vertex -1.250000e+001  9.330127e+000  9.500000e+000
    endloop
  endfacet
  facet normal -2.588192e-001  9.659259e-001  0.000000e+000
    outer loop
      vertex -1.250000e+001  9.330127e+000 -2.000000e+000
      vertex -1.250000e+001  9.330127e+000  9.500000e+000
      vertex -1.000000e+001  1.000000e+001 -2.000000e+000
    endloop
  endfacet
  facet normal -2.588192e-001  9.659259e-001  0.000000e+000
    outer loop
      vertex -1.000000e+001  1.000000e+001 -2.000000e+000
      vertex -1.250000e+001  9.330127e+000  9.500000e+000
      vertex -1.000000e+001  1.000000e+001  9.500000e+000
    endloop
  endfacet
  facet normal  9.999999e-001  0.000000e+000  0.000000e+000
    outer loop
      vertex  1.500000e+001  5.000000e+000 -2.000000e+000
      vertex  1.500000e+001  5.000000e+000  9.500000e+000
      vertex  1.500000e+001 -5.000000e+000 -2.000000e+000
    endloop
  endfacet
  facet normal  9.999999e-001  0.000000e+000  0.000000e+000
    outer loop
      vertex  1.500000e+001 -5.000000e+000 -2.000000e+000
      vertex  1.500000e+001  5.000000e+000  9.500000e+000
      vertex  1.500000e+001 -5.000000e+000  9.500000e+000
    endloop
  endfacet
  facet normal  2.588192e-001  9.659259e-001  0.000000e+000
    outer loop
      vertex  1.000000e+001  1.000000e+001 -2.000000e+000
      vertex  1.000000e+001  1.000000e+001  9.500000e+000
      vertex  1.250000e+001  9.330127e+000 -2.000000e+000
    endloop
  endfacet
  facet normal  2.588192e-001  9.659259e-001  -0.000000e+000
    outer loop
      vertex  1.250000e+001  9.330127e+000 -2.000000e+000
      vertex  1.000000e+001  1.000000e+001  9.500000e+000
      vertex  1.250000e+001  9.330127e+000  9.500000e+000
    endloop
  endfacet
  facet normal  7.071068e-001  7.071068e-001  0.000000e+000
    outer loop
      vertex  1.250000e+001  9.330127e+000 -2.000000e+000
      vertex  1.250000e+001  9.330127e+000  9.500000e+000
      vertex  1.433013e+001  7.500000e+000 -2.000000e+000
    endloop
  endfacet
  facet normal  7.071068e-001  7.071068e-001  -0.000000e+000
    outer loop
      vertex  1.433013e+001  7.500000e+000 -2.000000e+000
      vertex  1.250000e+001  9.330127e+000  9.500000e+000
      vertex  1.433013e+001  7.500000e+000  9.500000e+000
    endloop
  endfacet
  facet normal  9.659259e-001  2.588192e-001  0.000000e+000
    outer loop
      vertex  1.433013e+001  7.500000e+000 -2.000000e+000
      vertex  1.433013e+001  7.500000e+000  9.500000e+000
      vertex  1.500000e+001  5.000000e+000 -2.000000e+000
    endloop
  endfacet
  facet normal  9.659259e-001  2.588192e-001  -0.000000e+000
    outer loop
      vertex  1.500000e+001  5.000000e+000 -2.000000e+000
      vertex  1.433013e+001  7.500000e+000  9.500000e+000
      vertex  1.500000e+001  5.000000e+000  9.500000e+000
    endloop
  endfacet
  facet normal  9.659259e-001 -2.588192e-001  0.000000e+000
    outer loop
      vertex  1.500000e+001 -5.000000e+000 -2.000000e+000
      vertex  1.500000e+001 -5.000000e+000  9.500000e+000
      vertex  1.433013e+001 -7.500000e+000 -2.000000e+000
    endloop
  endfacet
  facet normal  9.659259e-001 -2.588192e-001  0.000000e+000
    outer loop
      vertex  1.433013e+001 -7.500000e+000 -2.000000e+000
      vertex  1.500000e+001 -5.000000e+000  9.500000e+000
      vertex  1.433013e+001 -7.500000e+000  9.500000e+000
    endloop
  endfacet
  facet normal  7.071068e-001 -7.071068e-001  0.000000e+000
    outer loop
      vertex  1.433013e+001 -7.500000e+000 -2.000000e+000
      vertex  1.433013e+001 -7.500000e+000  9.500000e+000
      vertex  1.250000e+001 -9.330127e+000 -2.000000e+000
    endloop
  endfacet
  facet normal  7.071068e-001 -7.071068e-001  0.000000e+000
    outer loop
      vertex  1.250000e+001 -9.330127e+000 -2.000000e+000
      vertex  1.433013e+001 -7.500000e+000  9.500000e+000
      vertex  1.250000e+001 -9.330127e+000  9.500000e+000
    endloop
  endfacet
  facet normal  2.588192e-001 -9.659259e-001  0.000000e+000
    outer loop
      vertex  1.250000e+001 -9.330127e+000 -2.000000e+000
      vertex  1.250000e+001 -9.330127e+000  9.500000e+000
      vertex  1.000000e+001 -1.000000e+001 -2.000000e+000
    endloop
  endfacet
  facet normal  2.588192e-001 -9.659259e-001  0.000000e+000
    outer loop
      vertex  1.000000e+001 -1.000000e+001 -2.000000e+000
      vertex  1.250000e+001 -9.330127e+000  9.500000e+000
      vertex  1.000000e+001 -1.000000e+001  9.500000e+000
    endloop
  endfacet
  facet normal  -0.000000e+000  0.000000e+000 -1.000000e+000
    outer loop
      vertex  1.064645e+001 -7.353553e+000 -7.000000e+000
      vertex  1.135355e+001 -7.353553e+000 -7.000000e+000
      vertex  1.100000e+001 -7.500000e+000 -7.000000e+000
    endloop
  endfacet
  facet normal  0.000000e+000  0.000000e+000 -1.000000e+000
    outer loop
      vertex  1.135355e+001 -7.353553e+000 -7.000000e+000
      vertex  1.064645e+001 -7.353553e+000 -7.000000e+000
      vertex  1.150000e+001 -7.000000e+000 -7.000000e+000
    endloop
  endfacet
  facet normal  -0.000000e+000  0.000000e+000 -9.999999e-001
    outer loop
      vertex  1.150000e+001 -7.000000e+000 -7.000000e+000
      vertex  1.064645e+001 -7.353553e+000 -7.000000e+000
      vertex  1.050000e+001 -7.000000e+000 -7.000000e+000
    endloop
  endfacet
  facet normal  0.000000e+000  0.000000e+000 -9.999999e-001
    outer loop
      vertex  1.150000e+001 -7.000000e+000 -7.000000e+000
      vertex  1.050000e+001 -7.000000e+000 -7.000000e+000
      vertex  1.135355e+001 -6.646447e+000 -7.000000e+000
    endloop
  endfacet
  facet normal  -0.000000e+000  0.000000e+000 -1.000000e+000
    outer loop
      vertex  1.135355e+001 -6.646447e+000 -7.000000e+000
      vertex  1.050000e+001 -7.000000e+000 -7.000000e+000
      vertex  1.064645e+001 -6.646447e+000 -7.000000e+000
    endloop
  endfacet
  facet normal  0.000000e+000  0.000000e+000 -1.000000e+000
    outer loop
      vertex  1.135355e+001 -6.646447e+000 -7.000000e+000
      vertex  1.064645e+001 -6.646447e+000 -7.000000e+000
      vertex  1.100000e+001 -6.500000e+000 -7.000000e+000
    endloop
  endfacet
  facet normal  9.238796e-001  3.826832e-001  -0.000000e+000
    outer loop
      vertex  1.250000e+001 -7.000000e+000 -2.000000e+000
      vertex  1.250000e+001 -7.000000e+000 -6.000000e+000
      vertex  1.206066e+001 -5.939340e+000 -2.000000e+000
    endloop
  endfacet
  facet normal  9.238796e-001  3.826832e-001  0.000000e+000
    outer loop
      vertex  1.206066e+001 -5.939340e+000 -2.000000e+000
      vertex  1.250000e+001 -7.000000e+000 -6.000000e+000
      vertex  1.206066e+001 -5.939340e+000 -6.000000e+000
    endloop
  endfacet
  facet normal  3.826832e-001  9.238796e-001  -0.000000e+000
    outer loop
      vertex  1.206066e+001 -5.939340e+000 -2.000000e+000
      vertex  1.206066e+001 -5.939340e+000 -6.000000e+000
      vertex  1.100000e+001 -5.500000e+000 -2.000000e+000
    endloop
  endfacet
  facet normal  3.826832e-001  9.238796e-001  0.000000e+000
    outer loop
      vertex  1.100000e+001 -5.500000e+000 -2.000000e+000
      vertex  1.206066e+001 -5.939340e+000 -6.000000e+000
      vertex  1.100000e+001 -5.500000e+000 -6.000000e+000
    endloop
  endfacet
  facet normal -3.826832e-001  9.238796e-001  0.000000e+000
    outer loop
      vertex  1.100000e+001 -5.500000e+000 -2.000000e+000
      vertex  1.100000e+001 -5.500000e+000 -6.000000e+000
      vertex  9.939340e+000 -5.939340e+000 -2.000000e+000
    endloop
  endfacet
  facet normal -3.826832e-001  9.238796e-001  0.000000e+000
    outer loop
      vertex  9.939340e+000 -5.939340e+000 -2.000000e+000
      vertex  1.100000e+001 -5.500000e+000 -6.000000e+000
      vertex  9.939340e+000 -5.939340e+000 -6.000000e+000
    endloop
  endfacet
  facet normal -9.238796e-001  3.826832e-001  0.000000e+000
    outer loop
      vertex  9.939340e+000 -5.939340e+000 -2.000000e+000
      vertex  9.939340e+000 -5.939340e+000 -6.000000e+000
      vertex  9.500000e+000 -7.000000e+000 -2.000000e+000
    endloop
  endfacet
  facet normal -9.238796e-001  3.826832e-001  0.000000e+000
    outer loop
      vertex  9.500000e+000 -7.000000e+000 -2.000000e+000
      vertex  9.939340e+000 -5.939340e+000 -6.000000e+000
      vertex  9.500000e+000 -7.000000e+000 -6.000000e+000
    endloop
  endfacet
  facet normal -9.238796e-001 -3.826832e-001  0.000000e+000
    outer loop
      vertex  9.500000e+000 -7.000000e+000 -2.000000e+000
      vertex  9.500000e+000 -7.000000e+000 -6.000000e+000
      vertex  9.939340e+000 -8.060660e+000 -2.000000e+000
    endloop
  endfacet
  facet normal -9.238796e-001 -3.826832e-001  -0.000000e+000
    outer loop
      vertex  9.939340e+000 -8.060660e+000 -2.000000e+000
      vertex  9.500000e+000 -7.000000e+000 -6.000000e+000
      vertex  9.939340e+000 -8.060660e+000 -6.000000e+000
    endloop
  endfacet
  facet normal -3.826832e-001 -9.238796e-001  0.000000e+000
    outer loop
      vertex  9.939340e+000 -8.060660e+000 -2.000000e+000
      vertex  9.939340e+000 -8.060660e+000 -6.000000e+000
      vertex  1.100000e+001 -8.500000e+000 -2.000000e+000
    endloop
  endfacet
  facet normal -3.826832e-001 -9.238796e-001  -0.000000e+000
    outer loop
      vertex  1.100000e+001 -8.500000e+000 -2.000000e+000
      vertex  9.939340e+000 -8.060660e+000 -6.000000e+000
      vertex  1.100000e+001 -8.500000e+000 -6.000000e+000
    endloop
  endfacet
  facet normal  3.826832e-001 -9.238796e-001  0.000000e+000
    outer loop
      vertex  1.100000e+001 -8.500000e+000 -2.000000e+000
      vertex  1.100000e+001 -8.500000e+000 -6.000000e+000
      vertex  1.206066e+001 -8.060660e+000 -2.000000e+000
    endloop
  endfacet
  facet normal  3.826832e-001 -9.238796e-001  0.000000e+000
    outer loop
      vertex  1.206066e+001 -8.060660e+000 -2.000000e+000
      vertex  1.100000e+001 -8.500000e+000 -6.000000e+000
      vertex  1.206066e+001 -8.060660e+000 -6.000000e+000
    endloop
  endfacet
  facet normal  9.238796e-001 -3.826832e-001  0.000000e+000
    outer loop
      vertex  1.206066e+001 -8.060660e+000 -2.000000e+000
      vertex  1.206066e+001 -8.060660e+000 -6.000000e+000
      vertex  1.250000e+001 -7.000000e+000 -2.000000e+000
    endloop
  endfacet
  facet normal  9.238796e-001 -3.826832e-001  0.000000e+000
    outer loop
      vertex  1.250000e+001 -7.000000e+000 -2.000000e+000
      vertex  1.206066e+001 -8.060660e+000 -6.000000e+000
      vertex  1.250000e+001 -7.000000e+000 -6.000000e+000
    endloop
  endfacet
  facet normal -3.779648e-001 -1.565578e-001 -9.124869e-001
    outer loop
      vertex  1.050000e+001 -7.000000e+000 -7.000000e+000
      vertex  1.064645e+001 -7.353553e+000 -7.000000e+000
      vertex  9.792893e+000 -7.000000e+000 -6.707107e+000
    endloop
  endfacet
  facet normal -3.779649e-001 -1.565579e-001 -9.124868e-001
    outer loop
      vertex  9.792893e+000 -7.000000e+000 -6.707107e+000
      vertex  1.064645e+001 -7.353553e+000 -7.000000e+000
      vertex  1.014645e+001 -7.853553e+000 -6.707107e+000
    endloop
  endfacet
  facet normal -8.628563e-001 -3.574062e-001 -3.574071e-001
    outer loop
      vertex  9.792893e+000 -7.000000e+000 -6.707107e+000
      vertex  1.014645e+001 -7.853553e+000 -6.707107e+000
      vertex  9.500000e+000 -7.000000e+000 -6.000000e+000
    endloop
  endfacet
  facet normal -8.628563e-001 -3.574066e-001 -3.574067e-001
    outer loop
      vertex  9.500000e+000 -7.000000e+000 -6.000000e+000
      vertex  1.014645e+001 -7.853553e+000 -6.707107e+000
      vertex  9.939340e+000 -8.060660e+000 -6.000000e+000
    endloop
  endfacet
  facet normal  3.779649e-001 -1.565578e-001 -9.124868e-001
    outer loop
      vertex  1.135355e+001 -7.353553e+000 -7.000000e+000
      vertex  1.150000e+001 -7.000000e+000 -7.000000e+000
      vertex  1.185355e+001 -7.853553e+000 -6.707107e+000
    endloop
  endfacet
  facet normal  3.779648e-001 -1.565579e-001 -9.124869e-001
    outer loop
      vertex  1.185355e+001 -7.853553e+000 -6.707107e+000
      vertex  1.150000e+001 -7.000000e+000 -7.000000e+000
      vertex  1.220711e+001 -7.000000e+000 -6.707107e+000
    endloop
  endfacet
  facet normal  8.628564e-001 -3.574063e-001 -3.574067e-001
    outer loop
      vertex  1.185355e+001 -7.853553e+000 -6.707107e+000
      vertex  1.220711e+001 -7.000000e+000 -6.707107e+000
      vertex  1.206066e+001 -8.060660e+000 -6.000000e+000
    endloop
  endfacet
  facet normal  8.628562e-001 -3.574065e-001 -3.574071e-001
    outer loop
      vertex  1.206066e+001 -8.060660e+000 -6.000000e+000
      vertex  1.220711e+001 -7.000000e+000 -6.707107e+000
      vertex  1.250000e+001 -7.000000e+000 -6.000000e+000
    endloop
  endfacet
  facet normal  1.565581e-001 -3.779647e-001 -9.124868e-001
    outer loop
      vertex  1.100000e+001 -7.500000e+000 -7.000000e+000
      vertex  1.135355e+001 -7.353553e+000 -7.000000e+000
      vertex  1.100000e+001 -8.207107e+000 -6.707107e+000
    endloop
  endfacet
  facet normal  1.565580e-001 -3.779648e-001 -9.124869e-001
    outer loop
      vertex  1.100000e+001 -8.207107e+000 -6.707107e+000
      vertex  1.135355e+001 -7.353553e+000 -7.000000e+000
      vertex  1.185355e+001 -7.853553e+000 -6.707107e+000
    endloop
  endfacet
  facet normal  3.574065e-001 -8.628561e-001 -3.574071e-001
    outer loop
      vertex  1.100000e+001 -8.207107e+000 -6.707107e+000
      vertex  1.185355e+001 -7.853553e+000 -6.707107e+000
      vertex  1.100000e+001 -8.500000e+000 -6.000000e+000
    endloop
  endfacet
  facet normal  3.574065e-001 -8.628562e-001 -3.574070e-001
    outer loop
      vertex  1.100000e+001 -8.500000e+000 -6.000000e+000
      vertex  1.185355e+001 -7.853553e+000 -6.707107e+000
      vertex  1.206066e+001 -8.060660e+000 -6.000000e+000
    endloop
  endfacet
  facet normal -1.565581e-001 -3.779647e-001 -9.124869e-001
    outer loop
      vertex  1.064645e+001 -7.353553e+000 -7.000000e+000
      vertex  1.100000e+001 -7.500000e+000 -7.000000e+000
      vertex  1.014645e+001 -7.853553e+000 -6.707107e+000
    endloop
  endfacet
  facet normal -1.565580e-001 -3.779648e-001 -9.124869e-001
    outer loop
      vertex  1.014645e+001 -7.853553e+000 -6.707107e+000
      vertex  1.100000e+001 -7.500000e+000 -7.000000e+000
      vertex  1.100000e+001 -8.207107e+000 -6.707107e+000
    endloop
  endfacet
  facet normal -3.574065e-001 -8.628561e-001 -3.574070e-001
    outer loop
      vertex  1.014645e+001 -7.853553e+000 -6.707107e+000
      vertex  1.100000e+001 -8.207107e+000 -6.707107e+000
      vertex  9.939340e+000 -8.060660e+000 -6.000000e+000
    endloop
  endfacet
  facet normal -3.574065e-001 -8.628562e-001 -3.574071e-001
    outer loop
      vertex  9.939340e+000 -8.060660e+000 -6.000000e+000
      vertex  1.100000e+001 -8.207107e+000 -6.707107e+000
      vertex  1.100000e+001 -8.500000e+000 -6.000000e+000
    endloop
  endfacet
  facet normal  3.779648e-001  1.565578e-001 -9.124869e-001
    outer loop
      vertex  1.150000e+001 -7.000000e+000 -7.000000e+000
      vertex  1.135355e+001 -6.646447e+000 -7.000000e+000
      vertex  1.220711e+001 -7.000000e+000 -6.707107e+000
    endloop
  endfacet
  facet normal  3.779649e-001  1.565579e-001 -9.124868e-001
    outer loop
      vertex  1.220711e+001 -7.000000e+000 -6.707107e+000
      vertex  1.135355e+001 -6.646447e+000 -7.000000e+000
      vertex  1.185355e+001 -6.146447e+000 -6.707107e+000
    endloop
  endfacet
  facet normal  8.628563e-001  3.574062e-001 -3.574071e-001
    outer loop
      vertex  1.220711e+001 -7.000000e+000 -6.707107e+000
      vertex  1.185355e+001 -6.146447e+000 -6.707107e+000
      vertex  1.250000e+001 -7.000000e+000 -6.000000e+000
    endloop
  endfacet
  facet normal  8.628563e-001  3.574066e-001 -3.574067e-001
    outer loop
      vertex  1.250000e+001 -7.000000e+000 -6.000000e+000
      vertex  1.185355e+001 -6.146447e+000 -6.707107e+000
      vertex  1.206066e+001 -5.939340e+000 -6.000000e+000
    endloop
  endfacet
  facet normal -3.779649e-001  1.565578e-001 -9.124868e-001
    outer loop
      vertex  1.064645e+001 -6.646447e+000 -7.000000e+000
      vertex  1.050000e+001 -7.000000e+000 -7.000000e+000
      vertex  1.014645e+001 -6.146447e+000 -6.707107e+000
    endloop
  endfacet
  facet normal -3.779648e-001  1.565579e-001 -9.124869e-001
    outer loop
      vertex  1.014645e+001 -6.146447e+000 -6.707107e+000
      vertex  1.050000e+001 -7.000000e+000 -7.000000e+000
      vertex  9.792893e+000 -7.000000e+000 -6.707107e+000
    endloop
  endfacet
  facet normal -8.628564e-001  3.574063e-001 -3.574067e-001
    outer loop
      vertex  1.014645e+001 -6.146447e+000 -6.707107e+000
      vertex  9.792893e+000 -7.000000e+000 -6.707107e+000
      vertex  9.939340e+000 -5.939340e+000 -6.000000e+000
    endloop
  endfacet
  facet normal -8.628562e-001  3.574065e-001 -3.574071e-001
    outer loop
      vertex  9.939340e+000 -5.939340e+000 -6.000000e+000
      vertex  9.792893e+000 -7.000000e+000 -6.707107e+000
      vertex  9.500000e+000 -7.000000e+000 -6.000000e+000
    endloop
  endfacet
  facet normal -1.565581e-001  3.779647e-001 -9.124868e-001
    outer loop
      vertex  1.100000e+001 -6.500000e+000 -7.000000e+000
      vertex  1.064645e+001 -6.646447e+000 -7.000000e+000
      vertex  1.100000e+001 -5.792893e+000 -6.707107e+000
    endloop
  endfacet
  facet normal -1.565580e-001  3.779648e-001 -9.124869e-001
    outer loop
      vertex  1.100000e+001 -5.792893e+000 -6.707107e+000
      vertex  1.064645e+001 -6.646447e+000 -7.000000e+000
      vertex  1.014645e+001 -6.146447e+000 -6.707107e+000
    endloop
  endfacet
  facet normal -3.574065e-001  8.628561e-001 -3.574071e-001
    outer loop
      vertex  1.100000e+001 -5.792893e+000 -6.707107e+000
      vertex  1.014645e+001 -6.146447e+000 -6.707107e+000
      vertex  1.100000e+001 -5.500000e+000 -6.000000e+000
    endloop
  endfacet
  facet normal -3.574065e-001  8.628562e-001 -3.574070e-001
    outer loop
      vertex  1.100000e+001 -5.500000e+000 -6.000000e+000
      vertex  1.014645e+001 -6.146447e+000 -6.707107e+000
      vertex  9.939340e+000 -5.939340e+000 -6.000000e+000
    endloop
  endfacet
  facet normal  1.565581e-001  3.779647e-001 -9.124869e-001
    outer loop
      vertex  1.135355e+001 -6.646447e+000 -7.000000e+000
      vertex  1.100000e+001 -6.500000e+000 -7.000000e+000
      vertex  1.185355e+001 -6.146447e+000 -6.707107e+000
    endloop
  endfacet
  facet normal  1.565580e-001  3.779648e-001 -9.124869e-001
    outer loop
      vertex  1.185355e+001 -6.146447e+000 -6.707107e+000
      vertex  1.100000e+001 -6.500000e+000 -7.000000e+000
      vertex  1.100000e+001 -5.792893e+000 -6.707107e+000
    endloop
  endfacet
  facet normal  3.574065e-001  8.628561e-001 -3.574070e-001
    outer loop
      vertex  1.185355e+001 -6.146447e+000 -6.707107e+000
      vertex  1.100000e+001 -5.792893e+000 -6.707107e+000
      vertex  1.206066e+001 -5.939340e+000 -6.000000e+000
    endloop
  endfacet
  facet normal  3.574065e-001  8.628562e-001 -3.574071e-001
    outer loop
      vertex  1.206066e+001 -5.939340e+000 -6.000000e+000
      vertex  1.100000e+001 -5.792893e+000 -6.707107e+000
      vertex  1.100000e+001 -5.500000e+000 -6.000000e+000
    endloop
  endfacet
  facet normal  -0.000000e+000  0.000000e+000 -1.000000e+000
    outer loop
      vertex -1.135355e+001  6.646447e+000 -7.000000e+000
      vertex -1.064645e+001  6.646447e+000 -7.000000e+000
      vertex -1.100000e+001  6.500000e+000 -7.000000e+000
    endloop
  endfacet
  facet normal  0.000000e+000  0.000000e+000 -1.000000e+000
    outer loop
      vertex -1.064645e+001  6.646447e+000 -7.000000e+000
      vertex -1.135355e+001  6.646447e+000 -7.000000e+000
      vertex -1.050000e+001  7.000000e+000 -7.000000e+000
    endloop
  endfacet
  facet normal  -0.000000e+000  0.000000e+000 -9.999999e-001
    outer loop
      vertex -1.050000e+001  7.000000e+000 -7.000000e+000
      vertex -1.135355e+001  6.646447e+000 -7.000000e+000
      vertex -1.150000e+001  7.000000e+000 -7.000000e+000
    endloop
  endfacet
  facet normal  0.000000e+000  0.000000e+000 -9.999999e-001
    outer loop
      vertex -1.050000e+001  7.000000e+000 -7.000000e+000
      vertex -1.150000e+001  7.000000e+000 -7.000000e+000
      vertex -1.064645e+001  7.353553e+000 -7.000000e+000
    endloop
  endfacet
  facet normal  -0.000000e+000  0.000000e+000 -1.000000e+000
    outer loop
      vertex -1.064645e+001  7.353553e+000 -7.000000e+000
      vertex -1.150000e+001  7.000000e+000 -7.000000e+000
      vertex -1.135355e+001  7.353553e+000 -7.000000e+000
    endloop
  endfacet
  facet normal  0.000000e+000  0.000000e+000 -1.000000e+000
    outer loop
      vertex -1.064645e+001  7.353553e+000 -7.000000e+000
      vertex -1.135355e+001  7.353553e+000 -7.000000e+000
      vertex -1.100000e+001  7.500000e+000 -7.000000e+000
    endloop
  endfacet
  facet normal  9.238796e-001  3.826832e-001  -0.000000e+000
    outer loop
      vertex -9.500000e+000  7.000000e+000 -2.000000e+000
      vertex -9.500000e+000  7.000000e+000 -6.000000e+000
      vertex -9.939340e+000  8.060660e+000 -2.000000e+000
    endloop
  endfacet
  facet normal  9.238796e-001  3.826832e-001  0.000000e+000
    outer loop
      vertex -9.939340e+000  8.060660e+000 -2.000000e+000
      vertex -9.500000e+000  7.000000e+000 -6.000000e+000
      vertex -9.939340e+000  8.060660e+000 -6.000000e+000
    endloop
  endfacet
  facet normal  3.826832e-001  9.238796e-001  -0.000000e+000
    outer loop
      vertex -9.939340e+000  8.060660e+000 -2.000000e+000
      vertex -9.939340e+000  8.060660e+000 -6.000000e+000
      vertex -1.100000e+001  8.500000e+000 -2.000000e+000
    endloop
  endfacet
  facet normal  3.826832e-001  9.238796e-001  0.000000e+000
    outer loop
      vertex -1.100000e+001  8.500000e+000 -2.000000e+000
      vertex -9.939340e+000  8.060660e+000 -6.000000e+000
      vertex -1.100000e+001  8.500000e+000 -6.000000e+000
    endloop
  endfacet
  facet normal -3.826832e-001  9.238796e-001  0.000000e+000
    outer loop
      vertex -1.100000e+001  8.500000e+000 -2.000000e+000
      vertex -1.100000e+001  8.500000e+000 -6.000000e+000
      vertex -1.206066e+001  8.060660e+000 -2.000000e+000
    endloop
  endfacet
  facet normal -3.826832e-001  9.238796e-001  0.000000e+000
    outer loop
      vertex -1.206066e+001  8.060660e+000 -2.000000e+000
      vertex -1.100000e+001  8.500000e+000 -6.000000e+000
      vertex -1.206066e+001  8.060660e+000 -6.000000e+000
    endloop
  endfacet
  facet normal -9.238796e-001  3.826832e-001  0.000000e+000
    outer loop
      vertex -1.206066e+001  8.060660e+000 -2.000000e+000
      vertex -1.206066e+001  8.060660e+000 -6.000000e+000
      vertex -1.250000e+001  7.000000e+000 -2.000000e+000
    endloop
  endfacet
  facet normal -9.238796e-001  3.826832e-001  0.000000e+000
    outer loop
      vertex -1.250000e+001  7.000000e+000 -2.000000e+000
      vertex -1.206066e+001  8.060660e+000 -6.000000e+000
      vertex -1.250000e+001  7.000000e+000 -6.000000e+000
    endloop
  endfacet
  facet normal -9.238796e-001 -3.826832e-001  0.000000e+000
    outer loop
      vertex -1.250000e+001  7.000000e+000 -2.000000e+000
      vertex -1.250000e+001  7.000000e+000 -6.000000e+000
      vertex -1.206066e+001  5.939340e+000 -2.000000e+000
    endloop
  endfacet
  facet normal -9.238796e-001 -3.826832e-001  -0.000000e+000
    outer loop
      vertex -1.206066e+001  5.939340e+000 -2.000000e+000
      vertex -1.250000e+001  7.000000e+000 -6.000000e+000
      vertex -1.206066e+001  5.939340e+000 -6.000000e+000
    endloop
  endfacet
  facet normal -3.826832e-001 -9.238796e-001  0.000000e+000
    outer loop
      vertex -1.206066e+001  5.939340e+000 -2.000000e+000
      vertex -1.206066e+001  5.939340e+000 -6.000000e+000
      vertex -1.100000e+001  5.500000e+000 -2.000000e+000
    endloop
  endfacet
  facet normal -3.826832e-001 -9.238796e-001  -0.000000e+000
    outer loop
      vertex -1.100000e+001  5.500000e+000 -2.000000e+000
      vertex -1.206066e+001  5.939340e+000 -6.000000e+000
      vertex -1.100000e+001  5.500000e+000 -6.000000e+000
    endloop
  endfacet
  facet normal  3.826832e-001 -9.238796e-001  0.000000e+000
    outer loop
      vertex -1.100000e+001  5.500000e+000 -2.000000e+000
      vertex -1.100000e+001  5.500000e+000 -6.000000e+000
      vertex -9.939340e+000  5.939340e+000 -2.000000e+000
    endloop
  endfacet
  facet normal  3.826832e-001 -9.238796e-001  0.000000e+000
    outer loop
      vertex -9.939340e+000  5.939340e+000 -2.000000e+000
      vertex -1.100000e+001  5.500000e+000 -6.000000e+000
      vertex -9.939340e+000  5.939340e+000 -6.000000e+000
    endloop
  endfacet
  facet normal  9.238796e-001 -3.826832e-001  0.000000e+000
    outer loop
      vertex -9.939340e+000  5.939340e+000 -2.000000e+000
      vertex -9.939340e+000  5.939340e+000 -6.000000e+000
      vertex -9.500000e+000  7.000000e+000 -2.000000e+000
    endloop
  endfacet
  facet normal  9.238796e-001 -3.826832e-001  0.000000e+000
    outer loop
      vertex -9.500000e+000  7.000000e+000 -2.000000e+000
      vertex -9.939340e+000  5.939340e+000 -6.000000e+000
      vertex -9.500000e+000  7.000000e+000 -6.000000e+000
    endloop
  endfacet
  facet normal -3.779648e-001 -1.565578e-001 -9.124869e-001
    outer loop
      vertex -1.150000e+001  7.000000e+000 -7.000000e+000
      vertex -1.135355e+001  6.646447e+000 -7.000000e+000
      vertex -1.220711e+001  7.000000e+000 -6.707107e+000
    endloop
  endfacet
  facet normal -3.779649e-001 -1.565579e-001 -9.124868e-001
    outer loop
      vertex -1.220711e+001  7.000000e+000 -6.707107e+000
      vertex -1.135355e+001  6.646447e+000 -7.000000e+000
      vertex -1.185355e+001  6.146447e+000 -6.707107e+000
    endloop
  endfacet
  facet normal -8.628563e-001 -3.574062e-001 -3.574071e-001
    outer loop
      vertex -1.220711e+001  7.000000e+000 -6.707107e+000
      vertex -1.185355e+001  6.146447e+000 -6.707107e+000
      vertex -1.250000e+001  7.000000e+000 -6.000000e+000
    endloop
  endfacet
  facet normal -8.628563e-001 -3.574066e-001 -3.574067e-001
    outer loop
      vertex -1.250000e+001  7.000000e+000 -6.000000e+000
      vertex -1.185355e+001  6.146447e+000 -6.707107e+000
      vertex -1.206066e+001  5.939340e+000 -6.000000e+000
    endloop
  endfacet
  facet normal  3.779649e-001 -1.565578e-001 -9.124868e-001
    outer loop
      vertex -1.064645e+001  6.646447e+000 -7.000000e+000
      vertex -1.050000e+001  7.000000e+000 -7.000000e+000
      vertex -1.014645e+001  6.146447e+000 -6.707107e+000
    endloop
  endfacet
  facet normal  3.779648e-001 -1.565579e-001 -9.124869e-001
    outer loop
      vertex -1.014645e+001  6.146447e+000 -6.707107e+000
      vertex -1.050000e+001  7.000000e+000 -7.000000e+000
      vertex -9.792893e+000  7.000000e+000 -6.707107e+000
    endloop
  endfacet
  facet normal  8.628564e-001 -3.574063e-001 -3.574067e-001
    outer loop
      vertex -1.014645e+001  6.146447e+000 -6.707107e+000
      vertex -9.792893e+000  7.000000e+000 -6.707107e+000
      vertex -9.939340e+000  5.939340e+000 -6.000000e+000
    endloop
  endfacet
  facet normal  8.628562e-001 -3.574065e-001 -3.574071e-001
    outer loop
      vertex -9.939340e+000  5.939340e+000 -6.000000e+000
      vertex -9.792893e+000  7.000000e+000 -6.707107e+000
      vertex -9.500000e+000  7.000000e+000 -6.000000e+000
    endloop
  endfacet
  facet normal  1.565581e-001 -3.779647e-001 -9.124868e-001
    outer loop
      vertex -1.100000e+001  6.500000e+000 -7.000000e+000
      vertex -1.064645e+001  6.646447e+000 -7.000000e+000
      vertex -1.100000e+001  5.792893e+000 -6.707107e+000
    endloop
  endfacet
  facet normal  1.565580e-001 -3.779648e-001 -9.124869e-001
    outer loop
      vertex -1.100000e+001  5.792893e+000 -6.707107e+000
      vertex -1.064645e+001  6.646447e+000 -7.000000e+000
      vertex -1.014645e+001  6.146447e+000 -6.707107e+000
    endloop
  endfacet
  facet normal  3.574065e-001 -8.628561e-001 -3.574071e-001
    outer loop
      vertex -1.100000e+001  5.792893e+000 -6.707107e+000
      vertex -1.014645e+001  6.146447e+000 -6.707107e+000
      vertex -1.100000e+001  5.500000e+000 -6.000000e+000
    endloop
  endfacet
  facet normal  3.574065e-001 -8.628562e-001 -3.574070e-001
    outer loop
      vertex -1.100000e+001  5.500000e+000 -6.000000e+000
      vertex -1.014645e+001  6.146447e+000 -6.707107e+000
      vertex -9.939340e+000  5.939340e+000 -6.000000e+000
    endloop
  endfacet
  facet normal -1.565581e-001 -3.779647e-001 -9.124869e-001
    outer loop
      vertex -1.135355e+001  6.646447e+000 -7.000000e+000
      vertex -1.100000e+001  6.500000e+000 -7.000000e+000
      vertex -1.185355e+001  6.146447e+000 -6.707107e+000
    endloop
  endfacet
  facet normal -1.565580e-001 -3.779648e-001 -9.124869e-001
    outer loop
      vertex -1.185355e+001  6.146447e+000 -6.707107e+000
      vertex -1.100000e+001  6.500000e+000 -7.000000e+000
      vertex -1.100000e+001  5.792893e+000 -6.707107e+000
    endloop
  endfacet
  facet normal -3.574065e-001 -8.628561e-001 -3.574070e-001
    outer loop
      vertex -1.185355e+001  6.146447e+000 -6.707107e+000
      vertex -1.100000e+001  5.792893e+000 -6.707107e+000
      vertex -1.206066e+001  5.939340e+000 -6.000000e+000
    endloop
  endfacet
  facet normal -3.574065e-001 -8.628562e-001 -3.574071e-001
    outer loop
      vertex -1.206066e+001  5.939340e+000 -6.000000e+000
      vertex -1.100000e+001  5.792893e+000 -6.707107e+000
      vertex -1.100000e+001  5.500000e+000 -6.000000e+000
    endloop
  endfacet
  facet normal  3.779648e-001  1.565578e-001 -9.124869e-001
    outer loop
      vertex -1.050000e+001  7.000000e+000 -7.000000e+000
      vertex -1.064645e+001  7.353553e+000 -7.000000e+000
      vertex -9.792893e+000  7.000000e+000 -6.707107e+000
    endloop
  endfacet
  facet normal  3.779649e-001  1.565579e-001 -9.124868e-001
    outer loop
      vertex -9.792893e+000  7.000000e+000 -6.707107e+000
      vertex -1.064645e+001  7.353553e+000 -7.000000e+000
      vertex -1.014645e+001  7.853553e+000 -6.707107e+000
    endloop
  endfacet
  facet normal  8.628563e-001  3.574062e-001 -3.574071e-001
    outer loop
      vertex -9.792893e+000  7.000000e+000 -6.707107e+000
      vertex -1.014645e+001  7.853553e+000 -6.707107e+000
      vertex -9.500000e+000  7.000000e+000 -6.000000e+000
    endloop
  endfacet
  facet normal  8.628563e-001  3.574066e-001 -3.574067e-001
    outer loop
      vertex -9.500000e+000  7.000000e+000 -6.000000e+000
      vertex -1.014645e+001  7.853553e+000 -6.707107e+000
      vertex -9.939340e+000  8.060660e+000 -6.000000e+000
    endloop
  endfacet
  facet normal -3.779649e-001  1.565578e-001 -9.124868e-001
    outer loop
      vertex -1.135355e+001  7.353553e+000 -7.000000e+000
      vertex -1.150000e+001  7.000000e+000 -7.000000e+000
      vertex -1.185355e+001  7.853553e+000 -6.707107e+000
    endloop
  endfacet
  facet normal -3.779648e-001  1.565579e-001 -9.124869e-001
    outer loop
      vertex -1.185355e+001  7.853553e+000 -6.707107e+000
      vertex -1.150000e+001  7.000000e+000 -7.000000e+000
      vertex -1.220711e+001  7.000000e+000 -6.707107e+000
    endloop
  endfacet
  facet normal -8.628564e-001  3.574063e-001 -3.574067e-001
    outer loop
      vertex -1.185355e+001  7.853553e+000 -6.707107e+000
      vertex -1.220711e+001  7.000000e+000 -6.707107e+000
      vertex -1.206066e+001  8.060660e+000 -6.000000e+000
    endloop
  endfacet
  facet normal -8.628562e-001  3.574065e-001 -3.574071e-001
    outer loop
      vertex -1.206066e+001  8.060660e+000 -6.000000e+000
      vertex -1.220711e+001  7.000000e+000 -6.707107e+000
      vertex -1.250000e+001  7.000000e+000 -6.000000e+000
    endloop
  endfacet
  facet normal -1.565581e-001  3.779647e-001 -9.124868e-001
    outer loop
      vertex -1.100000e+001  7.500000e+000 -7.000000e+000
      vertex -1.135355e+001  7.353553e+000 -7.000000e+000
      vertex -1.100000e+001  8.207107e+000 -6.707107e+000
    endloop
  endfacet
  facet normal -1.565580e-001  3.779648e-001 -9.124869e-001
    outer loop
      vertex -1.100000e+001  8.207107e+000 -6.707107e+000
      vertex -1.135355e+001  7.353553e+000 -7.000000e+000
      vertex -1.185355e+001  7.853553e+000 -6.707107e+000
    endloop
  endfacet
  facet normal -3.574065e-001  8.628561e-001 -3.574071e-001
    outer loop
      vertex -1.100000e+001  8.207107e+000 -6.707107e+000
      vertex -1.185355e+001  7.853553e+000 -6.707107e+000
      vertex -1.100000e+001  8.500000e+000 -6.000000e+000
    endloop
  endfacet
  facet normal -3.574065e-001  8.628562e-001 -3.574070e-001
    outer loop
      vertex -1.100000e+001  8.500000e+000 -6.000000e+000
      vertex -1.185355e+001  7.853553e+000 -6.707107e+000
      vertex -1.206066e+001  8.060660e+000 -6.000000e+000
    endloop
  endfacet
  facet normal  1.565581e-001  3.779647e-001 -9.124869e-001
    outer loop
      vertex -1.064645e+001  7.353553e+000 -7.000000e+000
      vertex -1.100000e+001  7.500000e+000 -7.000000e+000
      vertex -1.014645e+001  7.853553e+000 -6.707107e+000
    endloop
  endfacet
  facet normal  1.565580e-001  3.779648e-001 -9.124869e-001
    outer loop
      vertex -1.014645e+001  7.853553e+000 -6.707107e+000
      vertex -1.100000e+001  7.500000e+000 -7.000000e+000
      vertex -1.100000e+001  8.207107e+000 -6.707107e+000
    endloop
  endfacet
  facet normal  3.574065e-001  8.628561e-001 -3.574070e-001
    outer loop
      vertex -1.014645e+001  7.853553e+000 -6.707107e+000
      vertex -1.100000e+001  8.207107e+000 -6.707107e+000
      vertex -9.939340e+000  8.060660e+000 -6.000000e+000
    endloop
  endfacet
  facet normal  3.574065e-001  8.628562e-001 -3.574071e-001
    outer loop
      vertex -9.939340e+000  8.060660e+000 -6.000000e+000
      vertex -1.100000e+001  8.207107e+000 -6.707107e+000
      vertex -1.100000e+001  8.500000e+000 -6.000000e+000
    endloop
  endfacet
  facet normal  0.000000e+000 -1.000000e+000  0.000000e+000
    outer loop
      vertex -2.000000e+000  1.500000e+000  0.000000e+000
      vertex  2.000000e+000  1.500000e+000  0.000000e+000
      vertex -2.000000e+000  1.500000e+000  9.500000e+000
    endloop
  endfacet
  facet normal  0.000000e+000 -1.000000e+000  0.000000e+000
    outer loop
      vertex -2.000000e+000  1.500000e+000  9.500000e+000
      vertex  2.000000e+000  1.500000e+000  0.000000e+000
      vertex  2.000000e+000  1.500000e+000  9.500000e+000
    endloop
  endfacet
  facet normal  0.000000e+000  1.000000e+000  0.000000e+000
    outer loop
      vertex  2.000000e+000 -1.500000e+000  0.000000e+000
      vertex -2.000000e+000 -1.500000e+000  0.000000e+000
      vertex  2.000000e+000 -1.500000e+000  9.500000e+000
    endloop
  endfacet
  facet normal  0.000000e+000  1.000000e+000  0.000000e+000
    outer loop
      vertex  2.000000e+000 -1.500000e+000  9.500000e+000
      vertex -2.000000e+000 -1.500000e+000  0.000000e+000
      vertex -2.000000e+000 -1.500000e+000  9.500000e+000
    endloop
  endfacet
  facet normal -9.486833e-001 -3.162278e-001  0.000000e+000
    outer loop
      vertex  2.500000e+000  0.000000e+000  9.500000e+000
      vertex  2.000000e+000  1.500000e+000  9.500000e+000
      vertex  2.500000e+000  0.000000e+000  0.000000e+000
    endloop
  endfacet
  facet normal -9.486833e-001 -3.162278e-001  0.000000e+000
    outer loop
      vertex  2.500000e+000  0.000000e+000  0.000000e+000
      vertex  2.000000e+000  1.500000e+000  9.500000e+000
      vertex  2.000000e+000  1.500000e+000  0.000000e+000
    endloop
  endfacet
  facet normal  9.486833e-001 -3.162278e-001  0.000000e+000
    outer loop
      vertex -2.000000e+000  1.500000e+000  9.500000e+000
      vertex -2.500000e+000  3.061516e-016  9.500000e+000
      vertex -2.000000e+000  1.500000e+000  0.000000e+000
    endloop
  endfacet
  facet normal  9.486833e-001 -3.162278e-001  0.000000e+000
    outer loop
      vertex -2.000000e+000  1.500000e+000  0.000000e+000
      vertex -2.500000e+000  3.061516e-016  9.500000e+000
      vertex -2.500000e+000  3.061516e-016  0.000000e+000
    endloop
  endfacet
  facet normal  9.486833e-001  3.162278e-001  0.000000e+000
    outer loop
      vertex -2.500000e+000  3.061516e-016  9.500000e+000
      vertex -2.000000e+000 -1.500000e+000  9.500000e+000
      vertex -2.500000e+000  3.061516e-016  0.000000e+000
    endloop
  endfacet
  facet normal  9.486833e-001  3.162278e-001  0.000000e+000
    outer loop
      vertex -2.500000e+000  3.061516e-016  0.000000e+000
      vertex -2.000000e+000 -1.500000e+000  9.500000e+000
      vertex -2.000000e+000 -1.500000e+000  0.000000e+000
    endloop
  endfacet
  facet normal -9.486833e-001  3.162278e-001  0.000000e+000
    outer loop
      vertex  2.000000e+000 -1.500000e+000  9.500000e+000
      vertex  2.500000e+000  0.000000e+000  9.500000e+000
      vertex  2.000000e+000 -1.500000e+000  0.000000e+000
    endloop
  endfacet
  facet normal -9.486833e-001  3.162278e-001  0.000000e+000
    outer loop
      vertex  2.000000e+000 -1.500000e+000  0.000000e+000
      vertex  2.500000e+000  0.000000e+000  9.500000e+000
      vertex  2.500000e+000  0.000000e+000  0.000000e+000
    endloop
  endfacet
  facet normal  -0.000000e+000  0.000000e+000  1.000000e+000
    outer loop
      vertex  2.000000e+000  1.500000e+000  0.000000e+000
      vertex -2.000000e+000  1.500000e+000  0.000000e+000
      vertex  2.500000e+000  0.000000e+000  0.000000e+000
    endloop
  endfacet
  facet normal  0.000000e+000  0.000000e+000  1.000000e+000
    outer loop
      vertex  2.500000e+000  0.000000e+000  0.000000e+000
      vertex -2.000000e+000  1.500000e+000  0.000000e+000
      vertex -2.500000e+000  3.061516e-016  0.000000e+000
    endloop
  endfacet
  facet normal  0.000000e+000  0.000000e+000  1.000000e+000
    outer loop
      vertex  2.500000e+000  0.000000e+000  0.000000e+000
      vertex -2.500000e+000  3.061516e-016  0.000000e+000
      vertex  2.000000e+000 -1.500000e+000  0.000000e+000
    endloop
  endfacet
  facet normal  0.000000e+000  0.000000e+000  1.000000e+000
    outer loop
      vertex  2.000000e+000 -1.500000e+000  0.000000e+000
      vertex -2.500000e+000  3.061516e-016  0.000000e+000
      vertex -2.000000e+000 -1.500000e+000  0.000000e+000
    endloop
  endfacet
endsolid CATIA STL
