solid CATIA STL
  facet normal -1.000000e+000  0.000000e+000  -0.000000e+000
    outer loop
      vertex -6.000000e+000 -3.000000e+000 -6.000000e+000
      vertex -6.000000e+000  3.000000e+000 -3.583455e+000
      vertex -6.000000e+000  3.000000e+000 -6.000000e+000
    endloop
  endfacet
  facet normal -1.000000e+000  0.000000e+000  0.000000e+000
    outer loop
      vertex -6.000000e+000  3.000000e+000 -3.583455e+000
      vertex -6.000000e+000 -3.000000e+000 -6.000000e+000
      vertex -6.000000e+000  1.000000e+000 -3.583455e+000
    endloop
  endfacet
  facet normal -1.000000e+000  -0.000000e+000  0.000000e+000
    outer loop
      vertex -6.000000e+000  1.000000e+000 -3.583455e+000
      vertex -6.000000e+000 -3.000000e+000 -6.000000e+000
      vertex -6.000000e+000 -3.000000e+000  0.000000e+000
    endloop
  endfacet
  facet normal -1.000000e+000  0.000000e+000  0.000000e+000
    outer loop
      vertex -6.000000e+000  1.000000e+000 -3.583455e+000
      vertex -6.000000e+000 -3.000000e+000  0.000000e+000
      vertex -6.000000e+000  1.000000e+000 -1.751019e+000
    endloop
  endfacet
  facet normal -9.999999e-001  0.000000e+000  0.000000e+000
    outer loop
      vertex -6.000000e+000  1.000000e+000 -1.751019e+000
      vertex -6.000000e+000 -3.000000e+000  0.000000e+000
      vertex -6.000000e+000  3.000000e+000  0.000000e+000
    endloop
  endfacet
  facet normal -1.000000e+000  0.000000e+000  -0.000000e+000
    outer loop
      vertex -6.000000e+000  1.000000e+000 -1.751019e+000
      vertex -6.000000e+000  3.000000e+000  0.000000e+000
      vertex -6.000000e+000  3.000000e+000 -1.751019e+000
    endloop
  endfacet
  facet normal  9.999999e-001  0.000000e+000  -0.000000e+000
    outer loop
      vertex  6.000000e+000 -3.000000e+000  0.000000e+000
      vertex  6.000000e+000  3.000000e+000 -1.751019e+000
      vertex  6.000000e+000  3.000000e+000  0.000000e+000
    endloop
  endfacet
  facet normal  1.000000e+000  0.000000e+000  0.000000e+000
    outer loop
      vertex  6.000000e+000  3.000000e+000 -1.751019e+000
      vertex  6.000000e+000 -3.000000e+000  0.000000e+000
      vertex  6.000000e+000  1.000000e+000 -1.751019e+000
    endloop
  endfacet
  facet normal  1.000000e+000  0.000000e+000  0.000000e+000
    outer loop
      vertex  6.000000e+000  1.000000e+000 -1.751019e+000
      vertex  6.000000e+000 -3.000000e+000  0.000000e+000
      vertex  6.000000e+000 -3.000000e+000 -6.000000e+000
    endloop
  endfacet
  facet normal  1.000000e+000  0.000000e+000  0.000000e+000
    outer loop
      vertex  6.000000e+000  1.000000e+000 -1.751019e+000
      vertex  6.000000e+000 -3.000000e+000 -6.000000e+000
      vertex  6.000000e+000  1.000000e+000 -3.583455e+000
    endloop
  endfacet
  facet normal  1.000000e+000  0.000000e+000  0.000000e+000
    outer loop
      vertex  6.000000e+000  1.000000e+000 -3.583455e+000
      vertex  6.000000e+000 -3.000000e+000 -6.000000e+000
      vertex  6.000000e+000  3.000000e+000 -6.000000e+000
    endloop
  endfacet
  facet normal  1.000000e+000  0.000000e+000  -0.000000e+000
    outer loop
      vertex  6.000000e+000  1.000000e+000 -3.583455e+000
      vertex  6.000000e+000  3.000000e+000 -6.000000e+000
      vertex  6.000000e+000  3.000000e+000 -3.583455e+000
    endloop
  endfacet
  facet normal  0.000000e+000  1.000000e+000  0.000000e+000
    outer loop
      vertex  6.000000e+000  3.000000e+000 -6.000000e+000
      vertex -6.000000e+000  3.000000e+000 -6.000000e+000
      vertex  6.000000e+000  3.000000e+000 -3.583455e+000
    endloop
  endfacet
  facet normal  0.000000e+000  1.000000e+000  0.000000e+000
    outer loop
      vertex  6.000000e+000  3.000000e+000 -3.583455e+000
      vertex -6.000000e+000  3.000000e+000 -6.000000e+000
      vertex -6.000000e+000  3.000000e+000 -3.583455e+000
    endloop
  endfacet
  facet normal  0.000000e+000  9.999999e-001  0.000000e+000
    outer loop
      vertex  6.000000e+000  3.000000e+000 -1.751019e+000
      vertex -6.000000e+000  3.000000e+000 -1.751019e+000
      vertex  6.000000e+000  3.000000e+000  0.000000e+000
    endloop
  endfacet
  facet normal  0.000000e+000  9.999999e-001  0.000000e+000
    outer loop
      vertex  6.000000e+000  3.000000e+000  0.000000e+000
      vertex -6.000000e+000  3.000000e+000 -1.751019e+000
      vertex -6.000000e+000  3.000000e+000  0.000000e+000
    endloop
  endfacet
  facet normal  0.000000e+000  1.000000e+000  0.000000e+000
    outer loop
      vertex  6.000000e+000  1.000000e+000 -3.583455e+000
      vertex -6.000000e+000  1.000000e+000 -3.583455e+000
      vertex  6.000000e+000  1.000000e+000 -1.751019e+000
    endloop
  endfacet
  facet normal  0.000000e+000  1.000000e+000  0.000000e+000
    outer loop
      vertex  6.000000e+000  1.000000e+000 -1.751019e+000
      vertex -6.000000e+000  1.000000e+000 -3.583455e+000
      vertex -6.000000e+000  1.000000e+000 -1.751019e+000
    endloop
  endfacet
  facet normal  0.000000e+000  0.000000e+000 -1.000000e+000
    outer loop
      vertex  6.000000e+000  1.000000e+000 -1.751019e+000
      vertex -6.000000e+000  1.000000e+000 -1.751019e+000
      vertex  6.000000e+000  3.000000e+000 -1.751019e+000
    endloop
  endfacet
  facet normal  -0.000000e+000  0.000000e+000 -1.000000e+000
    outer loop
      vertex  6.000000e+000  3.000000e+000 -1.751019e+000
      vertex -6.000000e+000  1.000000e+000 -1.751019e+000
      vertex -6.000000e+000  3.000000e+000 -1.751019e+000
    endloop
  endfacet
  facet normal  0.000000e+000  0.000000e+000  1.000000e+000
    outer loop
      vertex  6.000000e+000  1.000000e+000 -3.583455e+000
      vertex  6.000000e+000  3.000000e+000 -3.583455e+000
      vertex -6.000000e+000  1.000000e+000 -3.583455e+000
    endloop
  endfacet
  facet normal  0.000000e+000  0.000000e+000  1.000000e+000
    outer loop
      vertex -6.000000e+000  1.000000e+000 -3.583455e+000
      vertex  6.000000e+000  3.000000e+000 -3.583455e+000
      vertex -6.000000e+000  3.000000e+000 -3.583455e+000
    endloop
  endfacet
  facet normal  0.000000e+000  0.000000e+000 -1.000000e+000
    outer loop
      vertex  3.050000e+001 -3.487000e+000  0.000000e+000
      vertex  2.650000e+001 -3.487000e+000  0.000000e+000
      vertex  6.000000e+000 -3.000000e+000  0.000000e+000
    endloop
  endfacet
  facet normal  0.000000e+000  0.000000e+000 -1.000000e+000
    outer loop
      vertex -2.650000e+001  1.513000e+000  0.000000e+000
      vertex -2.650000e+001  1.851350e+001  0.000000e+000
      vertex -6.000000e+000  3.000000e+000  0.000000e+000
    endloop
  endfacet
  facet normal  0.000000e+000  -0.000000e+000 -9.999999e-001
    outer loop
      vertex -2.650000e+001  1.513000e+000  0.000000e+000
      vertex -6.000000e+000  3.000000e+000  0.000000e+000
      vertex -6.000000e+000 -3.000000e+000  0.000000e+000
    endloop
  endfacet
  facet normal  -0.000000e+000  0.000000e+000 -1.000000e+000
    outer loop
      vertex -2.650000e+001  1.513000e+000  0.000000e+000
      vertex -6.000000e+000 -3.000000e+000  0.000000e+000
      vertex -3.050000e+001 -3.487000e+000  0.000000e+000
    endloop
  endfacet
  facet normal  0.000000e+000  0.000000e+000 -1.000000e+000
    outer loop
      vertex -2.650000e+001  1.513000e+000  0.000000e+000
      vertex -3.050000e+001 -3.487000e+000  0.000000e+000
      vertex -3.050000e+001  1.513000e+000  0.000000e+000
    endloop
  endfacet
  facet normal  -0.000000e+000  -0.000000e+000 -1.000000e+000
    outer loop
      vertex  2.650000e+001  1.513000e+000  0.000000e+000
      vertex  3.050000e+001  1.513000e+000  0.000000e+000
      vertex  3.050000e+001 -3.487000e+000  0.000000e+000
    endloop
  endfacet
  facet normal  0.000000e+000  0.000000e+000 -1.000000e+000
    outer loop
      vertex  2.650000e+001  1.513000e+000  0.000000e+000
      vertex  3.050000e+001 -3.487000e+000  0.000000e+000
      vertex  6.000000e+000 -3.000000e+000  0.000000e+000
    endloop
  endfacet
  facet normal  0.000000e+000  0.000000e+000 -9.999999e-001
    outer loop
      vertex  2.650000e+001  1.513000e+000  0.000000e+000
      vertex  6.000000e+000 -3.000000e+000  0.000000e+000
      vertex  6.000000e+000  3.000000e+000  0.000000e+000
    endloop
  endfacet
  facet normal  0.000000e+000  0.000000e+000 -1.000000e+000
    outer loop
      vertex  2.650000e+001  1.513000e+000  0.000000e+000
      vertex  6.000000e+000  3.000000e+000  0.000000e+000
      vertex  2.650000e+001  1.851350e+001  0.000000e+000
    endloop
  endfacet
  facet normal  0.000000e+000  0.000000e+000 -1.000000e+000
    outer loop
      vertex -3.050000e+001 -3.487000e+000  0.000000e+000
      vertex -6.000000e+000 -3.000000e+000  0.000000e+000
      vertex -2.650000e+001 -3.487000e+000  0.000000e+000
    endloop
  endfacet
  facet normal  0.000000e+000  0.000000e+000 -1.000000e+000
    outer loop
      vertex -2.650000e+001 -3.487000e+000  0.000000e+000
      vertex -6.000000e+000 -3.000000e+000  0.000000e+000
      vertex  6.000000e+000 -3.000000e+000  0.000000e+000
    endloop
  endfacet
  facet normal  0.000000e+000  0.000000e+000 -1.000000e+000
    outer loop
      vertex -2.650000e+001 -3.487000e+000  0.000000e+000
      vertex  6.000000e+000 -3.000000e+000  0.000000e+000
      vertex -2.650000e+001 -1.851350e+001  0.000000e+000
    endloop
  endfacet
  facet normal  0.000000e+000  0.000000e+000 -1.000000e+000
    outer loop
      vertex -2.650000e+001 -1.851350e+001  0.000000e+000
      vertex  6.000000e+000 -3.000000e+000  0.000000e+000
      vertex  2.650000e+001 -3.487000e+000  0.000000e+000
    endloop
  endfacet
  facet normal  0.000000e+000  -0.000000e+000 -1.000000e+000
    outer loop
      vertex -2.650000e+001 -1.851350e+001  0.000000e+000
      vertex  2.650000e+001 -3.487000e+000  0.000000e+000
      vertex  2.650000e+001 -1.851350e+001  0.000000e+000
    endloop
  endfacet
  facet normal  -0.000000e+000  0.000000e+000 -1.000000e+000
    outer loop
      vertex -2.650000e+001  1.851350e+001  0.000000e+000
      vertex  2.650000e+001  1.851350e+001  0.000000e+000
      vertex -6.000000e+000  3.000000e+000  0.000000e+000
    endloop
  endfacet
  facet normal  0.000000e+000  0.000000e+000 -1.000000e+000
    outer loop
      vertex -6.000000e+000  3.000000e+000  0.000000e+000
      vertex  2.650000e+001  1.851350e+001  0.000000e+000
      vertex  6.000000e+000  3.000000e+000  0.000000e+000
    endloop
  endfacet
  facet normal  0.000000e+000 -1.000000e+000  0.000000e+000
    outer loop
      vertex -6.000000e+000 -3.000000e+000 -6.000000e+000
      vertex  6.000000e+000 -3.000000e+000 -6.000000e+000
      vertex -6.000000e+000 -3.000000e+000  0.000000e+000
    endloop
  endfacet
  facet normal  0.000000e+000 -1.000000e+000  0.000000e+000
    outer loop
      vertex -6.000000e+000 -3.000000e+000  0.000000e+000
      vertex  6.000000e+000 -3.000000e+000 -6.000000e+000
      vertex  6.000000e+000 -3.000000e+000  0.000000e+000
    endloop
  endfacet
  facet normal  -0.000000e+000  0.000000e+000 -1.000000e+000
    outer loop
      vertex -6.000000e+000  3.000000e+000 -6.000000e+000
      vertex  6.000000e+000  3.000000e+000 -6.000000e+000
      vertex -6.000000e+000 -3.000000e+000 -6.000000e+000
    endloop
  endfacet
  facet normal  0.000000e+000  0.000000e+000 -1.000000e+000
    outer loop
      vertex -6.000000e+000 -3.000000e+000 -6.000000e+000
      vertex  6.000000e+000  3.000000e+000 -6.000000e+000
      vertex  6.000000e+000 -3.000000e+000 -6.000000e+000
    endloop
  endfacet
  facet normal  0.000000e+000  0.000000e+000  1.000000e+000
    outer loop
      vertex  3.050000e+001  1.513000e+000  5.000000e+000
      vertex -3.050000e+001 -3.487000e+000  5.000000e+000
      vertex -2.650000e+001 -3.487000e+000  5.000000e+000
    endloop
  endfacet
  facet normal  0.000000e+000  0.000000e+000  1.000000e+000
    outer loop
      vertex  3.050000e+001  1.513000e+000  5.000000e+000
      vertex -2.650000e+001 -3.487000e+000  5.000000e+000
      vertex  2.650000e+001 -3.487000e+000  5.000000e+000
    endloop
  endfacet
  facet normal  0.000000e+000  0.000000e+000  1.000000e+000
    outer loop
      vertex  3.050000e+001  1.513000e+000  5.000000e+000
      vertex  2.650000e+001 -3.487000e+000  5.000000e+000
      vertex  3.050000e+001 -3.487000e+000  5.000000e+000
    endloop
  endfacet
  facet normal  0.000000e+000  0.000000e+000  1.000000e+000
    outer loop
      vertex -3.050000e+001 -3.487000e+000  5.000000e+000
      vertex  3.050000e+001  1.513000e+000  5.000000e+000
      vertex  2.650000e+001  1.513000e+000  5.000000e+000
    endloop
  endfacet
  facet normal  0.000000e+000  0.000000e+000  1.000000e+000
    outer loop
      vertex -3.050000e+001 -3.487000e+000  5.000000e+000
      vertex  2.650000e+001  1.513000e+000  5.000000e+000
      vertex -2.650000e+001  1.513000e+000  5.000000e+000
    endloop
  endfacet
  facet normal  0.000000e+000  0.000000e+000  1.000000e+000
    outer loop
      vertex -3.050000e+001 -3.487000e+000  5.000000e+000
      vertex -2.650000e+001  1.513000e+000  5.000000e+000
      vertex -3.050000e+001  1.513000e+000  5.000000e+000
    endloop
  endfacet
  facet normal  0.000000e+000  0.000000e+000  9.999999e-001
    outer loop
      vertex -2.650000e+001  1.513000e+000  5.000000e+000
      vertex  2.650000e+001  1.513000e+000  5.000000e+000
      vertex -2.650000e+001  1.851350e+001  5.000000e+000
    endloop
  endfacet
  facet normal  -0.000000e+000  0.000000e+000  9.999999e-001
    outer loop
      vertex -2.650000e+001  1.851350e+001  5.000000e+000
      vertex  2.650000e+001  1.513000e+000  5.000000e+000
      vertex  2.650000e+001  1.851350e+001  5.000000e+000
    endloop
  endfacet
  facet normal  0.000000e+000  0.000000e+000  1.000000e+000
    outer loop
      vertex -2.650000e+001 -1.851350e+001  5.000000e+000
      vertex  2.650000e+001 -1.851350e+001  5.000000e+000
      vertex -2.650000e+001 -3.487000e+000  5.000000e+000
    endloop
  endfacet
  facet normal  -0.000000e+000  0.000000e+000  1.000000e+000
    outer loop
      vertex -2.650000e+001 -3.487000e+000  5.000000e+000
      vertex  2.650000e+001 -1.851350e+001  5.000000e+000
      vertex  2.650000e+001 -3.487000e+000  5.000000e+000
    endloop
  endfacet
  facet normal -1.000000e+000  0.000000e+000  0.000000e+000
    outer loop
      vertex -2.650000e+001 -3.487000e+000  5.000000e+000
      vertex -2.650000e+001 -3.487000e+000  0.000000e+000
      vertex -2.650000e+001 -1.851350e+001  5.000000e+000
    endloop
  endfacet
  facet normal -1.000000e+000  0.000000e+000  0.000000e+000
    outer loop
      vertex -2.650000e+001 -1.851350e+001  5.000000e+000
      vertex -2.650000e+001 -3.487000e+000  0.000000e+000
      vertex -2.650000e+001 -1.851350e+001  0.000000e+000
    endloop
  endfacet
  facet normal  0.000000e+000 -1.000000e+000  0.000000e+000
    outer loop
      vertex -3.050000e+001 -3.487000e+000  5.000000e+000
      vertex -3.050000e+001 -3.487000e+000  0.000000e+000
      vertex -2.650000e+001 -3.487000e+000  5.000000e+000
    endloop
  endfacet
  facet normal  0.000000e+000 -1.000000e+000  -0.000000e+000
    outer loop
      vertex -2.650000e+001 -3.487000e+000  5.000000e+000
      vertex -3.050000e+001 -3.487000e+000  0.000000e+000
      vertex -2.650000e+001 -3.487000e+000  0.000000e+000
    endloop
  endfacet
  facet normal -1.000000e+000  0.000000e+000  0.000000e+000
    outer loop
      vertex -3.050000e+001 -3.487000e+000  0.000000e+000
      vertex -3.050000e+001 -3.487000e+000  5.000000e+000
      vertex -3.050000e+001  1.513000e+000  0.000000e+000
    endloop
  endfacet
  facet normal -1.000000e+000  0.000000e+000  0.000000e+000
    outer loop
      vertex -3.050000e+001  1.513000e+000  0.000000e+000
      vertex -3.050000e+001 -3.487000e+000  5.000000e+000
      vertex -3.050000e+001  1.513000e+000  5.000000e+000
    endloop
  endfacet
  facet normal  0.000000e+000  1.000000e+000  -0.000000e+000
    outer loop
      vertex -2.650000e+001  1.513000e+000  5.000000e+000
      vertex -2.650000e+001  1.513000e+000  0.000000e+000
      vertex -3.050000e+001  1.513000e+000  5.000000e+000
    endloop
  endfacet
  facet normal  0.000000e+000  1.000000e+000  0.000000e+000
    outer loop
      vertex -3.050000e+001  1.513000e+000  5.000000e+000
      vertex -2.650000e+001  1.513000e+000  0.000000e+000
      vertex -3.050000e+001  1.513000e+000  0.000000e+000
    endloop
  endfacet
  facet normal -1.000000e+000  0.000000e+000  0.000000e+000
    outer loop
      vertex -2.650000e+001  1.851350e+001  5.000000e+000
      vertex -2.650000e+001  1.851350e+001  0.000000e+000
      vertex -2.650000e+001  1.513000e+000  5.000000e+000
    endloop
  endfacet
  facet normal -1.000000e+000  0.000000e+000  0.000000e+000
    outer loop
      vertex -2.650000e+001  1.513000e+000  5.000000e+000
      vertex -2.650000e+001  1.851350e+001  0.000000e+000
      vertex -2.650000e+001  1.513000e+000  0.000000e+000
    endloop
  endfacet
  facet normal  0.000000e+000  1.000000e+000  -0.000000e+000
    outer loop
      vertex  2.650000e+001  1.851350e+001  5.000000e+000
      vertex  2.650000e+001  1.851350e+001  0.000000e+000
      vertex -2.650000e+001  1.851350e+001  5.000000e+000
    endloop
  endfacet
  facet normal  0.000000e+000  1.000000e+000  0.000000e+000
    outer loop
      vertex -2.650000e+001  1.851350e+001  5.000000e+000
      vertex  2.650000e+001  1.851350e+001  0.000000e+000
      vertex -2.650000e+001  1.851350e+001  0.000000e+000
    endloop
  endfacet
  facet normal  1.000000e+000  0.000000e+000  0.000000e+000
    outer loop
      vertex  2.650000e+001  1.513000e+000  5.000000e+000
      vertex  2.650000e+001  1.513000e+000  0.000000e+000
      vertex  2.650000e+001  1.851350e+001  5.000000e+000
    endloop
  endfacet
  facet normal  1.000000e+000  0.000000e+000  0.000000e+000
    outer loop
      vertex  2.650000e+001  1.851350e+001  5.000000e+000
      vertex  2.650000e+001  1.513000e+000  0.000000e+000
      vertex  2.650000e+001  1.851350e+001  0.000000e+000
    endloop
  endfacet
  facet normal  0.000000e+000  1.000000e+000  -0.000000e+000
    outer loop
      vertex  3.050000e+001  1.513000e+000  5.000000e+000
      vertex  3.050000e+001  1.513000e+000  0.000000e+000
      vertex  2.650000e+001  1.513000e+000  5.000000e+000
    endloop
  endfacet
  facet normal  0.000000e+000  1.000000e+000  0.000000e+000
    outer loop
      vertex  2.650000e+001  1.513000e+000  5.000000e+000
      vertex  3.050000e+001  1.513000e+000  0.000000e+000
      vertex  2.650000e+001  1.513000e+000  0.000000e+000
    endloop
  endfacet
  facet normal  1.000000e+000  0.000000e+000  0.000000e+000
    outer loop
      vertex  3.050000e+001 -3.487000e+000  0.000000e+000
      vertex  3.050000e+001  1.513000e+000  0.000000e+000
      vertex  3.050000e+001 -3.487000e+000  5.000000e+000
    endloop
  endfacet
  facet normal  1.000000e+000  -0.000000e+000  0.000000e+000
    outer loop
      vertex  3.050000e+001 -3.487000e+000  5.000000e+000
      vertex  3.050000e+001  1.513000e+000  0.000000e+000
      vertex  3.050000e+001  1.513000e+000  5.000000e+000
    endloop
  endfacet
  facet normal  0.000000e+000 -1.000000e+000  0.000000e+000
    outer loop
      vertex  2.650000e+001 -3.487000e+000  5.000000e+000
      vertex  2.650000e+001 -3.487000e+000  0.000000e+000
      vertex  3.050000e+001 -3.487000e+000  5.000000e+000
    endloop
  endfacet
  facet normal  0.000000e+000 -1.000000e+000  -0.000000e+000
    outer loop
      vertex  3.050000e+001 -3.487000e+000  5.000000e+000
      vertex  2.650000e+001 -3.487000e+000  0.000000e+000
      vertex  3.050000e+001 -3.487000e+000  0.000000e+000
    endloop
  endfacet
  facet normal  1.000000e+000  0.000000e+000  0.000000e+000
    outer loop
      vertex  2.650000e+001 -1.851350e+001  5.000000e+000
      vertex  2.650000e+001 -1.851350e+001  0.000000e+000
      vertex  2.650000e+001 -3.487000e+000  5.000000e+000
    endloop
  endfacet
  facet normal  1.000000e+000  0.000000e+000  0.000000e+000
    outer loop
      vertex  2.650000e+001 -3.487000e+000  5.000000e+000
      vertex  2.650000e+001 -1.851350e+001  0.000000e+000
      vertex  2.650000e+001 -3.487000e+000  0.000000e+000
    endloop
  endfacet
  facet normal  0.000000e+000 -1.000000e+000  0.000000e+000
    outer loop
      vertex -2.650000e+001 -1.851350e+001  5.000000e+000
      vertex -2.650000e+001 -1.851350e+001  0.000000e+000
      vertex  2.650000e+001 -1.851350e+001  5.000000e+000
    endloop
  endfacet
  facet normal  0.000000e+000 -1.000000e+000  -0.000000e+000
    outer loop
      vertex  2.650000e+001 -1.851350e+001  5.000000e+000
      vertex -2.650000e+001 -1.851350e+001  0.000000e+000
      vertex  2.650000e+001 -1.851350e+001  0.000000e+000
    endloop
  endfacet
endsolid CATIA STL
